<svg width="1440" height="1024" viewBox="0 0 1440 1024" fill="none" xmlns="http://www.w3.org/2000/svg">
<g clip-path="url(#clip0_1_6650)">
<mask id="mask0_1_6650" style="mask-type:alpha" maskUnits="userSpaceOnUse" x="0" y="0" width="1440" height="1440">
<rect width="1440" height="1440" fill="url(#paint0_radial_1_6650)"/>
</mask>
<g mask="url(#mask0_1_6650)">
<g clip-path="url(#clip1_1_6650)">
<mask id="path-3-inside-1_1_6650" fill="white">
<path d="M-48 0H16V64H-48V0Z"/>
</mask>
<path d="M16 64V65H17V64H16ZM15 0V64H17V0H15ZM16 63H-48V65H16V63Z" fill="#D0D5DD" mask="url(#path-3-inside-1_1_6650)"/>
<mask id="path-5-inside-2_1_6650" fill="white">
<path d="M16 0H80V64H16V0Z"/>
</mask>
<path d="M80 64V65H81V64H80ZM79 0V64H81V0H79ZM80 63H16V65H80V63Z" fill="#D0D5DD" mask="url(#path-5-inside-2_1_6650)"/>
<mask id="path-7-inside-3_1_6650" fill="white">
<path d="M80 0H144V64H80V0Z"/>
</mask>
<path d="M144 64V65H145V64H144ZM143 0V64H145V0H143ZM144 63H80V65H144V63Z" fill="#D0D5DD" mask="url(#path-7-inside-3_1_6650)"/>
<mask id="path-9-inside-4_1_6650" fill="white">
<path d="M144 0H208V64H144V0Z"/>
</mask>
<path d="M208 64V65H209V64H208ZM207 0V64H209V0H207ZM208 63H144V65H208V63Z" fill="#D0D5DD" mask="url(#path-9-inside-4_1_6650)"/>
<mask id="path-11-inside-5_1_6650" fill="white">
<path d="M208 0H272V64H208V0Z"/>
</mask>
<path d="M272 64V65H273V64H272ZM271 0V64H273V0H271ZM272 63H208V65H272V63Z" fill="#D0D5DD" mask="url(#path-11-inside-5_1_6650)"/>
<mask id="path-13-inside-6_1_6650" fill="white">
<path d="M272 0H336V64H272V0Z"/>
</mask>
<path d="M336 64V65H337V64H336ZM335 0V64H337V0H335ZM336 63H272V65H336V63Z" fill="#D0D5DD" mask="url(#path-13-inside-6_1_6650)"/>
<mask id="path-15-inside-7_1_6650" fill="white">
<path d="M336 0H400V64H336V0Z"/>
</mask>
<path d="M400 64V65H401V64H400ZM399 0V64H401V0H399ZM400 63H336V65H400V63Z" fill="#D0D5DD" mask="url(#path-15-inside-7_1_6650)"/>
<mask id="path-17-inside-8_1_6650" fill="white">
<path d="M400 0H464V64H400V0Z"/>
</mask>
<path d="M464 64V65H465V64H464ZM463 0V64H465V0H463ZM464 63H400V65H464V63Z" fill="#D0D5DD" mask="url(#path-17-inside-8_1_6650)"/>
<mask id="path-19-inside-9_1_6650" fill="white">
<path d="M464 0H528V64H464V0Z"/>
</mask>
<path d="M528 64V65H529V64H528ZM527 0V64H529V0H527ZM528 63H464V65H528V63Z" fill="#D0D5DD" mask="url(#path-19-inside-9_1_6650)"/>
<mask id="path-21-inside-10_1_6650" fill="white">
<path d="M528 0H592V64H528V0Z"/>
</mask>
<path d="M592 64V65H593V64H592ZM591 0V64H593V0H591ZM592 63H528V65H592V63Z" fill="#D0D5DD" mask="url(#path-21-inside-10_1_6650)"/>
<mask id="path-23-inside-11_1_6650" fill="white">
<path d="M592 0H656V64H592V0Z"/>
</mask>
<path d="M656 64V65H657V64H656ZM655 0V64H657V0H655ZM656 63H592V65H656V63Z" fill="#D0D5DD" mask="url(#path-23-inside-11_1_6650)"/>
<mask id="path-25-inside-12_1_6650" fill="white">
<path d="M656 0H720V64H656V0Z"/>
</mask>
<path d="M720 64V65H721V64H720ZM719 0V64H721V0H719ZM720 63H656V65H720V63Z" fill="#D0D5DD" mask="url(#path-25-inside-12_1_6650)"/>
<mask id="path-27-inside-13_1_6650" fill="white">
<path d="M720 0H784V64H720V0Z"/>
</mask>
<path d="M784 64V65H785V64H784ZM783 0V64H785V0H783ZM784 63H720V65H784V63Z" fill="#D0D5DD" mask="url(#path-27-inside-13_1_6650)"/>
<mask id="path-29-inside-14_1_6650" fill="white">
<path d="M784 0H848V64H784V0Z"/>
</mask>
<path d="M848 64V65H849V64H848ZM847 0V64H849V0H847ZM848 63H784V65H848V63Z" fill="#D0D5DD" mask="url(#path-29-inside-14_1_6650)"/>
<mask id="path-31-inside-15_1_6650" fill="white">
<path d="M848 0H912V64H848V0Z"/>
</mask>
<path d="M912 64V65H913V64H912ZM911 0V64H913V0H911ZM912 63H848V65H912V63Z" fill="#D0D5DD" mask="url(#path-31-inside-15_1_6650)"/>
<mask id="path-33-inside-16_1_6650" fill="white">
<path d="M912 0H976V64H912V0Z"/>
</mask>
<path d="M976 64V65H977V64H976ZM975 0V64H977V0H975ZM976 63H912V65H976V63Z" fill="#D0D5DD" mask="url(#path-33-inside-16_1_6650)"/>
<mask id="path-35-inside-17_1_6650" fill="white">
<path d="M976 0H1040V64H976V0Z"/>
</mask>
<path d="M1040 64V65H1041V64H1040ZM1039 0V64H1041V0H1039ZM1040 63H976V65H1040V63Z" fill="#D0D5DD" mask="url(#path-35-inside-17_1_6650)"/>
<mask id="path-37-inside-18_1_6650" fill="white">
<path d="M1040 0H1104V64H1040V0Z"/>
</mask>
<path d="M1104 64V65H1105V64H1104ZM1103 0V64H1105V0H1103ZM1104 63H1040V65H1104V63Z" fill="#D0D5DD" mask="url(#path-37-inside-18_1_6650)"/>
<mask id="path-39-inside-19_1_6650" fill="white">
<path d="M1104 0H1168V64H1104V0Z"/>
</mask>
<path d="M1168 64V65H1169V64H1168ZM1167 0V64H1169V0H1167ZM1168 63H1104V65H1168V63Z" fill="#D0D5DD" mask="url(#path-39-inside-19_1_6650)"/>
<mask id="path-41-inside-20_1_6650" fill="white">
<path d="M1168 0H1232V64H1168V0Z"/>
</mask>
<path d="M1232 64V65H1233V64H1232ZM1231 0V64H1233V0H1231ZM1232 63H1168V65H1232V63Z" fill="#D0D5DD" mask="url(#path-41-inside-20_1_6650)"/>
<mask id="path-43-inside-21_1_6650" fill="white">
<path d="M1232 0H1296V64H1232V0Z"/>
</mask>
<path d="M1296 64V65H1297V64H1296ZM1295 0V64H1297V0H1295ZM1296 63H1232V65H1296V63Z" fill="#D0D5DD" mask="url(#path-43-inside-21_1_6650)"/>
<mask id="path-45-inside-22_1_6650" fill="white">
<path d="M1296 0H1360V64H1296V0Z"/>
</mask>
<path d="M1360 64V65H1361V64H1360ZM1359 0V64H1361V0H1359ZM1360 63H1296V65H1360V63Z" fill="#D0D5DD" mask="url(#path-45-inside-22_1_6650)"/>
<mask id="path-47-inside-23_1_6650" fill="white">
<path d="M1360 0H1424V64H1360V0Z"/>
</mask>
<path d="M1424 64V65H1425V64H1424ZM1423 0V64H1425V0H1423ZM1424 63H1360V65H1424V63Z" fill="#D0D5DD" mask="url(#path-47-inside-23_1_6650)"/>
<mask id="path-49-inside-24_1_6650" fill="white">
<path d="M1424 0H1488V64H1424V0Z"/>
</mask>
<path d="M1488 64V65H1489V64H1488ZM1487 0V64H1489V0H1487ZM1488 63H1424V65H1488V63Z" fill="#D0D5DD" mask="url(#path-49-inside-24_1_6650)"/>
<mask id="path-51-inside-25_1_6650" fill="white">
<path d="M-48 64H16V128H-48V64Z"/>
</mask>
<path d="M16 128V129H17V128H16ZM15 64V128H17V64H15ZM16 127H-48V129H16V127Z" fill="#D0D5DD" mask="url(#path-51-inside-25_1_6650)"/>
<mask id="path-53-inside-26_1_6650" fill="white">
<path d="M16 64H80V128H16V64Z"/>
</mask>
<path d="M80 128V129H81V128H80ZM79 64V128H81V64H79ZM80 127H16V129H80V127Z" fill="#D0D5DD" mask="url(#path-53-inside-26_1_6650)"/>
<mask id="path-55-inside-27_1_6650" fill="white">
<path d="M80 64H144V128H80V64Z"/>
</mask>
<path d="M80 64H144V128H80V64Z" fill="#F2F4F7"/>
<path d="M144 128V129H145V128H144ZM143 64V128H145V64H143ZM144 127H80V129H144V127Z" fill="#D0D5DD" mask="url(#path-55-inside-27_1_6650)"/>
<mask id="path-57-inside-28_1_6650" fill="white">
<path d="M144 64H208V128H144V64Z"/>
</mask>
<path d="M208 128V129H209V128H208ZM207 64V128H209V64H207ZM208 127H144V129H208V127Z" fill="#D0D5DD" mask="url(#path-57-inside-28_1_6650)"/>
<mask id="path-59-inside-29_1_6650" fill="white">
<path d="M208 64H272V128H208V64Z"/>
</mask>
<path d="M272 128V129H273V128H272ZM271 64V128H273V64H271ZM272 127H208V129H272V127Z" fill="#D0D5DD" mask="url(#path-59-inside-29_1_6650)"/>
<mask id="path-61-inside-30_1_6650" fill="white">
<path d="M272 64H336V128H272V64Z"/>
</mask>
<path d="M336 128V129H337V128H336ZM335 64V128H337V64H335ZM336 127H272V129H336V127Z" fill="#D0D5DD" mask="url(#path-61-inside-30_1_6650)"/>
<mask id="path-63-inside-31_1_6650" fill="white">
<path d="M336 64H400V128H336V64Z"/>
</mask>
<path d="M336 64H400V128H336V64Z" fill="#F2F4F7"/>
<path d="M400 128V129H401V128H400ZM399 64V128H401V64H399ZM400 127H336V129H400V127Z" fill="#D0D5DD" mask="url(#path-63-inside-31_1_6650)"/>
<mask id="path-65-inside-32_1_6650" fill="white">
<path d="M400 64H464V128H400V64Z"/>
</mask>
<path d="M464 128V129H465V128H464ZM463 64V128H465V64H463ZM464 127H400V129H464V127Z" fill="#D0D5DD" mask="url(#path-65-inside-32_1_6650)"/>
<mask id="path-67-inside-33_1_6650" fill="white">
<path d="M464 64H528V128H464V64Z"/>
</mask>
<path d="M528 128V129H529V128H528ZM527 64V128H529V64H527ZM528 127H464V129H528V127Z" fill="#D0D5DD" mask="url(#path-67-inside-33_1_6650)"/>
<mask id="path-69-inside-34_1_6650" fill="white">
<path d="M528 64H592V128H528V64Z"/>
</mask>
<path d="M592 128V129H593V128H592ZM591 64V128H593V64H591ZM592 127H528V129H592V127Z" fill="#D0D5DD" mask="url(#path-69-inside-34_1_6650)"/>
<mask id="path-71-inside-35_1_6650" fill="white">
<path d="M592 64H656V128H592V64Z"/>
</mask>
<path d="M656 128V129H657V128H656ZM655 64V128H657V64H655ZM656 127H592V129H656V127Z" fill="#D0D5DD" mask="url(#path-71-inside-35_1_6650)"/>
<mask id="path-73-inside-36_1_6650" fill="white">
<path d="M656 64H720V128H656V64Z"/>
</mask>
<path d="M720 128V129H721V128H720ZM719 64V128H721V64H719ZM720 127H656V129H720V127Z" fill="#D0D5DD" mask="url(#path-73-inside-36_1_6650)"/>
<mask id="path-75-inside-37_1_6650" fill="white">
<path d="M720 64H784V128H720V64Z"/>
</mask>
<path d="M784 128V129H785V128H784ZM783 64V128H785V64H783ZM784 127H720V129H784V127Z" fill="#D0D5DD" mask="url(#path-75-inside-37_1_6650)"/>
<mask id="path-77-inside-38_1_6650" fill="white">
<path d="M784 64H848V128H784V64Z"/>
</mask>
<path d="M848 128V129H849V128H848ZM847 64V128H849V64H847ZM848 127H784V129H848V127Z" fill="#D0D5DD" mask="url(#path-77-inside-38_1_6650)"/>
<mask id="path-79-inside-39_1_6650" fill="white">
<path d="M848 64H912V128H848V64Z"/>
</mask>
<path d="M912 128V129H913V128H912ZM911 64V128H913V64H911ZM912 127H848V129H912V127Z" fill="#D0D5DD" mask="url(#path-79-inside-39_1_6650)"/>
<mask id="path-81-inside-40_1_6650" fill="white">
<path d="M912 64H976V128H912V64Z"/>
</mask>
<path d="M976 128V129H977V128H976ZM975 64V128H977V64H975ZM976 127H912V129H976V127Z" fill="#D0D5DD" mask="url(#path-81-inside-40_1_6650)"/>
<mask id="path-83-inside-41_1_6650" fill="white">
<path d="M976 64H1040V128H976V64Z"/>
</mask>
<path d="M1040 128V129H1041V128H1040ZM1039 64V128H1041V64H1039ZM1040 127H976V129H1040V127Z" fill="#D0D5DD" mask="url(#path-83-inside-41_1_6650)"/>
<mask id="path-85-inside-42_1_6650" fill="white">
<path d="M1040 64H1104V128H1040V64Z"/>
</mask>
<path d="M1040 64H1104V128H1040V64Z" fill="#F2F4F7"/>
<path d="M1104 128V129H1105V128H1104ZM1103 64V128H1105V64H1103ZM1104 127H1040V129H1104V127Z" fill="#D0D5DD" mask="url(#path-85-inside-42_1_6650)"/>
<mask id="path-87-inside-43_1_6650" fill="white">
<path d="M1104 64H1168V128H1104V64Z"/>
</mask>
<path d="M1168 128V129H1169V128H1168ZM1167 64V128H1169V64H1167ZM1168 127H1104V129H1168V127Z" fill="#D0D5DD" mask="url(#path-87-inside-43_1_6650)"/>
<mask id="path-89-inside-44_1_6650" fill="white">
<path d="M1168 64H1232V128H1168V64Z"/>
</mask>
<path d="M1232 128V129H1233V128H1232ZM1231 64V128H1233V64H1231ZM1232 127H1168V129H1232V127Z" fill="#D0D5DD" mask="url(#path-89-inside-44_1_6650)"/>
<mask id="path-91-inside-45_1_6650" fill="white">
<path d="M1232 64H1296V128H1232V64Z"/>
</mask>
<path d="M1296 128V129H1297V128H1296ZM1295 64V128H1297V64H1295ZM1296 127H1232V129H1296V127Z" fill="#D0D5DD" mask="url(#path-91-inside-45_1_6650)"/>
<mask id="path-93-inside-46_1_6650" fill="white">
<path d="M1296 64H1360V128H1296V64Z"/>
</mask>
<path d="M1360 128V129H1361V128H1360ZM1359 64V128H1361V64H1359ZM1360 127H1296V129H1360V127Z" fill="#D0D5DD" mask="url(#path-93-inside-46_1_6650)"/>
<mask id="path-95-inside-47_1_6650" fill="white">
<path d="M1360 64H1424V128H1360V64Z"/>
</mask>
<path d="M1424 128V129H1425V128H1424ZM1423 64V128H1425V64H1423ZM1424 127H1360V129H1424V127Z" fill="#D0D5DD" mask="url(#path-95-inside-47_1_6650)"/>
<mask id="path-97-inside-48_1_6650" fill="white">
<path d="M1424 64H1488V128H1424V64Z"/>
</mask>
<path d="M1488 128V129H1489V128H1488ZM1487 64V128H1489V64H1487ZM1488 127H1424V129H1488V127Z" fill="#D0D5DD" mask="url(#path-97-inside-48_1_6650)"/>
<mask id="path-99-inside-49_1_6650" fill="white">
<path d="M-48 128H16V192H-48V128Z"/>
</mask>
<path d="M16 192V193H17V192H16ZM15 128V192H17V128H15ZM16 191H-48V193H16V191Z" fill="#D0D5DD" mask="url(#path-99-inside-49_1_6650)"/>
<mask id="path-101-inside-50_1_6650" fill="white">
<path d="M16 128H80V192H16V128Z"/>
</mask>
<path d="M80 192V193H81V192H80ZM79 128V192H81V128H79ZM80 191H16V193H80V191Z" fill="#D0D5DD" mask="url(#path-101-inside-50_1_6650)"/>
<mask id="path-103-inside-51_1_6650" fill="white">
<path d="M80 128H144V192H80V128Z"/>
</mask>
<path d="M144 192V193H145V192H144ZM143 128V192H145V128H143ZM144 191H80V193H144V191Z" fill="#D0D5DD" mask="url(#path-103-inside-51_1_6650)"/>
<mask id="path-105-inside-52_1_6650" fill="white">
<path d="M144 128H208V192H144V128Z"/>
</mask>
<path d="M208 192V193H209V192H208ZM207 128V192H209V128H207ZM208 191H144V193H208V191Z" fill="#D0D5DD" mask="url(#path-105-inside-52_1_6650)"/>
<mask id="path-107-inside-53_1_6650" fill="white">
<path d="M208 128H272V192H208V128Z"/>
</mask>
<path d="M272 192V193H273V192H272ZM271 128V192H273V128H271ZM272 191H208V193H272V191Z" fill="#D0D5DD" mask="url(#path-107-inside-53_1_6650)"/>
<mask id="path-109-inside-54_1_6650" fill="white">
<path d="M272 128H336V192H272V128Z"/>
</mask>
<path d="M336 192V193H337V192H336ZM335 128V192H337V128H335ZM336 191H272V193H336V191Z" fill="#D0D5DD" mask="url(#path-109-inside-54_1_6650)"/>
<mask id="path-111-inside-55_1_6650" fill="white">
<path d="M336 128H400V192H336V128Z"/>
</mask>
<path d="M400 192V193H401V192H400ZM399 128V192H401V128H399ZM400 191H336V193H400V191Z" fill="#D0D5DD" mask="url(#path-111-inside-55_1_6650)"/>
<mask id="path-113-inside-56_1_6650" fill="white">
<path d="M400 128H464V192H400V128Z"/>
</mask>
<path d="M464 192V193H465V192H464ZM463 128V192H465V128H463ZM464 191H400V193H464V191Z" fill="#D0D5DD" mask="url(#path-113-inside-56_1_6650)"/>
<mask id="path-115-inside-57_1_6650" fill="white">
<path d="M464 128H528V192H464V128Z"/>
</mask>
<path d="M464 128H528V192H464V128Z" fill="#F2F4F7"/>
<path d="M528 192V193H529V192H528ZM527 128V192H529V128H527ZM528 191H464V193H528V191Z" fill="#D0D5DD" mask="url(#path-115-inside-57_1_6650)"/>
<mask id="path-117-inside-58_1_6650" fill="white">
<path d="M528 128H592V192H528V128Z"/>
</mask>
<path d="M592 192V193H593V192H592ZM591 128V192H593V128H591ZM592 191H528V193H592V191Z" fill="#D0D5DD" mask="url(#path-117-inside-58_1_6650)"/>
<mask id="path-119-inside-59_1_6650" fill="white">
<path d="M592 128H656V192H592V128Z"/>
</mask>
<path d="M656 192V193H657V192H656ZM655 128V192H657V128H655ZM656 191H592V193H656V191Z" fill="#D0D5DD" mask="url(#path-119-inside-59_1_6650)"/>
<mask id="path-121-inside-60_1_6650" fill="white">
<path d="M656 128H720V192H656V128Z"/>
</mask>
<path d="M720 192V193H721V192H720ZM719 128V192H721V128H719ZM720 191H656V193H720V191Z" fill="#D0D5DD" mask="url(#path-121-inside-60_1_6650)"/>
<mask id="path-123-inside-61_1_6650" fill="white">
<path d="M720 128H784V192H720V128Z"/>
</mask>
<path d="M784 192V193H785V192H784ZM783 128V192H785V128H783ZM784 191H720V193H784V191Z" fill="#D0D5DD" mask="url(#path-123-inside-61_1_6650)"/>
<mask id="path-125-inside-62_1_6650" fill="white">
<path d="M784 128H848V192H784V128Z"/>
</mask>
<path d="M784 128H848V192H784V128Z" fill="#F2F4F7"/>
<path d="M848 192V193H849V192H848ZM847 128V192H849V128H847ZM848 191H784V193H848V191Z" fill="#D0D5DD" mask="url(#path-125-inside-62_1_6650)"/>
<mask id="path-127-inside-63_1_6650" fill="white">
<path d="M848 128H912V192H848V128Z"/>
</mask>
<path d="M912 192V193H913V192H912ZM911 128V192H913V128H911ZM912 191H848V193H912V191Z" fill="#D0D5DD" mask="url(#path-127-inside-63_1_6650)"/>
<mask id="path-129-inside-64_1_6650" fill="white">
<path d="M912 128H976V192H912V128Z"/>
</mask>
<path d="M976 192V193H977V192H976ZM975 128V192H977V128H975ZM976 191H912V193H976V191Z" fill="#D0D5DD" mask="url(#path-129-inside-64_1_6650)"/>
<mask id="path-131-inside-65_1_6650" fill="white">
<path d="M976 128H1040V192H976V128Z"/>
</mask>
<path d="M1040 192V193H1041V192H1040ZM1039 128V192H1041V128H1039ZM1040 191H976V193H1040V191Z" fill="#D0D5DD" mask="url(#path-131-inside-65_1_6650)"/>
<mask id="path-133-inside-66_1_6650" fill="white">
<path d="M1040 128H1104V192H1040V128Z"/>
</mask>
<path d="M1104 192V193H1105V192H1104ZM1103 128V192H1105V128H1103ZM1104 191H1040V193H1104V191Z" fill="#D0D5DD" mask="url(#path-133-inside-66_1_6650)"/>
<mask id="path-135-inside-67_1_6650" fill="white">
<path d="M1104 128H1168V192H1104V128Z"/>
</mask>
<path d="M1168 192V193H1169V192H1168ZM1167 128V192H1169V128H1167ZM1168 191H1104V193H1168V191Z" fill="#D0D5DD" mask="url(#path-135-inside-67_1_6650)"/>
<mask id="path-137-inside-68_1_6650" fill="white">
<path d="M1168 128H1232V192H1168V128Z"/>
</mask>
<path d="M1232 192V193H1233V192H1232ZM1231 128V192H1233V128H1231ZM1232 191H1168V193H1232V191Z" fill="#D0D5DD" mask="url(#path-137-inside-68_1_6650)"/>
<mask id="path-139-inside-69_1_6650" fill="white">
<path d="M1232 128H1296V192H1232V128Z"/>
</mask>
<path d="M1296 192V193H1297V192H1296ZM1295 128V192H1297V128H1295ZM1296 191H1232V193H1296V191Z" fill="#D0D5DD" mask="url(#path-139-inside-69_1_6650)"/>
<mask id="path-141-inside-70_1_6650" fill="white">
<path d="M1296 128H1360V192H1296V128Z"/>
</mask>
<path d="M1360 192V193H1361V192H1360ZM1359 128V192H1361V128H1359ZM1360 191H1296V193H1360V191Z" fill="#D0D5DD" mask="url(#path-141-inside-70_1_6650)"/>
<mask id="path-143-inside-71_1_6650" fill="white">
<path d="M1360 128H1424V192H1360V128Z"/>
</mask>
<path d="M1424 192V193H1425V192H1424ZM1423 128V192H1425V128H1423ZM1424 191H1360V193H1424V191Z" fill="#D0D5DD" mask="url(#path-143-inside-71_1_6650)"/>
<mask id="path-145-inside-72_1_6650" fill="white">
<path d="M1424 128H1488V192H1424V128Z"/>
</mask>
<path d="M1424 128H1488V192H1424V128Z" fill="#F2F4F7"/>
<path d="M1488 192V193H1489V192H1488ZM1487 128V192H1489V128H1487ZM1488 191H1424V193H1488V191Z" fill="#D0D5DD" mask="url(#path-145-inside-72_1_6650)"/>
<mask id="path-147-inside-73_1_6650" fill="white">
<path d="M-48 192H16V256H-48V192Z"/>
</mask>
<path d="M-48 192H16V256H-48V192Z" fill="#F2F4F7"/>
<path d="M16 256V257H17V256H16ZM15 192V256H17V192H15ZM16 255H-48V257H16V255Z" fill="#D0D5DD" mask="url(#path-147-inside-73_1_6650)"/>
<mask id="path-149-inside-74_1_6650" fill="white">
<path d="M16 192H80V256H16V192Z"/>
</mask>
<path d="M80 256V257H81V256H80ZM79 192V256H81V192H79ZM80 255H16V257H80V255Z" fill="#D0D5DD" mask="url(#path-149-inside-74_1_6650)"/>
<mask id="path-151-inside-75_1_6650" fill="white">
<path d="M80 192H144V256H80V192Z"/>
</mask>
<path d="M144 256V257H145V256H144ZM143 192V256H145V192H143ZM144 255H80V257H144V255Z" fill="#D0D5DD" mask="url(#path-151-inside-75_1_6650)"/>
<mask id="path-153-inside-76_1_6650" fill="white">
<path d="M144 192H208V256H144V192Z"/>
</mask>
<path d="M144 192H208V256H144V192Z" fill="#F2F4F7"/>
<path d="M208 256V257H209V256H208ZM207 192V256H209V192H207ZM208 255H144V257H208V255Z" fill="#D0D5DD" mask="url(#path-153-inside-76_1_6650)"/>
<mask id="path-155-inside-77_1_6650" fill="white">
<path d="M208 192H272V256H208V192Z"/>
</mask>
<path d="M272 256V257H273V256H272ZM271 192V256H273V192H271ZM272 255H208V257H272V255Z" fill="#D0D5DD" mask="url(#path-155-inside-77_1_6650)"/>
<mask id="path-157-inside-78_1_6650" fill="white">
<path d="M272 192H336V256H272V192Z"/>
</mask>
<path d="M336 256V257H337V256H336ZM335 192V256H337V192H335ZM336 255H272V257H336V255Z" fill="#D0D5DD" mask="url(#path-157-inside-78_1_6650)"/>
<mask id="path-159-inside-79_1_6650" fill="white">
<path d="M336 192H400V256H336V192Z"/>
</mask>
<path d="M400 256V257H401V256H400ZM399 192V256H401V192H399ZM400 255H336V257H400V255Z" fill="#D0D5DD" mask="url(#path-159-inside-79_1_6650)"/>
<mask id="path-161-inside-80_1_6650" fill="white">
<path d="M400 192H464V256H400V192Z"/>
</mask>
<path d="M464 256V257H465V256H464ZM463 192V256H465V192H463ZM464 255H400V257H464V255Z" fill="#D0D5DD" mask="url(#path-161-inside-80_1_6650)"/>
<mask id="path-163-inside-81_1_6650" fill="white">
<path d="M464 192H528V256H464V192Z"/>
</mask>
<path d="M528 256V257H529V256H528ZM527 192V256H529V192H527ZM528 255H464V257H528V255Z" fill="#D0D5DD" mask="url(#path-163-inside-81_1_6650)"/>
<mask id="path-165-inside-82_1_6650" fill="white">
<path d="M528 192H592V256H528V192Z"/>
</mask>
<path d="M592 256V257H593V256H592ZM591 192V256H593V192H591ZM592 255H528V257H592V255Z" fill="#D0D5DD" mask="url(#path-165-inside-82_1_6650)"/>
<mask id="path-167-inside-83_1_6650" fill="white">
<path d="M592 192H656V256H592V192Z"/>
</mask>
<path d="M656 256V257H657V256H656ZM655 192V256H657V192H655ZM656 255H592V257H656V255Z" fill="#D0D5DD" mask="url(#path-167-inside-83_1_6650)"/>
<mask id="path-169-inside-84_1_6650" fill="white">
<path d="M656 192H720V256H656V192Z"/>
</mask>
<path d="M720 256V257H721V256H720ZM719 192V256H721V192H719ZM720 255H656V257H720V255Z" fill="#D0D5DD" mask="url(#path-169-inside-84_1_6650)"/>
<mask id="path-171-inside-85_1_6650" fill="white">
<path d="M720 192H784V256H720V192Z"/>
</mask>
<path d="M784 256V257H785V256H784ZM783 192V256H785V192H783ZM784 255H720V257H784V255Z" fill="#D0D5DD" mask="url(#path-171-inside-85_1_6650)"/>
<mask id="path-173-inside-86_1_6650" fill="white">
<path d="M784 192H848V256H784V192Z"/>
</mask>
<path d="M848 256V257H849V256H848ZM847 192V256H849V192H847ZM848 255H784V257H848V255Z" fill="#D0D5DD" mask="url(#path-173-inside-86_1_6650)"/>
<mask id="path-175-inside-87_1_6650" fill="white">
<path d="M848 192H912V256H848V192Z"/>
</mask>
<path d="M912 256V257H913V256H912ZM911 192V256H913V192H911ZM912 255H848V257H912V255Z" fill="#D0D5DD" mask="url(#path-175-inside-87_1_6650)"/>
<mask id="path-177-inside-88_1_6650" fill="white">
<path d="M912 192H976V256H912V192Z"/>
</mask>
<path d="M976 256V257H977V256H976ZM975 192V256H977V192H975ZM976 255H912V257H976V255Z" fill="#D0D5DD" mask="url(#path-177-inside-88_1_6650)"/>
<mask id="path-179-inside-89_1_6650" fill="white">
<path d="M976 192H1040V256H976V192Z"/>
</mask>
<path d="M1040 256V257H1041V256H1040ZM1039 192V256H1041V192H1039ZM1040 255H976V257H1040V255Z" fill="#D0D5DD" mask="url(#path-179-inside-89_1_6650)"/>
<mask id="path-181-inside-90_1_6650" fill="white">
<path d="M1040 192H1104V256H1040V192Z"/>
</mask>
<path d="M1040 192H1104V256H1040V192Z" fill="#F2F4F7"/>
<path d="M1104 256V257H1105V256H1104ZM1103 192V256H1105V192H1103ZM1104 255H1040V257H1104V255Z" fill="#D0D5DD" mask="url(#path-181-inside-90_1_6650)"/>
<mask id="path-183-inside-91_1_6650" fill="white">
<path d="M1104 192H1168V256H1104V192Z"/>
</mask>
<path d="M1168 256V257H1169V256H1168ZM1167 192V256H1169V192H1167ZM1168 255H1104V257H1168V255Z" fill="#D0D5DD" mask="url(#path-183-inside-91_1_6650)"/>
<mask id="path-185-inside-92_1_6650" fill="white">
<path d="M1168 192H1232V256H1168V192Z"/>
</mask>
<path d="M1232 256V257H1233V256H1232ZM1231 192V256H1233V192H1231ZM1232 255H1168V257H1232V255Z" fill="#D0D5DD" mask="url(#path-185-inside-92_1_6650)"/>
<mask id="path-187-inside-93_1_6650" fill="white">
<path d="M1232 192H1296V256H1232V192Z"/>
</mask>
<path d="M1296 256V257H1297V256H1296ZM1295 192V256H1297V192H1295ZM1296 255H1232V257H1296V255Z" fill="#D0D5DD" mask="url(#path-187-inside-93_1_6650)"/>
<mask id="path-189-inside-94_1_6650" fill="white">
<path d="M1296 192H1360V256H1296V192Z"/>
</mask>
<path d="M1360 256V257H1361V256H1360ZM1359 192V256H1361V192H1359ZM1360 255H1296V257H1360V255Z" fill="#D0D5DD" mask="url(#path-189-inside-94_1_6650)"/>
<mask id="path-191-inside-95_1_6650" fill="white">
<path d="M1360 192H1424V256H1360V192Z"/>
</mask>
<path d="M1424 256V257H1425V256H1424ZM1423 192V256H1425V192H1423ZM1424 255H1360V257H1424V255Z" fill="#D0D5DD" mask="url(#path-191-inside-95_1_6650)"/>
<mask id="path-193-inside-96_1_6650" fill="white">
<path d="M1424 192H1488V256H1424V192Z"/>
</mask>
<path d="M1488 256V257H1489V256H1488ZM1487 192V256H1489V192H1487ZM1488 255H1424V257H1488V255Z" fill="#D0D5DD" mask="url(#path-193-inside-96_1_6650)"/>
<mask id="path-195-inside-97_1_6650" fill="white">
<path d="M-48 256H16V320H-48V256Z"/>
</mask>
<path d="M16 320V321H17V320H16ZM15 256V320H17V256H15ZM16 319H-48V321H16V319Z" fill="#D0D5DD" mask="url(#path-195-inside-97_1_6650)"/>
<mask id="path-197-inside-98_1_6650" fill="white">
<path d="M16 256H80V320H16V256Z"/>
</mask>
<path d="M80 320V321H81V320H80ZM79 256V320H81V256H79ZM80 319H16V321H80V319Z" fill="#D0D5DD" mask="url(#path-197-inside-98_1_6650)"/>
<mask id="path-199-inside-99_1_6650" fill="white">
<path d="M80 256H144V320H80V256Z"/>
</mask>
<path d="M144 320V321H145V320H144ZM143 256V320H145V256H143ZM144 319H80V321H144V319Z" fill="#D0D5DD" mask="url(#path-199-inside-99_1_6650)"/>
<mask id="path-201-inside-100_1_6650" fill="white">
<path d="M144 256H208V320H144V256Z"/>
</mask>
<path d="M208 320V321H209V320H208ZM207 256V320H209V256H207ZM208 319H144V321H208V319Z" fill="#D0D5DD" mask="url(#path-201-inside-100_1_6650)"/>
<mask id="path-203-inside-101_1_6650" fill="white">
<path d="M208 256H272V320H208V256Z"/>
</mask>
<path d="M272 320V321H273V320H272ZM271 256V320H273V256H271ZM272 319H208V321H272V319Z" fill="#D0D5DD" mask="url(#path-203-inside-101_1_6650)"/>
<mask id="path-205-inside-102_1_6650" fill="white">
<path d="M272 256H336V320H272V256Z"/>
</mask>
<path d="M272 256H336V320H272V256Z" fill="#F2F4F7"/>
<path d="M336 320V321H337V320H336ZM335 256V320H337V256H335ZM336 319H272V321H336V319Z" fill="#D0D5DD" mask="url(#path-205-inside-102_1_6650)"/>
<mask id="path-207-inside-103_1_6650" fill="white">
<path d="M336 256H400V320H336V256Z"/>
</mask>
<path d="M400 320V321H401V320H400ZM399 256V320H401V256H399ZM400 319H336V321H400V319Z" fill="#D0D5DD" mask="url(#path-207-inside-103_1_6650)"/>
<mask id="path-209-inside-104_1_6650" fill="white">
<path d="M400 256H464V320H400V256Z"/>
</mask>
<path d="M464 320V321H465V320H464ZM463 256V320H465V256H463ZM464 319H400V321H464V319Z" fill="#D0D5DD" mask="url(#path-209-inside-104_1_6650)"/>
<mask id="path-211-inside-105_1_6650" fill="white">
<path d="M464 256H528V320H464V256Z"/>
</mask>
<path d="M528 320V321H529V320H528ZM527 256V320H529V256H527ZM528 319H464V321H528V319Z" fill="#D0D5DD" mask="url(#path-211-inside-105_1_6650)"/>
<mask id="path-213-inside-106_1_6650" fill="white">
<path d="M528 256H592V320H528V256Z"/>
</mask>
<path d="M592 320V321H593V320H592ZM591 256V320H593V256H591ZM592 319H528V321H592V319Z" fill="#D0D5DD" mask="url(#path-213-inside-106_1_6650)"/>
<mask id="path-215-inside-107_1_6650" fill="white">
<path d="M592 256H656V320H592V256Z"/>
</mask>
<path d="M592 256H656V320H592V256Z" fill="#F2F4F7"/>
<path d="M656 320V321H657V320H656ZM655 256V320H657V256H655ZM656 319H592V321H656V319Z" fill="#D0D5DD" mask="url(#path-215-inside-107_1_6650)"/>
<mask id="path-217-inside-108_1_6650" fill="white">
<path d="M656 256H720V320H656V256Z"/>
</mask>
<path d="M720 320V321H721V320H720ZM719 256V320H721V256H719ZM720 319H656V321H720V319Z" fill="#D0D5DD" mask="url(#path-217-inside-108_1_6650)"/>
<mask id="path-219-inside-109_1_6650" fill="white">
<path d="M720 256H784V320H720V256Z"/>
</mask>
<path d="M784 320V321H785V320H784ZM783 256V320H785V256H783ZM784 319H720V321H784V319Z" fill="#D0D5DD" mask="url(#path-219-inside-109_1_6650)"/>
<mask id="path-221-inside-110_1_6650" fill="white">
<path d="M784 256H848V320H784V256Z"/>
</mask>
<path d="M848 320V321H849V320H848ZM847 256V320H849V256H847ZM848 319H784V321H848V319Z" fill="#D0D5DD" mask="url(#path-221-inside-110_1_6650)"/>
<mask id="path-223-inside-111_1_6650" fill="white">
<path d="M848 256H912V320H848V256Z"/>
</mask>
<path d="M912 320V321H913V320H912ZM911 256V320H913V256H911ZM912 319H848V321H912V319Z" fill="#D0D5DD" mask="url(#path-223-inside-111_1_6650)"/>
<mask id="path-225-inside-112_1_6650" fill="white">
<path d="M912 256H976V320H912V256Z"/>
</mask>
<path d="M976 320V321H977V320H976ZM975 256V320H977V256H975ZM976 319H912V321H976V319Z" fill="#D0D5DD" mask="url(#path-225-inside-112_1_6650)"/>
<mask id="path-227-inside-113_1_6650" fill="white">
<path d="M976 256H1040V320H976V256Z"/>
</mask>
<path d="M1040 320V321H1041V320H1040ZM1039 256V320H1041V256H1039ZM1040 319H976V321H1040V319Z" fill="#D0D5DD" mask="url(#path-227-inside-113_1_6650)"/>
<mask id="path-229-inside-114_1_6650" fill="white">
<path d="M1040 256H1104V320H1040V256Z"/>
</mask>
<path d="M1104 320V321H1105V320H1104ZM1103 256V320H1105V256H1103ZM1104 319H1040V321H1104V319Z" fill="#D0D5DD" mask="url(#path-229-inside-114_1_6650)"/>
<mask id="path-231-inside-115_1_6650" fill="white">
<path d="M1104 256H1168V320H1104V256Z"/>
</mask>
<path d="M1168 320V321H1169V320H1168ZM1167 256V320H1169V256H1167ZM1168 319H1104V321H1168V319Z" fill="#D0D5DD" mask="url(#path-231-inside-115_1_6650)"/>
<mask id="path-233-inside-116_1_6650" fill="white">
<path d="M1168 256H1232V320H1168V256Z"/>
</mask>
<path d="M1232 320V321H1233V320H1232ZM1231 256V320H1233V256H1231ZM1232 319H1168V321H1232V319Z" fill="#D0D5DD" mask="url(#path-233-inside-116_1_6650)"/>
<mask id="path-235-inside-117_1_6650" fill="white">
<path d="M1232 256H1296V320H1232V256Z"/>
</mask>
<path d="M1296 320V321H1297V320H1296ZM1295 256V320H1297V256H1295ZM1296 319H1232V321H1296V319Z" fill="#D0D5DD" mask="url(#path-235-inside-117_1_6650)"/>
<mask id="path-237-inside-118_1_6650" fill="white">
<path d="M1296 256H1360V320H1296V256Z"/>
</mask>
<path d="M1296 256H1360V320H1296V256Z" fill="#F2F4F7"/>
<path d="M1360 320V321H1361V320H1360ZM1359 256V320H1361V256H1359ZM1360 319H1296V321H1360V319Z" fill="#D0D5DD" mask="url(#path-237-inside-118_1_6650)"/>
<mask id="path-239-inside-119_1_6650" fill="white">
<path d="M1360 256H1424V320H1360V256Z"/>
</mask>
<path d="M1424 320V321H1425V320H1424ZM1423 256V320H1425V256H1423ZM1424 319H1360V321H1424V319Z" fill="#D0D5DD" mask="url(#path-239-inside-119_1_6650)"/>
<mask id="path-241-inside-120_1_6650" fill="white">
<path d="M1424 256H1488V320H1424V256Z"/>
</mask>
<path d="M1488 320V321H1489V320H1488ZM1487 256V320H1489V256H1487ZM1488 319H1424V321H1488V319Z" fill="#D0D5DD" mask="url(#path-241-inside-120_1_6650)"/>
<mask id="path-243-inside-121_1_6650" fill="white">
<path d="M-48 320H16V384H-48V320Z"/>
</mask>
<path d="M16 384V385H17V384H16ZM15 320V384H17V320H15ZM16 383H-48V385H16V383Z" fill="#D0D5DD" mask="url(#path-243-inside-121_1_6650)"/>
<mask id="path-245-inside-122_1_6650" fill="white">
<path d="M16 320H80V384H16V320Z"/>
</mask>
<path d="M80 384V385H81V384H80ZM79 320V384H81V320H79ZM80 383H16V385H80V383Z" fill="#D0D5DD" mask="url(#path-245-inside-122_1_6650)"/>
<mask id="path-247-inside-123_1_6650" fill="white">
<path d="M80 320H144V384H80V320Z"/>
</mask>
<path d="M144 384V385H145V384H144ZM143 320V384H145V320H143ZM144 383H80V385H144V383Z" fill="#D0D5DD" mask="url(#path-247-inside-123_1_6650)"/>
<mask id="path-249-inside-124_1_6650" fill="white">
<path d="M144 320H208V384H144V320Z"/>
</mask>
<path d="M208 384V385H209V384H208ZM207 320V384H209V320H207ZM208 383H144V385H208V383Z" fill="#D0D5DD" mask="url(#path-249-inside-124_1_6650)"/>
<mask id="path-251-inside-125_1_6650" fill="white">
<path d="M208 320H272V384H208V320Z"/>
</mask>
<path d="M272 384V385H273V384H272ZM271 320V384H273V320H271ZM272 383H208V385H272V383Z" fill="#D0D5DD" mask="url(#path-251-inside-125_1_6650)"/>
<mask id="path-253-inside-126_1_6650" fill="white">
<path d="M272 320H336V384H272V320Z"/>
</mask>
<path d="M336 384V385H337V384H336ZM335 320V384H337V320H335ZM336 383H272V385H336V383Z" fill="#D0D5DD" mask="url(#path-253-inside-126_1_6650)"/>
<mask id="path-255-inside-127_1_6650" fill="white">
<path d="M336 320H400V384H336V320Z"/>
</mask>
<path d="M400 384V385H401V384H400ZM399 320V384H401V320H399ZM400 383H336V385H400V383Z" fill="#D0D5DD" mask="url(#path-255-inside-127_1_6650)"/>
<mask id="path-257-inside-128_1_6650" fill="white">
<path d="M400 320H464V384H400V320Z"/>
</mask>
<path d="M464 384V385H465V384H464ZM463 320V384H465V320H463ZM464 383H400V385H464V383Z" fill="#D0D5DD" mask="url(#path-257-inside-128_1_6650)"/>
<mask id="path-259-inside-129_1_6650" fill="white">
<path d="M464 320H528V384H464V320Z"/>
</mask>
<path d="M464 320H528V384H464V320Z" fill="#F2F4F7"/>
<path d="M528 384V385H529V384H528ZM527 320V384H529V320H527ZM528 383H464V385H528V383Z" fill="#D0D5DD" mask="url(#path-259-inside-129_1_6650)"/>
<mask id="path-261-inside-130_1_6650" fill="white">
<path d="M528 320H592V384H528V320Z"/>
</mask>
<path d="M592 384V385H593V384H592ZM591 320V384H593V320H591ZM592 383H528V385H592V383Z" fill="#D0D5DD" mask="url(#path-261-inside-130_1_6650)"/>
<mask id="path-263-inside-131_1_6650" fill="white">
<path d="M592 320H656V384H592V320Z"/>
</mask>
<path d="M656 384V385H657V384H656ZM655 320V384H657V320H655ZM656 383H592V385H656V383Z" fill="#D0D5DD" mask="url(#path-263-inside-131_1_6650)"/>
<mask id="path-265-inside-132_1_6650" fill="white">
<path d="M656 320H720V384H656V320Z"/>
</mask>
<path d="M720 384V385H721V384H720ZM719 320V384H721V320H719ZM720 383H656V385H720V383Z" fill="#D0D5DD" mask="url(#path-265-inside-132_1_6650)"/>
<mask id="path-267-inside-133_1_6650" fill="white">
<path d="M720 320H784V384H720V320Z"/>
</mask>
<path d="M784 384V385H785V384H784ZM783 320V384H785V320H783ZM784 383H720V385H784V383Z" fill="#D0D5DD" mask="url(#path-267-inside-133_1_6650)"/>
<mask id="path-269-inside-134_1_6650" fill="white">
<path d="M784 320H848V384H784V320Z"/>
</mask>
<path d="M848 384V385H849V384H848ZM847 320V384H849V320H847ZM848 383H784V385H848V383Z" fill="#D0D5DD" mask="url(#path-269-inside-134_1_6650)"/>
<mask id="path-271-inside-135_1_6650" fill="white">
<path d="M848 320H912V384H848V320Z"/>
</mask>
<path d="M848 320H912V384H848V320Z" fill="#F2F4F7"/>
<path d="M912 384V385H913V384H912ZM911 320V384H913V320H911ZM912 383H848V385H912V383Z" fill="#D0D5DD" mask="url(#path-271-inside-135_1_6650)"/>
<mask id="path-273-inside-136_1_6650" fill="white">
<path d="M912 320H976V384H912V320Z"/>
</mask>
<path d="M976 384V385H977V384H976ZM975 320V384H977V320H975ZM976 383H912V385H976V383Z" fill="#D0D5DD" mask="url(#path-273-inside-136_1_6650)"/>
<mask id="path-275-inside-137_1_6650" fill="white">
<path d="M976 320H1040V384H976V320Z"/>
</mask>
<path d="M1040 384V385H1041V384H1040ZM1039 320V384H1041V320H1039ZM1040 383H976V385H1040V383Z" fill="#D0D5DD" mask="url(#path-275-inside-137_1_6650)"/>
<mask id="path-277-inside-138_1_6650" fill="white">
<path d="M1040 320H1104V384H1040V320Z"/>
</mask>
<path d="M1040 320H1104V384H1040V320Z" fill="#F2F4F7"/>
<path d="M1104 384V385H1105V384H1104ZM1103 320V384H1105V320H1103ZM1104 383H1040V385H1104V383Z" fill="#D0D5DD" mask="url(#path-277-inside-138_1_6650)"/>
<mask id="path-279-inside-139_1_6650" fill="white">
<path d="M1104 320H1168V384H1104V320Z"/>
</mask>
<path d="M1168 384V385H1169V384H1168ZM1167 320V384H1169V320H1167ZM1168 383H1104V385H1168V383Z" fill="#D0D5DD" mask="url(#path-279-inside-139_1_6650)"/>
<mask id="path-281-inside-140_1_6650" fill="white">
<path d="M1168 320H1232V384H1168V320Z"/>
</mask>
<path d="M1232 384V385H1233V384H1232ZM1231 320V384H1233V320H1231ZM1232 383H1168V385H1232V383Z" fill="#D0D5DD" mask="url(#path-281-inside-140_1_6650)"/>
<mask id="path-283-inside-141_1_6650" fill="white">
<path d="M1232 320H1296V384H1232V320Z"/>
</mask>
<path d="M1296 384V385H1297V384H1296ZM1295 320V384H1297V320H1295ZM1296 383H1232V385H1296V383Z" fill="#D0D5DD" mask="url(#path-283-inside-141_1_6650)"/>
<mask id="path-285-inside-142_1_6650" fill="white">
<path d="M1296 320H1360V384H1296V320Z"/>
</mask>
<path d="M1360 384V385H1361V384H1360ZM1359 320V384H1361V320H1359ZM1360 383H1296V385H1360V383Z" fill="#D0D5DD" mask="url(#path-285-inside-142_1_6650)"/>
<mask id="path-287-inside-143_1_6650" fill="white">
<path d="M1360 320H1424V384H1360V320Z"/>
</mask>
<path d="M1424 384V385H1425V384H1424ZM1423 320V384H1425V320H1423ZM1424 383H1360V385H1424V383Z" fill="#D0D5DD" mask="url(#path-287-inside-143_1_6650)"/>
<mask id="path-289-inside-144_1_6650" fill="white">
<path d="M1424 320H1488V384H1424V320Z"/>
</mask>
<path d="M1488 384V385H1489V384H1488ZM1487 320V384H1489V320H1487ZM1488 383H1424V385H1488V383Z" fill="#D0D5DD" mask="url(#path-289-inside-144_1_6650)"/>
<mask id="path-291-inside-145_1_6650" fill="white">
<path d="M-48 384H16V448H-48V384Z"/>
</mask>
<path d="M16 448V449H17V448H16ZM15 384V448H17V384H15ZM16 447H-48V449H16V447Z" fill="#D0D5DD" mask="url(#path-291-inside-145_1_6650)"/>
<mask id="path-293-inside-146_1_6650" fill="white">
<path d="M16 384H80V448H16V384Z"/>
</mask>
<path d="M80 448V449H81V448H80ZM79 384V448H81V384H79ZM80 447H16V449H80V447Z" fill="#D0D5DD" mask="url(#path-293-inside-146_1_6650)"/>
<mask id="path-295-inside-147_1_6650" fill="white">
<path d="M80 384H144V448H80V384Z"/>
</mask>
<path d="M144 448V449H145V448H144ZM143 384V448H145V384H143ZM144 447H80V449H144V447Z" fill="#D0D5DD" mask="url(#path-295-inside-147_1_6650)"/>
<mask id="path-297-inside-148_1_6650" fill="white">
<path d="M144 384H208V448H144V384Z"/>
</mask>
<path d="M208 448V449H209V448H208ZM207 384V448H209V384H207ZM208 447H144V449H208V447Z" fill="#D0D5DD" mask="url(#path-297-inside-148_1_6650)"/>
<mask id="path-299-inside-149_1_6650" fill="white">
<path d="M208 384H272V448H208V384Z"/>
</mask>
<path d="M208 384H272V448H208V384Z" fill="#F2F4F7"/>
<path d="M272 448V449H273V448H272ZM271 384V448H273V384H271ZM272 447H208V449H272V447Z" fill="#D0D5DD" mask="url(#path-299-inside-149_1_6650)"/>
<mask id="path-301-inside-150_1_6650" fill="white">
<path d="M272 384H336V448H272V384Z"/>
</mask>
<path d="M336 448V449H337V448H336ZM335 384V448H337V384H335ZM336 447H272V449H336V447Z" fill="#D0D5DD" mask="url(#path-301-inside-150_1_6650)"/>
<mask id="path-303-inside-151_1_6650" fill="white">
<path d="M336 384H400V448H336V384Z"/>
</mask>
<path d="M400 448V449H401V448H400ZM399 384V448H401V384H399ZM400 447H336V449H400V447Z" fill="#D0D5DD" mask="url(#path-303-inside-151_1_6650)"/>
<mask id="path-305-inside-152_1_6650" fill="white">
<path d="M400 384H464V448H400V384Z"/>
</mask>
<path d="M464 448V449H465V448H464ZM463 384V448H465V384H463ZM464 447H400V449H464V447Z" fill="#D0D5DD" mask="url(#path-305-inside-152_1_6650)"/>
<mask id="path-307-inside-153_1_6650" fill="white">
<path d="M464 384H528V448H464V384Z"/>
</mask>
<path d="M528 448V449H529V448H528ZM527 384V448H529V384H527ZM528 447H464V449H528V447Z" fill="#D0D5DD" mask="url(#path-307-inside-153_1_6650)"/>
<mask id="path-309-inside-154_1_6650" fill="white">
<path d="M528 384H592V448H528V384Z"/>
</mask>
<path d="M592 448V449H593V448H592ZM591 384V448H593V384H591ZM592 447H528V449H592V447Z" fill="#D0D5DD" mask="url(#path-309-inside-154_1_6650)"/>
<mask id="path-311-inside-155_1_6650" fill="white">
<path d="M592 384H656V448H592V384Z"/>
</mask>
<path d="M656 448V449H657V448H656ZM655 384V448H657V384H655ZM656 447H592V449H656V447Z" fill="#D0D5DD" mask="url(#path-311-inside-155_1_6650)"/>
<mask id="path-313-inside-156_1_6650" fill="white">
<path d="M656 384H720V448H656V384Z"/>
</mask>
<path d="M656 384H720V448H656V384Z" fill="#F2F4F7"/>
<path d="M720 448V449H721V448H720ZM719 384V448H721V384H719ZM720 447H656V449H720V447Z" fill="#D0D5DD" mask="url(#path-313-inside-156_1_6650)"/>
<mask id="path-315-inside-157_1_6650" fill="white">
<path d="M720 384H784V448H720V384Z"/>
</mask>
<path d="M784 448V449H785V448H784ZM783 384V448H785V384H783ZM784 447H720V449H784V447Z" fill="#D0D5DD" mask="url(#path-315-inside-157_1_6650)"/>
<mask id="path-317-inside-158_1_6650" fill="white">
<path d="M784 384H848V448H784V384Z"/>
</mask>
<path d="M848 448V449H849V448H848ZM847 384V448H849V384H847ZM848 447H784V449H848V447Z" fill="#D0D5DD" mask="url(#path-317-inside-158_1_6650)"/>
<mask id="path-319-inside-159_1_6650" fill="white">
<path d="M848 384H912V448H848V384Z"/>
</mask>
<path d="M912 448V449H913V448H912ZM911 384V448H913V384H911ZM912 447H848V449H912V447Z" fill="#D0D5DD" mask="url(#path-319-inside-159_1_6650)"/>
<mask id="path-321-inside-160_1_6650" fill="white">
<path d="M912 384H976V448H912V384Z"/>
</mask>
<path d="M976 448V449H977V448H976ZM975 384V448H977V384H975ZM976 447H912V449H976V447Z" fill="#D0D5DD" mask="url(#path-321-inside-160_1_6650)"/>
<mask id="path-323-inside-161_1_6650" fill="white">
<path d="M976 384H1040V448H976V384Z"/>
</mask>
<path d="M1040 448V449H1041V448H1040ZM1039 384V448H1041V384H1039ZM1040 447H976V449H1040V447Z" fill="#D0D5DD" mask="url(#path-323-inside-161_1_6650)"/>
<mask id="path-325-inside-162_1_6650" fill="white">
<path d="M1040 384H1104V448H1040V384Z"/>
</mask>
<path d="M1104 448V449H1105V448H1104ZM1103 384V448H1105V384H1103ZM1104 447H1040V449H1104V447Z" fill="#D0D5DD" mask="url(#path-325-inside-162_1_6650)"/>
<mask id="path-327-inside-163_1_6650" fill="white">
<path d="M1104 384H1168V448H1104V384Z"/>
</mask>
<path d="M1168 448V449H1169V448H1168ZM1167 384V448H1169V384H1167ZM1168 447H1104V449H1168V447Z" fill="#D0D5DD" mask="url(#path-327-inside-163_1_6650)"/>
<mask id="path-329-inside-164_1_6650" fill="white">
<path d="M1168 384H1232V448H1168V384Z"/>
</mask>
<path d="M1232 448V449H1233V448H1232ZM1231 384V448H1233V384H1231ZM1232 447H1168V449H1232V447Z" fill="#D0D5DD" mask="url(#path-329-inside-164_1_6650)"/>
<mask id="path-331-inside-165_1_6650" fill="white">
<path d="M1232 384H1296V448H1232V384Z"/>
</mask>
<path d="M1232 384H1296V448H1232V384Z" fill="#F2F4F7"/>
<path d="M1296 448V449H1297V448H1296ZM1295 384V448H1297V384H1295ZM1296 447H1232V449H1296V447Z" fill="#D0D5DD" mask="url(#path-331-inside-165_1_6650)"/>
<mask id="path-333-inside-166_1_6650" fill="white">
<path d="M1296 384H1360V448H1296V384Z"/>
</mask>
<path d="M1360 448V449H1361V448H1360ZM1359 384V448H1361V384H1359ZM1360 447H1296V449H1360V447Z" fill="#D0D5DD" mask="url(#path-333-inside-166_1_6650)"/>
<mask id="path-335-inside-167_1_6650" fill="white">
<path d="M1360 384H1424V448H1360V384Z"/>
</mask>
<path d="M1424 448V449H1425V448H1424ZM1423 384V448H1425V384H1423ZM1424 447H1360V449H1424V447Z" fill="#D0D5DD" mask="url(#path-335-inside-167_1_6650)"/>
<mask id="path-337-inside-168_1_6650" fill="white">
<path d="M1424 384H1488V448H1424V384Z"/>
</mask>
<path d="M1488 448V449H1489V448H1488ZM1487 384V448H1489V384H1487ZM1488 447H1424V449H1488V447Z" fill="#D0D5DD" mask="url(#path-337-inside-168_1_6650)"/>
<mask id="path-339-inside-169_1_6650" fill="white">
<path d="M-48 448H16V512H-48V448Z"/>
</mask>
<path d="M16 512V513H17V512H16ZM15 448V512H17V448H15ZM16 511H-48V513H16V511Z" fill="#D0D5DD" mask="url(#path-339-inside-169_1_6650)"/>
<mask id="path-341-inside-170_1_6650" fill="white">
<path d="M16 448H80V512H16V448Z"/>
</mask>
<path d="M80 512V513H81V512H80ZM79 448V512H81V448H79ZM80 511H16V513H80V511Z" fill="#D0D5DD" mask="url(#path-341-inside-170_1_6650)"/>
<mask id="path-343-inside-171_1_6650" fill="white">
<path d="M80 448H144V512H80V448Z"/>
</mask>
<path d="M144 512V513H145V512H144ZM143 448V512H145V448H143ZM144 511H80V513H144V511Z" fill="#D0D5DD" mask="url(#path-343-inside-171_1_6650)"/>
<mask id="path-345-inside-172_1_6650" fill="white">
<path d="M144 448H208V512H144V448Z"/>
</mask>
<path d="M208 512V513H209V512H208ZM207 448V512H209V448H207ZM208 511H144V513H208V511Z" fill="#D0D5DD" mask="url(#path-345-inside-172_1_6650)"/>
<mask id="path-347-inside-173_1_6650" fill="white">
<path d="M208 448H272V512H208V448Z"/>
</mask>
<path d="M272 512V513H273V512H272ZM271 448V512H273V448H271ZM272 511H208V513H272V511Z" fill="#D0D5DD" mask="url(#path-347-inside-173_1_6650)"/>
<mask id="path-349-inside-174_1_6650" fill="white">
<path d="M272 448H336V512H272V448Z"/>
</mask>
<path d="M336 512V513H337V512H336ZM335 448V512H337V448H335ZM336 511H272V513H336V511Z" fill="#D0D5DD" mask="url(#path-349-inside-174_1_6650)"/>
<mask id="path-351-inside-175_1_6650" fill="white">
<path d="M336 448H400V512H336V448Z"/>
</mask>
<path d="M400 512V513H401V512H400ZM399 448V512H401V448H399ZM400 511H336V513H400V511Z" fill="#D0D5DD" mask="url(#path-351-inside-175_1_6650)"/>
<mask id="path-353-inside-176_1_6650" fill="white">
<path d="M400 448H464V512H400V448Z"/>
</mask>
<path d="M464 512V513H465V512H464ZM463 448V512H465V448H463ZM464 511H400V513H464V511Z" fill="#D0D5DD" mask="url(#path-353-inside-176_1_6650)"/>
<mask id="path-355-inside-177_1_6650" fill="white">
<path d="M464 448H528V512H464V448Z"/>
</mask>
<path d="M528 512V513H529V512H528ZM527 448V512H529V448H527ZM528 511H464V513H528V511Z" fill="#D0D5DD" mask="url(#path-355-inside-177_1_6650)"/>
<mask id="path-357-inside-178_1_6650" fill="white">
<path d="M528 448H592V512H528V448Z"/>
</mask>
<path d="M528 448H592V512H528V448Z" fill="#F2F4F7"/>
<path d="M592 512V513H593V512H592ZM591 448V512H593V448H591ZM592 511H528V513H592V511Z" fill="#D0D5DD" mask="url(#path-357-inside-178_1_6650)"/>
<mask id="path-359-inside-179_1_6650" fill="white">
<path d="M592 448H656V512H592V448Z"/>
</mask>
<path d="M656 512V513H657V512H656ZM655 448V512H657V448H655ZM656 511H592V513H656V511Z" fill="#D0D5DD" mask="url(#path-359-inside-179_1_6650)"/>
<mask id="path-361-inside-180_1_6650" fill="white">
<path d="M656 448H720V512H656V448Z"/>
</mask>
<path d="M720 512V513H721V512H720ZM719 448V512H721V448H719ZM720 511H656V513H720V511Z" fill="#D0D5DD" mask="url(#path-361-inside-180_1_6650)"/>
<mask id="path-363-inside-181_1_6650" fill="white">
<path d="M720 448H784V512H720V448Z"/>
</mask>
<path d="M784 512V513H785V512H784ZM783 448V512H785V448H783ZM784 511H720V513H784V511Z" fill="#D0D5DD" mask="url(#path-363-inside-181_1_6650)"/>
<mask id="path-365-inside-182_1_6650" fill="white">
<path d="M784 448H848V512H784V448Z"/>
</mask>
<path d="M848 512V513H849V512H848ZM847 448V512H849V448H847ZM848 511H784V513H848V511Z" fill="#D0D5DD" mask="url(#path-365-inside-182_1_6650)"/>
<mask id="path-367-inside-183_1_6650" fill="white">
<path d="M848 448H912V512H848V448Z"/>
</mask>
<path d="M912 512V513H913V512H912ZM911 448V512H913V448H911ZM912 511H848V513H912V511Z" fill="#D0D5DD" mask="url(#path-367-inside-183_1_6650)"/>
<mask id="path-369-inside-184_1_6650" fill="white">
<path d="M912 448H976V512H912V448Z"/>
</mask>
<path d="M912 448H976V512H912V448Z" fill="#F2F4F7"/>
<path d="M976 512V513H977V512H976ZM975 448V512H977V448H975ZM976 511H912V513H976V511Z" fill="#D0D5DD" mask="url(#path-369-inside-184_1_6650)"/>
<mask id="path-371-inside-185_1_6650" fill="white">
<path d="M976 448H1040V512H976V448Z"/>
</mask>
<path d="M1040 512V513H1041V512H1040ZM1039 448V512H1041V448H1039ZM1040 511H976V513H1040V511Z" fill="#D0D5DD" mask="url(#path-371-inside-185_1_6650)"/>
<mask id="path-373-inside-186_1_6650" fill="white">
<path d="M1040 448H1104V512H1040V448Z"/>
</mask>
<path d="M1104 512V513H1105V512H1104ZM1103 448V512H1105V448H1103ZM1104 511H1040V513H1104V511Z" fill="#D0D5DD" mask="url(#path-373-inside-186_1_6650)"/>
<mask id="path-375-inside-187_1_6650" fill="white">
<path d="M1104 448H1168V512H1104V448Z"/>
</mask>
<path d="M1168 512V513H1169V512H1168ZM1167 448V512H1169V448H1167ZM1168 511H1104V513H1168V511Z" fill="#D0D5DD" mask="url(#path-375-inside-187_1_6650)"/>
<mask id="path-377-inside-188_1_6650" fill="white">
<path d="M1168 448H1232V512H1168V448Z"/>
</mask>
<path d="M1232 512V513H1233V512H1232ZM1231 448V512H1233V448H1231ZM1232 511H1168V513H1232V511Z" fill="#D0D5DD" mask="url(#path-377-inside-188_1_6650)"/>
<mask id="path-379-inside-189_1_6650" fill="white">
<path d="M1232 448H1296V512H1232V448Z"/>
</mask>
<path d="M1296 512V513H1297V512H1296ZM1295 448V512H1297V448H1295ZM1296 511H1232V513H1296V511Z" fill="#D0D5DD" mask="url(#path-379-inside-189_1_6650)"/>
<mask id="path-381-inside-190_1_6650" fill="white">
<path d="M1296 448H1360V512H1296V448Z"/>
</mask>
<path d="M1360 512V513H1361V512H1360ZM1359 448V512H1361V448H1359ZM1360 511H1296V513H1360V511Z" fill="#D0D5DD" mask="url(#path-381-inside-190_1_6650)"/>
<mask id="path-383-inside-191_1_6650" fill="white">
<path d="M1360 448H1424V512H1360V448Z"/>
</mask>
<path d="M1424 512V513H1425V512H1424ZM1423 448V512H1425V448H1423ZM1424 511H1360V513H1424V511Z" fill="#D0D5DD" mask="url(#path-383-inside-191_1_6650)"/>
<mask id="path-385-inside-192_1_6650" fill="white">
<path d="M1424 448H1488V512H1424V448Z"/>
</mask>
<path d="M1424 448H1488V512H1424V448Z" fill="#F2F4F7"/>
<path d="M1488 512V513H1489V512H1488ZM1487 448V512H1489V448H1487ZM1488 511H1424V513H1488V511Z" fill="#D0D5DD" mask="url(#path-385-inside-192_1_6650)"/>
<mask id="path-387-inside-193_1_6650" fill="white">
<path d="M-48 512H16V576H-48V512Z"/>
</mask>
<path d="M16 576V577H17V576H16ZM15 512V576H17V512H15ZM16 575H-48V577H16V575Z" fill="#D0D5DD" mask="url(#path-387-inside-193_1_6650)"/>
<mask id="path-389-inside-194_1_6650" fill="white">
<path d="M16 512H80V576H16V512Z"/>
</mask>
<path d="M80 576V577H81V576H80ZM79 512V576H81V512H79ZM80 575H16V577H80V575Z" fill="#D0D5DD" mask="url(#path-389-inside-194_1_6650)"/>
<mask id="path-391-inside-195_1_6650" fill="white">
<path d="M80 512H144V576H80V512Z"/>
</mask>
<path d="M80 512H144V576H80V512Z" fill="#F2F4F7"/>
<path d="M144 576V577H145V576H144ZM143 512V576H145V512H143ZM144 575H80V577H144V575Z" fill="#D0D5DD" mask="url(#path-391-inside-195_1_6650)"/>
<mask id="path-393-inside-196_1_6650" fill="white">
<path d="M144 512H208V576H144V512Z"/>
</mask>
<path d="M208 576V577H209V576H208ZM207 512V576H209V512H207ZM208 575H144V577H208V575Z" fill="#D0D5DD" mask="url(#path-393-inside-196_1_6650)"/>
<mask id="path-395-inside-197_1_6650" fill="white">
<path d="M208 512H272V576H208V512Z"/>
</mask>
<path d="M272 576V577H273V576H272ZM271 512V576H273V512H271ZM272 575H208V577H272V575Z" fill="#D0D5DD" mask="url(#path-395-inside-197_1_6650)"/>
<mask id="path-397-inside-198_1_6650" fill="white">
<path d="M272 512H336V576H272V512Z"/>
</mask>
<path d="M336 576V577H337V576H336ZM335 512V576H337V512H335ZM336 575H272V577H336V575Z" fill="#D0D5DD" mask="url(#path-397-inside-198_1_6650)"/>
<mask id="path-399-inside-199_1_6650" fill="white">
<path d="M336 512H400V576H336V512Z"/>
</mask>
<path d="M400 576V577H401V576H400ZM399 512V576H401V512H399ZM400 575H336V577H400V575Z" fill="#D0D5DD" mask="url(#path-399-inside-199_1_6650)"/>
<mask id="path-401-inside-200_1_6650" fill="white">
<path d="M400 512H464V576H400V512Z"/>
</mask>
<path d="M400 512H464V576H400V512Z" fill="#F2F4F7"/>
<path d="M464 576V577H465V576H464ZM463 512V576H465V512H463ZM464 575H400V577H464V575Z" fill="#D0D5DD" mask="url(#path-401-inside-200_1_6650)"/>
<mask id="path-403-inside-201_1_6650" fill="white">
<path d="M464 512H528V576H464V512Z"/>
</mask>
<path d="M528 576V577H529V576H528ZM527 512V576H529V512H527ZM528 575H464V577H528V575Z" fill="#D0D5DD" mask="url(#path-403-inside-201_1_6650)"/>
<mask id="path-405-inside-202_1_6650" fill="white">
<path d="M528 512H592V576H528V512Z"/>
</mask>
<path d="M592 576V577H593V576H592ZM591 512V576H593V512H591ZM592 575H528V577H592V575Z" fill="#D0D5DD" mask="url(#path-405-inside-202_1_6650)"/>
<mask id="path-407-inside-203_1_6650" fill="white">
<path d="M592 512H656V576H592V512Z"/>
</mask>
<path d="M656 576V577H657V576H656ZM655 512V576H657V512H655ZM656 575H592V577H656V575Z" fill="#D0D5DD" mask="url(#path-407-inside-203_1_6650)"/>
<mask id="path-409-inside-204_1_6650" fill="white">
<path d="M656 512H720V576H656V512Z"/>
</mask>
<path d="M720 576V577H721V576H720ZM719 512V576H721V512H719ZM720 575H656V577H720V575Z" fill="#D0D5DD" mask="url(#path-409-inside-204_1_6650)"/>
<mask id="path-411-inside-205_1_6650" fill="white">
<path d="M720 512H784V576H720V512Z"/>
</mask>
<path d="M784 576V577H785V576H784ZM783 512V576H785V512H783ZM784 575H720V577H784V575Z" fill="#D0D5DD" mask="url(#path-411-inside-205_1_6650)"/>
<mask id="path-413-inside-206_1_6650" fill="white">
<path d="M784 512H848V576H784V512Z"/>
</mask>
<path d="M848 576V577H849V576H848ZM847 512V576H849V512H847ZM848 575H784V577H848V575Z" fill="#D0D5DD" mask="url(#path-413-inside-206_1_6650)"/>
<mask id="path-415-inside-207_1_6650" fill="white">
<path d="M848 512H912V576H848V512Z"/>
</mask>
<path d="M912 576V577H913V576H912ZM911 512V576H913V512H911ZM912 575H848V577H912V575Z" fill="#D0D5DD" mask="url(#path-415-inside-207_1_6650)"/>
<mask id="path-417-inside-208_1_6650" fill="white">
<path d="M912 512H976V576H912V512Z"/>
</mask>
<path d="M976 576V577H977V576H976ZM975 512V576H977V512H975ZM976 575H912V577H976V575Z" fill="#D0D5DD" mask="url(#path-417-inside-208_1_6650)"/>
<mask id="path-419-inside-209_1_6650" fill="white">
<path d="M976 512H1040V576H976V512Z"/>
</mask>
<path d="M1040 576V577H1041V576H1040ZM1039 512V576H1041V512H1039ZM1040 575H976V577H1040V575Z" fill="#D0D5DD" mask="url(#path-419-inside-209_1_6650)"/>
<mask id="path-421-inside-210_1_6650" fill="white">
<path d="M1040 512H1104V576H1040V512Z"/>
</mask>
<path d="M1104 576V577H1105V576H1104ZM1103 512V576H1105V512H1103ZM1104 575H1040V577H1104V575Z" fill="#D0D5DD" mask="url(#path-421-inside-210_1_6650)"/>
<mask id="path-423-inside-211_1_6650" fill="white">
<path d="M1104 512H1168V576H1104V512Z"/>
</mask>
<path d="M1104 512H1168V576H1104V512Z" fill="#F2F4F7"/>
<path d="M1168 576V577H1169V576H1168ZM1167 512V576H1169V512H1167ZM1168 575H1104V577H1168V575Z" fill="#D0D5DD" mask="url(#path-423-inside-211_1_6650)"/>
<mask id="path-425-inside-212_1_6650" fill="white">
<path d="M1168 512H1232V576H1168V512Z"/>
</mask>
<path d="M1232 576V577H1233V576H1232ZM1231 512V576H1233V512H1231ZM1232 575H1168V577H1232V575Z" fill="#D0D5DD" mask="url(#path-425-inside-212_1_6650)"/>
<mask id="path-427-inside-213_1_6650" fill="white">
<path d="M1232 512H1296V576H1232V512Z"/>
</mask>
<path d="M1296 576V577H1297V576H1296ZM1295 512V576H1297V512H1295ZM1296 575H1232V577H1296V575Z" fill="#D0D5DD" mask="url(#path-427-inside-213_1_6650)"/>
<mask id="path-429-inside-214_1_6650" fill="white">
<path d="M1296 512H1360V576H1296V512Z"/>
</mask>
<path d="M1360 576V577H1361V576H1360ZM1359 512V576H1361V512H1359ZM1360 575H1296V577H1360V575Z" fill="#D0D5DD" mask="url(#path-429-inside-214_1_6650)"/>
<mask id="path-431-inside-215_1_6650" fill="white">
<path d="M1360 512H1424V576H1360V512Z"/>
</mask>
<path d="M1424 576V577H1425V576H1424ZM1423 512V576H1425V512H1423ZM1424 575H1360V577H1424V575Z" fill="#D0D5DD" mask="url(#path-431-inside-215_1_6650)"/>
<mask id="path-433-inside-216_1_6650" fill="white">
<path d="M1424 512H1488V576H1424V512Z"/>
</mask>
<path d="M1488 576V577H1489V576H1488ZM1487 512V576H1489V512H1487ZM1488 575H1424V577H1488V575Z" fill="#D0D5DD" mask="url(#path-433-inside-216_1_6650)"/>
<mask id="path-435-inside-217_1_6650" fill="white">
<path d="M-48 576H16V640H-48V576Z"/>
</mask>
<path d="M16 640V641H17V640H16ZM15 576V640H17V576H15ZM16 639H-48V641H16V639Z" fill="#D0D5DD" mask="url(#path-435-inside-217_1_6650)"/>
<mask id="path-437-inside-218_1_6650" fill="white">
<path d="M16 576H80V640H16V576Z"/>
</mask>
<path d="M80 640V641H81V640H80ZM79 576V640H81V576H79ZM80 639H16V641H80V639Z" fill="#D0D5DD" mask="url(#path-437-inside-218_1_6650)"/>
<mask id="path-439-inside-219_1_6650" fill="white">
<path d="M80 576H144V640H80V576Z"/>
</mask>
<path d="M144 640V641H145V640H144ZM143 576V640H145V576H143ZM144 639H80V641H144V639Z" fill="#D0D5DD" mask="url(#path-439-inside-219_1_6650)"/>
<mask id="path-441-inside-220_1_6650" fill="white">
<path d="M144 576H208V640H144V576Z"/>
</mask>
<path d="M208 640V641H209V640H208ZM207 576V640H209V576H207ZM208 639H144V641H208V639Z" fill="#D0D5DD" mask="url(#path-441-inside-220_1_6650)"/>
<mask id="path-443-inside-221_1_6650" fill="white">
<path d="M208 576H272V640H208V576Z"/>
</mask>
<path d="M208 576H272V640H208V576Z" fill="#F2F4F7"/>
<path d="M272 640V641H273V640H272ZM271 576V640H273V576H271ZM272 639H208V641H272V639Z" fill="#D0D5DD" mask="url(#path-443-inside-221_1_6650)"/>
<mask id="path-445-inside-222_1_6650" fill="white">
<path d="M272 576H336V640H272V576Z"/>
</mask>
<path d="M336 640V641H337V640H336ZM335 576V640H337V576H335ZM336 639H272V641H336V639Z" fill="#D0D5DD" mask="url(#path-445-inside-222_1_6650)"/>
<mask id="path-447-inside-223_1_6650" fill="white">
<path d="M336 576H400V640H336V576Z"/>
</mask>
<path d="M400 640V641H401V640H400ZM399 576V640H401V576H399ZM400 639H336V641H400V639Z" fill="#D0D5DD" mask="url(#path-447-inside-223_1_6650)"/>
<mask id="path-449-inside-224_1_6650" fill="white">
<path d="M400 576H464V640H400V576Z"/>
</mask>
<path d="M464 640V641H465V640H464ZM463 576V640H465V576H463ZM464 639H400V641H464V639Z" fill="#D0D5DD" mask="url(#path-449-inside-224_1_6650)"/>
<mask id="path-451-inside-225_1_6650" fill="white">
<path d="M464 576H528V640H464V576Z"/>
</mask>
<path d="M528 640V641H529V640H528ZM527 576V640H529V576H527ZM528 639H464V641H528V639Z" fill="#D0D5DD" mask="url(#path-451-inside-225_1_6650)"/>
<mask id="path-453-inside-226_1_6650" fill="white">
<path d="M528 576H592V640H528V576Z"/>
</mask>
<path d="M592 640V641H593V640H592ZM591 576V640H593V576H591ZM592 639H528V641H592V639Z" fill="#D0D5DD" mask="url(#path-453-inside-226_1_6650)"/>
<mask id="path-455-inside-227_1_6650" fill="white">
<path d="M592 576H656V640H592V576Z"/>
</mask>
<path d="M656 640V641H657V640H656ZM655 576V640H657V576H655ZM656 639H592V641H656V639Z" fill="#D0D5DD" mask="url(#path-455-inside-227_1_6650)"/>
<mask id="path-457-inside-228_1_6650" fill="white">
<path d="M656 576H720V640H656V576Z"/>
</mask>
<path d="M656 576H720V640H656V576Z" fill="#F2F4F7"/>
<path d="M720 640V641H721V640H720ZM719 576V640H721V576H719ZM720 639H656V641H720V639Z" fill="#D0D5DD" mask="url(#path-457-inside-228_1_6650)"/>
<mask id="path-459-inside-229_1_6650" fill="white">
<path d="M720 576H784V640H720V576Z"/>
</mask>
<path d="M784 640V641H785V640H784ZM783 576V640H785V576H783ZM784 639H720V641H784V639Z" fill="#D0D5DD" mask="url(#path-459-inside-229_1_6650)"/>
<mask id="path-461-inside-230_1_6650" fill="white">
<path d="M784 576H848V640H784V576Z"/>
</mask>
<path d="M848 640V641H849V640H848ZM847 576V640H849V576H847ZM848 639H784V641H848V639Z" fill="#D0D5DD" mask="url(#path-461-inside-230_1_6650)"/>
<mask id="path-463-inside-231_1_6650" fill="white">
<path d="M848 576H912V640H848V576Z"/>
</mask>
<path d="M912 640V641H913V640H912ZM911 576V640H913V576H911ZM912 639H848V641H912V639Z" fill="#D0D5DD" mask="url(#path-463-inside-231_1_6650)"/>
<mask id="path-465-inside-232_1_6650" fill="white">
<path d="M912 576H976V640H912V576Z"/>
</mask>
<path d="M976 640V641H977V640H976ZM975 576V640H977V576H975ZM976 639H912V641H976V639Z" fill="#D0D5DD" mask="url(#path-465-inside-232_1_6650)"/>
<mask id="path-467-inside-233_1_6650" fill="white">
<path d="M976 576H1040V640H976V576Z"/>
</mask>
<path d="M1040 640V641H1041V640H1040ZM1039 576V640H1041V576H1039ZM1040 639H976V641H1040V639Z" fill="#D0D5DD" mask="url(#path-467-inside-233_1_6650)"/>
<mask id="path-469-inside-234_1_6650" fill="white">
<path d="M1040 576H1104V640H1040V576Z"/>
</mask>
<path d="M1104 640V641H1105V640H1104ZM1103 576V640H1105V576H1103ZM1104 639H1040V641H1104V639Z" fill="#D0D5DD" mask="url(#path-469-inside-234_1_6650)"/>
<mask id="path-471-inside-235_1_6650" fill="white">
<path d="M1104 576H1168V640H1104V576Z"/>
</mask>
<path d="M1168 640V641H1169V640H1168ZM1167 576V640H1169V576H1167ZM1168 639H1104V641H1168V639Z" fill="#D0D5DD" mask="url(#path-471-inside-235_1_6650)"/>
<mask id="path-473-inside-236_1_6650" fill="white">
<path d="M1168 576H1232V640H1168V576Z"/>
</mask>
<path d="M1232 640V641H1233V640H1232ZM1231 576V640H1233V576H1231ZM1232 639H1168V641H1232V639Z" fill="#D0D5DD" mask="url(#path-473-inside-236_1_6650)"/>
<mask id="path-475-inside-237_1_6650" fill="white">
<path d="M1232 576H1296V640H1232V576Z"/>
</mask>
<path d="M1296 640V641H1297V640H1296ZM1295 576V640H1297V576H1295ZM1296 639H1232V641H1296V639Z" fill="#D0D5DD" mask="url(#path-475-inside-237_1_6650)"/>
<mask id="path-477-inside-238_1_6650" fill="white">
<path d="M1296 576H1360V640H1296V576Z"/>
</mask>
<path d="M1360 640V641H1361V640H1360ZM1359 576V640H1361V576H1359ZM1360 639H1296V641H1360V639Z" fill="#D0D5DD" mask="url(#path-477-inside-238_1_6650)"/>
<mask id="path-479-inside-239_1_6650" fill="white">
<path d="M1360 576H1424V640H1360V576Z"/>
</mask>
<path d="M1360 576H1424V640H1360V576Z" fill="#F2F4F7"/>
<path d="M1424 640V641H1425V640H1424ZM1423 576V640H1425V576H1423ZM1424 639H1360V641H1424V639Z" fill="#D0D5DD" mask="url(#path-479-inside-239_1_6650)"/>
<mask id="path-481-inside-240_1_6650" fill="white">
<path d="M1424 576H1488V640H1424V576Z"/>
</mask>
<path d="M1488 640V641H1489V640H1488ZM1487 576V640H1489V576H1487ZM1488 639H1424V641H1488V639Z" fill="#D0D5DD" mask="url(#path-481-inside-240_1_6650)"/>
<mask id="path-483-inside-241_1_6650" fill="white">
<path d="M-48 640H16V704H-48V640Z"/>
</mask>
<path d="M-48 640H16V704H-48V640Z" fill="#F2F4F7"/>
<path d="M16 704V705H17V704H16ZM15 640V704H17V640H15ZM16 703H-48V705H16V703Z" fill="#D0D5DD" mask="url(#path-483-inside-241_1_6650)"/>
<mask id="path-485-inside-242_1_6650" fill="white">
<path d="M16 640H80V704H16V640Z"/>
</mask>
<path d="M80 704V705H81V704H80ZM79 640V704H81V640H79ZM80 703H16V705H80V703Z" fill="#D0D5DD" mask="url(#path-485-inside-242_1_6650)"/>
<mask id="path-487-inside-243_1_6650" fill="white">
<path d="M80 640H144V704H80V640Z"/>
</mask>
<path d="M144 704V705H145V704H144ZM143 640V704H145V640H143ZM144 703H80V705H144V703Z" fill="#D0D5DD" mask="url(#path-487-inside-243_1_6650)"/>
<mask id="path-489-inside-244_1_6650" fill="white">
<path d="M144 640H208V704H144V640Z"/>
</mask>
<path d="M208 704V705H209V704H208ZM207 640V704H209V640H207ZM208 703H144V705H208V703Z" fill="#D0D5DD" mask="url(#path-489-inside-244_1_6650)"/>
<mask id="path-491-inside-245_1_6650" fill="white">
<path d="M208 640H272V704H208V640Z"/>
</mask>
<path d="M272 704V705H273V704H272ZM271 640V704H273V640H271ZM272 703H208V705H272V703Z" fill="#D0D5DD" mask="url(#path-491-inside-245_1_6650)"/>
<mask id="path-493-inside-246_1_6650" fill="white">
<path d="M272 640H336V704H272V640Z"/>
</mask>
<path d="M336 704V705H337V704H336ZM335 640V704H337V640H335ZM336 703H272V705H336V703Z" fill="#D0D5DD" mask="url(#path-493-inside-246_1_6650)"/>
<mask id="path-495-inside-247_1_6650" fill="white">
<path d="M336 640H400V704H336V640Z"/>
</mask>
<path d="M400 704V705H401V704H400ZM399 640V704H401V640H399ZM400 703H336V705H400V703Z" fill="#D0D5DD" mask="url(#path-495-inside-247_1_6650)"/>
<mask id="path-497-inside-248_1_6650" fill="white">
<path d="M400 640H464V704H400V640Z"/>
</mask>
<path d="M464 704V705H465V704H464ZM463 640V704H465V640H463ZM464 703H400V705H464V703Z" fill="#D0D5DD" mask="url(#path-497-inside-248_1_6650)"/>
<mask id="path-499-inside-249_1_6650" fill="white">
<path d="M464 640H528V704H464V640Z"/>
</mask>
<path d="M528 704V705H529V704H528ZM527 640V704H529V640H527ZM528 703H464V705H528V703Z" fill="#D0D5DD" mask="url(#path-499-inside-249_1_6650)"/>
<mask id="path-501-inside-250_1_6650" fill="white">
<path d="M528 640H592V704H528V640Z"/>
</mask>
<path d="M528 640H592V704H528V640Z" fill="#F2F4F7"/>
<path d="M592 704V705H593V704H592ZM591 640V704H593V640H591ZM592 703H528V705H592V703Z" fill="#D0D5DD" mask="url(#path-501-inside-250_1_6650)"/>
<mask id="path-503-inside-251_1_6650" fill="white">
<path d="M592 640H656V704H592V640Z"/>
</mask>
<path d="M656 704V705H657V704H656ZM655 640V704H657V640H655ZM656 703H592V705H656V703Z" fill="#D0D5DD" mask="url(#path-503-inside-251_1_6650)"/>
<mask id="path-505-inside-252_1_6650" fill="white">
<path d="M656 640H720V704H656V640Z"/>
</mask>
<path d="M720 704V705H721V704H720ZM719 640V704H721V640H719ZM720 703H656V705H720V703Z" fill="#D0D5DD" mask="url(#path-505-inside-252_1_6650)"/>
<mask id="path-507-inside-253_1_6650" fill="white">
<path d="M720 640H784V704H720V640Z"/>
</mask>
<path d="M784 704V705H785V704H784ZM783 640V704H785V640H783ZM784 703H720V705H784V703Z" fill="#D0D5DD" mask="url(#path-507-inside-253_1_6650)"/>
<mask id="path-509-inside-254_1_6650" fill="white">
<path d="M784 640H848V704H784V640Z"/>
</mask>
<path d="M848 704V705H849V704H848ZM847 640V704H849V640H847ZM848 703H784V705H848V703Z" fill="#D0D5DD" mask="url(#path-509-inside-254_1_6650)"/>
<mask id="path-511-inside-255_1_6650" fill="white">
<path d="M848 640H912V704H848V640Z"/>
</mask>
<path d="M912 704V705H913V704H912ZM911 640V704H913V640H911ZM912 703H848V705H912V703Z" fill="#D0D5DD" mask="url(#path-511-inside-255_1_6650)"/>
<mask id="path-513-inside-256_1_6650" fill="white">
<path d="M912 640H976V704H912V640Z"/>
</mask>
<path d="M976 704V705H977V704H976ZM975 640V704H977V640H975ZM976 703H912V705H976V703Z" fill="#D0D5DD" mask="url(#path-513-inside-256_1_6650)"/>
<mask id="path-515-inside-257_1_6650" fill="white">
<path d="M976 640H1040V704H976V640Z"/>
</mask>
<path d="M976 640H1040V704H976V640Z" fill="#F2F4F7"/>
<path d="M1040 704V705H1041V704H1040ZM1039 640V704H1041V640H1039ZM1040 703H976V705H1040V703Z" fill="#D0D5DD" mask="url(#path-515-inside-257_1_6650)"/>
<mask id="path-517-inside-258_1_6650" fill="white">
<path d="M1040 640H1104V704H1040V640Z"/>
</mask>
<path d="M1104 704V705H1105V704H1104ZM1103 640V704H1105V640H1103ZM1104 703H1040V705H1104V703Z" fill="#D0D5DD" mask="url(#path-517-inside-258_1_6650)"/>
<mask id="path-519-inside-259_1_6650" fill="white">
<path d="M1104 640H1168V704H1104V640Z"/>
</mask>
<path d="M1168 704V705H1169V704H1168ZM1167 640V704H1169V640H1167ZM1168 703H1104V705H1168V703Z" fill="#D0D5DD" mask="url(#path-519-inside-259_1_6650)"/>
<mask id="path-521-inside-260_1_6650" fill="white">
<path d="M1168 640H1232V704H1168V640Z"/>
</mask>
<path d="M1232 704V705H1233V704H1232ZM1231 640V704H1233V640H1231ZM1232 703H1168V705H1232V703Z" fill="#D0D5DD" mask="url(#path-521-inside-260_1_6650)"/>
<mask id="path-523-inside-261_1_6650" fill="white">
<path d="M1232 640H1296V704H1232V640Z"/>
</mask>
<path d="M1296 704V705H1297V704H1296ZM1295 640V704H1297V640H1295ZM1296 703H1232V705H1296V703Z" fill="#D0D5DD" mask="url(#path-523-inside-261_1_6650)"/>
<mask id="path-525-inside-262_1_6650" fill="white">
<path d="M1296 640H1360V704H1296V640Z"/>
</mask>
<path d="M1360 704V705H1361V704H1360ZM1359 640V704H1361V640H1359ZM1360 703H1296V705H1360V703Z" fill="#D0D5DD" mask="url(#path-525-inside-262_1_6650)"/>
<mask id="path-527-inside-263_1_6650" fill="white">
<path d="M1360 640H1424V704H1360V640Z"/>
</mask>
<path d="M1424 704V705H1425V704H1424ZM1423 640V704H1425V640H1423ZM1424 703H1360V705H1424V703Z" fill="#D0D5DD" mask="url(#path-527-inside-263_1_6650)"/>
<mask id="path-529-inside-264_1_6650" fill="white">
<path d="M1424 640H1488V704H1424V640Z"/>
</mask>
<path d="M1488 704V705H1489V704H1488ZM1487 640V704H1489V640H1487ZM1488 703H1424V705H1488V703Z" fill="#D0D5DD" mask="url(#path-529-inside-264_1_6650)"/>
<mask id="path-531-inside-265_1_6650" fill="white">
<path d="M-48 704H16V768H-48V704Z"/>
</mask>
<path d="M16 768V769H17V768H16ZM15 704V768H17V704H15ZM16 767H-48V769H16V767Z" fill="#D0D5DD" mask="url(#path-531-inside-265_1_6650)"/>
<mask id="path-533-inside-266_1_6650" fill="white">
<path d="M16 704H80V768H16V704Z"/>
</mask>
<path d="M80 768V769H81V768H80ZM79 704V768H81V704H79ZM80 767H16V769H80V767Z" fill="#D0D5DD" mask="url(#path-533-inside-266_1_6650)"/>
<mask id="path-535-inside-267_1_6650" fill="white">
<path d="M80 704H144V768H80V704Z"/>
</mask>
<path d="M144 768V769H145V768H144ZM143 704V768H145V704H143ZM144 767H80V769H144V767Z" fill="#D0D5DD" mask="url(#path-535-inside-267_1_6650)"/>
<mask id="path-537-inside-268_1_6650" fill="white">
<path d="M144 704H208V768H144V704Z"/>
</mask>
<path d="M144 704H208V768H144V704Z" fill="#F2F4F7"/>
<path d="M208 768V769H209V768H208ZM207 704V768H209V704H207ZM208 767H144V769H208V767Z" fill="#D0D5DD" mask="url(#path-537-inside-268_1_6650)"/>
<mask id="path-539-inside-269_1_6650" fill="white">
<path d="M208 704H272V768H208V704Z"/>
</mask>
<path d="M272 768V769H273V768H272ZM271 704V768H273V704H271ZM272 767H208V769H272V767Z" fill="#D0D5DD" mask="url(#path-539-inside-269_1_6650)"/>
<mask id="path-541-inside-270_1_6650" fill="white">
<path d="M272 704H336V768H272V704Z"/>
</mask>
<path d="M336 768V769H337V768H336ZM335 704V768H337V704H335ZM336 767H272V769H336V767Z" fill="#D0D5DD" mask="url(#path-541-inside-270_1_6650)"/>
<mask id="path-543-inside-271_1_6650" fill="white">
<path d="M336 704H400V768H336V704Z"/>
</mask>
<path d="M400 768V769H401V768H400ZM399 704V768H401V704H399ZM400 767H336V769H400V767Z" fill="#D0D5DD" mask="url(#path-543-inside-271_1_6650)"/>
<mask id="path-545-inside-272_1_6650" fill="white">
<path d="M400 704H464V768H400V704Z"/>
</mask>
<path d="M464 768V769H465V768H464ZM463 704V768H465V704H463ZM464 767H400V769H464V767Z" fill="#D0D5DD" mask="url(#path-545-inside-272_1_6650)"/>
<mask id="path-547-inside-273_1_6650" fill="white">
<path d="M464 704H528V768H464V704Z"/>
</mask>
<path d="M528 768V769H529V768H528ZM527 704V768H529V704H527ZM528 767H464V769H528V767Z" fill="#D0D5DD" mask="url(#path-547-inside-273_1_6650)"/>
<mask id="path-549-inside-274_1_6650" fill="white">
<path d="M528 704H592V768H528V704Z"/>
</mask>
<path d="M592 768V769H593V768H592ZM591 704V768H593V704H591ZM592 767H528V769H592V767Z" fill="#D0D5DD" mask="url(#path-549-inside-274_1_6650)"/>
<mask id="path-551-inside-275_1_6650" fill="white">
<path d="M592 704H656V768H592V704Z"/>
</mask>
<path d="M656 768V769H657V768H656ZM655 704V768H657V704H655ZM656 767H592V769H656V767Z" fill="#D0D5DD" mask="url(#path-551-inside-275_1_6650)"/>
<mask id="path-553-inside-276_1_6650" fill="white">
<path d="M656 704H720V768H656V704Z"/>
</mask>
<path d="M720 768V769H721V768H720ZM719 704V768H721V704H719ZM720 767H656V769H720V767Z" fill="#D0D5DD" mask="url(#path-553-inside-276_1_6650)"/>
<mask id="path-555-inside-277_1_6650" fill="white">
<path d="M720 704H784V768H720V704Z"/>
</mask>
<path d="M784 768V769H785V768H784ZM783 704V768H785V704H783ZM784 767H720V769H784V767Z" fill="#D0D5DD" mask="url(#path-555-inside-277_1_6650)"/>
<mask id="path-557-inside-278_1_6650" fill="white">
<path d="M784 704H848V768H784V704Z"/>
</mask>
<path d="M784 704H848V768H784V704Z" fill="#F2F4F7"/>
<path d="M848 768V769H849V768H848ZM847 704V768H849V704H847ZM848 767H784V769H848V767Z" fill="#D0D5DD" mask="url(#path-557-inside-278_1_6650)"/>
<mask id="path-559-inside-279_1_6650" fill="white">
<path d="M848 704H912V768H848V704Z"/>
</mask>
<path d="M912 768V769H913V768H912ZM911 704V768H913V704H911ZM912 767H848V769H912V767Z" fill="#D0D5DD" mask="url(#path-559-inside-279_1_6650)"/>
<mask id="path-561-inside-280_1_6650" fill="white">
<path d="M912 704H976V768H912V704Z"/>
</mask>
<path d="M976 768V769H977V768H976ZM975 704V768H977V704H975ZM976 767H912V769H976V767Z" fill="#D0D5DD" mask="url(#path-561-inside-280_1_6650)"/>
<mask id="path-563-inside-281_1_6650" fill="white">
<path d="M976 704H1040V768H976V704Z"/>
</mask>
<path d="M1040 768V769H1041V768H1040ZM1039 704V768H1041V704H1039ZM1040 767H976V769H1040V767Z" fill="#D0D5DD" mask="url(#path-563-inside-281_1_6650)"/>
<mask id="path-565-inside-282_1_6650" fill="white">
<path d="M1040 704H1104V768H1040V704Z"/>
</mask>
<path d="M1104 768V769H1105V768H1104ZM1103 704V768H1105V704H1103ZM1104 767H1040V769H1104V767Z" fill="#D0D5DD" mask="url(#path-565-inside-282_1_6650)"/>
<mask id="path-567-inside-283_1_6650" fill="white">
<path d="M1104 704H1168V768H1104V704Z"/>
</mask>
<path d="M1104 704H1168V768H1104V704Z" fill="#F2F4F7"/>
<path d="M1168 768V769H1169V768H1168ZM1167 704V768H1169V704H1167ZM1168 767H1104V769H1168V767Z" fill="#D0D5DD" mask="url(#path-567-inside-283_1_6650)"/>
<mask id="path-569-inside-284_1_6650" fill="white">
<path d="M1168 704H1232V768H1168V704Z"/>
</mask>
<path d="M1232 768V769H1233V768H1232ZM1231 704V768H1233V704H1231ZM1232 767H1168V769H1232V767Z" fill="#D0D5DD" mask="url(#path-569-inside-284_1_6650)"/>
<mask id="path-571-inside-285_1_6650" fill="white">
<path d="M1232 704H1296V768H1232V704Z"/>
</mask>
<path d="M1296 768V769H1297V768H1296ZM1295 704V768H1297V704H1295ZM1296 767H1232V769H1296V767Z" fill="#D0D5DD" mask="url(#path-571-inside-285_1_6650)"/>
<mask id="path-573-inside-286_1_6650" fill="white">
<path d="M1296 704H1360V768H1296V704Z"/>
</mask>
<path d="M1360 768V769H1361V768H1360ZM1359 704V768H1361V704H1359ZM1360 767H1296V769H1360V767Z" fill="#D0D5DD" mask="url(#path-573-inside-286_1_6650)"/>
<mask id="path-575-inside-287_1_6650" fill="white">
<path d="M1360 704H1424V768H1360V704Z"/>
</mask>
<path d="M1424 768V769H1425V768H1424ZM1423 704V768H1425V704H1423ZM1424 767H1360V769H1424V767Z" fill="#D0D5DD" mask="url(#path-575-inside-287_1_6650)"/>
<mask id="path-577-inside-288_1_6650" fill="white">
<path d="M1424 704H1488V768H1424V704Z"/>
</mask>
<path d="M1488 768V769H1489V768H1488ZM1487 704V768H1489V704H1487ZM1488 767H1424V769H1488V767Z" fill="#D0D5DD" mask="url(#path-577-inside-288_1_6650)"/>
<mask id="path-579-inside-289_1_6650" fill="white">
<path d="M-48 768H16V832H-48V768Z"/>
</mask>
<path d="M16 832V833H17V832H16ZM15 768V832H17V768H15ZM16 831H-48V833H16V831Z" fill="#D0D5DD" mask="url(#path-579-inside-289_1_6650)"/>
<mask id="path-581-inside-290_1_6650" fill="white">
<path d="M16 768H80V832H16V768Z"/>
</mask>
<path d="M16 768H80V832H16V768Z" fill="#F2F4F7"/>
<path d="M80 832V833H81V832H80ZM79 768V832H81V768H79ZM80 831H16V833H80V831Z" fill="#D0D5DD" mask="url(#path-581-inside-290_1_6650)"/>
<mask id="path-583-inside-291_1_6650" fill="white">
<path d="M80 768H144V832H80V768Z"/>
</mask>
<path d="M144 832V833H145V832H144ZM143 768V832H145V768H143ZM144 831H80V833H144V831Z" fill="#D0D5DD" mask="url(#path-583-inside-291_1_6650)"/>
<mask id="path-585-inside-292_1_6650" fill="white">
<path d="M144 768H208V832H144V768Z"/>
</mask>
<path d="M208 832V833H209V832H208ZM207 768V832H209V768H207ZM208 831H144V833H208V831Z" fill="#D0D5DD" mask="url(#path-585-inside-292_1_6650)"/>
<mask id="path-587-inside-293_1_6650" fill="white">
<path d="M208 768H272V832H208V768Z"/>
</mask>
<path d="M272 832V833H273V832H272ZM271 768V832H273V768H271ZM272 831H208V833H272V831Z" fill="#D0D5DD" mask="url(#path-587-inside-293_1_6650)"/>
<mask id="path-589-inside-294_1_6650" fill="white">
<path d="M272 768H336V832H272V768Z"/>
</mask>
<path d="M336 832V833H337V832H336ZM335 768V832H337V768H335ZM336 831H272V833H336V831Z" fill="#D0D5DD" mask="url(#path-589-inside-294_1_6650)"/>
<mask id="path-591-inside-295_1_6650" fill="white">
<path d="M336 768H400V832H336V768Z"/>
</mask>
<path d="M400 832V833H401V832H400ZM399 768V832H401V768H399ZM400 831H336V833H400V831Z" fill="#D0D5DD" mask="url(#path-591-inside-295_1_6650)"/>
<mask id="path-593-inside-296_1_6650" fill="white">
<path d="M400 768H464V832H400V768Z"/>
</mask>
<path d="M464 832V833H465V832H464ZM463 768V832H465V768H463ZM464 831H400V833H464V831Z" fill="#D0D5DD" mask="url(#path-593-inside-296_1_6650)"/>
<mask id="path-595-inside-297_1_6650" fill="white">
<path d="M464 768H528V832H464V768Z"/>
</mask>
<path d="M528 832V833H529V832H528ZM527 768V832H529V768H527ZM528 831H464V833H528V831Z" fill="#D0D5DD" mask="url(#path-595-inside-297_1_6650)"/>
<mask id="path-597-inside-298_1_6650" fill="white">
<path d="M528 768H592V832H528V768Z"/>
</mask>
<path d="M528 768H592V832H528V768Z" fill="#F2F4F7"/>
<path d="M592 832V833H593V832H592ZM591 768V832H593V768H591ZM592 831H528V833H592V831Z" fill="#D0D5DD" mask="url(#path-597-inside-298_1_6650)"/>
<mask id="path-599-inside-299_1_6650" fill="white">
<path d="M592 768H656V832H592V768Z"/>
</mask>
<path d="M656 832V833H657V832H656ZM655 768V832H657V768H655ZM656 831H592V833H656V831Z" fill="#D0D5DD" mask="url(#path-599-inside-299_1_6650)"/>
<mask id="path-601-inside-300_1_6650" fill="white">
<path d="M656 768H720V832H656V768Z"/>
</mask>
<path d="M720 832V833H721V832H720ZM719 768V832H721V768H719ZM720 831H656V833H720V831Z" fill="#D0D5DD" mask="url(#path-601-inside-300_1_6650)"/>
<mask id="path-603-inside-301_1_6650" fill="white">
<path d="M720 768H784V832H720V768Z"/>
</mask>
<path d="M784 832V833H785V832H784ZM783 768V832H785V768H783ZM784 831H720V833H784V831Z" fill="#D0D5DD" mask="url(#path-603-inside-301_1_6650)"/>
<mask id="path-605-inside-302_1_6650" fill="white">
<path d="M784 768H848V832H784V768Z"/>
</mask>
<path d="M848 832V833H849V832H848ZM847 768V832H849V768H847ZM848 831H784V833H848V831Z" fill="#D0D5DD" mask="url(#path-605-inside-302_1_6650)"/>
<mask id="path-607-inside-303_1_6650" fill="white">
<path d="M848 768H912V832H848V768Z"/>
</mask>
<path d="M912 832V833H913V832H912ZM911 768V832H913V768H911ZM912 831H848V833H912V831Z" fill="#D0D5DD" mask="url(#path-607-inside-303_1_6650)"/>
<mask id="path-609-inside-304_1_6650" fill="white">
<path d="M912 768H976V832H912V768Z"/>
</mask>
<path d="M976 832V833H977V832H976ZM975 768V832H977V768H975ZM976 831H912V833H976V831Z" fill="#D0D5DD" mask="url(#path-609-inside-304_1_6650)"/>
<mask id="path-611-inside-305_1_6650" fill="white">
<path d="M976 768H1040V832H976V768Z"/>
</mask>
<path d="M1040 832V833H1041V832H1040ZM1039 768V832H1041V768H1039ZM1040 831H976V833H1040V831Z" fill="#D0D5DD" mask="url(#path-611-inside-305_1_6650)"/>
<mask id="path-613-inside-306_1_6650" fill="white">
<path d="M1040 768H1104V832H1040V768Z"/>
</mask>
<path d="M1104 832V833H1105V832H1104ZM1103 768V832H1105V768H1103ZM1104 831H1040V833H1104V831Z" fill="#D0D5DD" mask="url(#path-613-inside-306_1_6650)"/>
<mask id="path-615-inside-307_1_6650" fill="white">
<path d="M1104 768H1168V832H1104V768Z"/>
</mask>
<path d="M1168 832V833H1169V832H1168ZM1167 768V832H1169V768H1167ZM1168 831H1104V833H1168V831Z" fill="#D0D5DD" mask="url(#path-615-inside-307_1_6650)"/>
<mask id="path-617-inside-308_1_6650" fill="white">
<path d="M1168 768H1232V832H1168V768Z"/>
</mask>
<path d="M1232 832V833H1233V832H1232ZM1231 768V832H1233V768H1231ZM1232 831H1168V833H1232V831Z" fill="#D0D5DD" mask="url(#path-617-inside-308_1_6650)"/>
<mask id="path-619-inside-309_1_6650" fill="white">
<path d="M1232 768H1296V832H1232V768Z"/>
</mask>
<path d="M1296 832V833H1297V832H1296ZM1295 768V832H1297V768H1295ZM1296 831H1232V833H1296V831Z" fill="#D0D5DD" mask="url(#path-619-inside-309_1_6650)"/>
<mask id="path-621-inside-310_1_6650" fill="white">
<path d="M1296 768H1360V832H1296V768Z"/>
</mask>
<path d="M1296 768H1360V832H1296V768Z" fill="#F2F4F7"/>
<path d="M1360 832V833H1361V832H1360ZM1359 768V832H1361V768H1359ZM1360 831H1296V833H1360V831Z" fill="#D0D5DD" mask="url(#path-621-inside-310_1_6650)"/>
<mask id="path-623-inside-311_1_6650" fill="white">
<path d="M1360 768H1424V832H1360V768Z"/>
</mask>
<path d="M1424 832V833H1425V832H1424ZM1423 768V832H1425V768H1423ZM1424 831H1360V833H1424V831Z" fill="#D0D5DD" mask="url(#path-623-inside-311_1_6650)"/>
<mask id="path-625-inside-312_1_6650" fill="white">
<path d="M1424 768H1488V832H1424V768Z"/>
</mask>
<path d="M1488 832V833H1489V832H1488ZM1487 768V832H1489V768H1487ZM1488 831H1424V833H1488V831Z" fill="#D0D5DD" mask="url(#path-625-inside-312_1_6650)"/>
<mask id="path-627-inside-313_1_6650" fill="white">
<path d="M-48 832H16V896H-48V832Z"/>
</mask>
<path d="M16 896V897H17V896H16ZM15 832V896H17V832H15ZM16 895H-48V897H16V895Z" fill="#D0D5DD" mask="url(#path-627-inside-313_1_6650)"/>
<mask id="path-629-inside-314_1_6650" fill="white">
<path d="M16 832H80V896H16V832Z"/>
</mask>
<path d="M80 896V897H81V896H80ZM79 832V896H81V832H79ZM80 895H16V897H80V895Z" fill="#D0D5DD" mask="url(#path-629-inside-314_1_6650)"/>
<mask id="path-631-inside-315_1_6650" fill="white">
<path d="M80 832H144V896H80V832Z"/>
</mask>
<path d="M144 896V897H145V896H144ZM143 832V896H145V832H143ZM144 895H80V897H144V895Z" fill="#D0D5DD" mask="url(#path-631-inside-315_1_6650)"/>
<mask id="path-633-inside-316_1_6650" fill="white">
<path d="M144 832H208V896H144V832Z"/>
</mask>
<path d="M208 896V897H209V896H208ZM207 832V896H209V832H207ZM208 895H144V897H208V895Z" fill="#D0D5DD" mask="url(#path-633-inside-316_1_6650)"/>
<mask id="path-635-inside-317_1_6650" fill="white">
<path d="M208 832H272V896H208V832Z"/>
</mask>
<path d="M272 896V897H273V896H272ZM271 832V896H273V832H271ZM272 895H208V897H272V895Z" fill="#D0D5DD" mask="url(#path-635-inside-317_1_6650)"/>
<mask id="path-637-inside-318_1_6650" fill="white">
<path d="M272 832H336V896H272V832Z"/>
</mask>
<path d="M336 896V897H337V896H336ZM335 832V896H337V832H335ZM336 895H272V897H336V895Z" fill="#D0D5DD" mask="url(#path-637-inside-318_1_6650)"/>
<mask id="path-639-inside-319_1_6650" fill="white">
<path d="M336 832H400V896H336V832Z"/>
</mask>
<path d="M336 832H400V896H336V832Z" fill="#F2F4F7"/>
<path d="M400 896V897H401V896H400ZM399 832V896H401V832H399ZM400 895H336V897H400V895Z" fill="#D0D5DD" mask="url(#path-639-inside-319_1_6650)"/>
<mask id="path-641-inside-320_1_6650" fill="white">
<path d="M400 832H464V896H400V832Z"/>
</mask>
<path d="M464 896V897H465V896H464ZM463 832V896H465V832H463ZM464 895H400V897H464V895Z" fill="#D0D5DD" mask="url(#path-641-inside-320_1_6650)"/>
<mask id="path-643-inside-321_1_6650" fill="white">
<path d="M464 832H528V896H464V832Z"/>
</mask>
<path d="M528 896V897H529V896H528ZM527 832V896H529V832H527ZM528 895H464V897H528V895Z" fill="#D0D5DD" mask="url(#path-643-inside-321_1_6650)"/>
<mask id="path-645-inside-322_1_6650" fill="white">
<path d="M528 832H592V896H528V832Z"/>
</mask>
<path d="M592 896V897H593V896H592ZM591 832V896H593V832H591ZM592 895H528V897H592V895Z" fill="#D0D5DD" mask="url(#path-645-inside-322_1_6650)"/>
<mask id="path-647-inside-323_1_6650" fill="white">
<path d="M592 832H656V896H592V832Z"/>
</mask>
<path d="M656 896V897H657V896H656ZM655 832V896H657V832H655ZM656 895H592V897H656V895Z" fill="#D0D5DD" mask="url(#path-647-inside-323_1_6650)"/>
<mask id="path-649-inside-324_1_6650" fill="white">
<path d="M656 832H720V896H656V832Z"/>
</mask>
<path d="M720 896V897H721V896H720ZM719 832V896H721V832H719ZM720 895H656V897H720V895Z" fill="#D0D5DD" mask="url(#path-649-inside-324_1_6650)"/>
<mask id="path-651-inside-325_1_6650" fill="white">
<path d="M720 832H784V896H720V832Z"/>
</mask>
<path d="M784 896V897H785V896H784ZM783 832V896H785V832H783ZM784 895H720V897H784V895Z" fill="#D0D5DD" mask="url(#path-651-inside-325_1_6650)"/>
<mask id="path-653-inside-326_1_6650" fill="white">
<path d="M784 832H848V896H784V832Z"/>
</mask>
<path d="M848 896V897H849V896H848ZM847 832V896H849V832H847ZM848 895H784V897H848V895Z" fill="#D0D5DD" mask="url(#path-653-inside-326_1_6650)"/>
<mask id="path-655-inside-327_1_6650" fill="white">
<path d="M848 832H912V896H848V832Z"/>
</mask>
<path d="M912 896V897H913V896H912ZM911 832V896H913V832H911ZM912 895H848V897H912V895Z" fill="#D0D5DD" mask="url(#path-655-inside-327_1_6650)"/>
<mask id="path-657-inside-328_1_6650" fill="white">
<path d="M912 832H976V896H912V832Z"/>
</mask>
<path d="M912 832H976V896H912V832Z" fill="#F2F4F7"/>
<path d="M976 896V897H977V896H976ZM975 832V896H977V832H975ZM976 895H912V897H976V895Z" fill="#D0D5DD" mask="url(#path-657-inside-328_1_6650)"/>
<mask id="path-659-inside-329_1_6650" fill="white">
<path d="M976 832H1040V896H976V832Z"/>
</mask>
<path d="M1040 896V897H1041V896H1040ZM1039 832V896H1041V832H1039ZM1040 895H976V897H1040V895Z" fill="#D0D5DD" mask="url(#path-659-inside-329_1_6650)"/>
<mask id="path-661-inside-330_1_6650" fill="white">
<path d="M1040 832H1104V896H1040V832Z"/>
</mask>
<path d="M1104 896V897H1105V896H1104ZM1103 832V896H1105V832H1103ZM1104 895H1040V897H1104V895Z" fill="#D0D5DD" mask="url(#path-661-inside-330_1_6650)"/>
<mask id="path-663-inside-331_1_6650" fill="white">
<path d="M1104 832H1168V896H1104V832Z"/>
</mask>
<path d="M1168 896V897H1169V896H1168ZM1167 832V896H1169V832H1167ZM1168 895H1104V897H1168V895Z" fill="#D0D5DD" mask="url(#path-663-inside-331_1_6650)"/>
<mask id="path-665-inside-332_1_6650" fill="white">
<path d="M1168 832H1232V896H1168V832Z"/>
</mask>
<path d="M1232 896V897H1233V896H1232ZM1231 832V896H1233V832H1231ZM1232 895H1168V897H1232V895Z" fill="#D0D5DD" mask="url(#path-665-inside-332_1_6650)"/>
<mask id="path-667-inside-333_1_6650" fill="white">
<path d="M1232 832H1296V896H1232V832Z"/>
</mask>
<path d="M1296 896V897H1297V896H1296ZM1295 832V896H1297V832H1295ZM1296 895H1232V897H1296V895Z" fill="#D0D5DD" mask="url(#path-667-inside-333_1_6650)"/>
<mask id="path-669-inside-334_1_6650" fill="white">
<path d="M1296 832H1360V896H1296V832Z"/>
</mask>
<path d="M1360 896V897H1361V896H1360ZM1359 832V896H1361V832H1359ZM1360 895H1296V897H1360V895Z" fill="#D0D5DD" mask="url(#path-669-inside-334_1_6650)"/>
<mask id="path-671-inside-335_1_6650" fill="white">
<path d="M1360 832H1424V896H1360V832Z"/>
</mask>
<path d="M1424 896V897H1425V896H1424ZM1423 832V896H1425V832H1423ZM1424 895H1360V897H1424V895Z" fill="#D0D5DD" mask="url(#path-671-inside-335_1_6650)"/>
<mask id="path-673-inside-336_1_6650" fill="white">
<path d="M1424 832H1488V896H1424V832Z"/>
</mask>
<path d="M1424 832H1488V896H1424V832Z" fill="#F2F4F7"/>
<path d="M1488 896V897H1489V896H1488ZM1487 832V896H1489V832H1487ZM1488 895H1424V897H1488V895Z" fill="#D0D5DD" mask="url(#path-673-inside-336_1_6650)"/>
<mask id="path-675-inside-337_1_6650" fill="white">
<path d="M-48 896H16V960H-48V896Z"/>
</mask>
<path d="M16 960V961H17V960H16ZM15 896V960H17V896H15ZM16 959H-48V961H16V959Z" fill="#D0D5DD" mask="url(#path-675-inside-337_1_6650)"/>
<mask id="path-677-inside-338_1_6650" fill="white">
<path d="M16 896H80V960H16V896Z"/>
</mask>
<path d="M80 960V961H81V960H80ZM79 896V960H81V896H79ZM80 959H16V961H80V959Z" fill="#D0D5DD" mask="url(#path-677-inside-338_1_6650)"/>
<mask id="path-679-inside-339_1_6650" fill="white">
<path d="M80 896H144V960H80V896Z"/>
</mask>
<path d="M144 960V961H145V960H144ZM143 896V960H145V896H143ZM144 959H80V961H144V959Z" fill="#D0D5DD" mask="url(#path-679-inside-339_1_6650)"/>
<mask id="path-681-inside-340_1_6650" fill="white">
<path d="M144 896H208V960H144V896Z"/>
</mask>
<path d="M144 896H208V960H144V896Z" fill="#F2F4F7"/>
<path d="M208 960V961H209V960H208ZM207 896V960H209V896H207ZM208 959H144V961H208V959Z" fill="#D0D5DD" mask="url(#path-681-inside-340_1_6650)"/>
<mask id="path-683-inside-341_1_6650" fill="white">
<path d="M208 896H272V960H208V896Z"/>
</mask>
<path d="M272 960V961H273V960H272ZM271 896V960H273V896H271ZM272 959H208V961H272V959Z" fill="#D0D5DD" mask="url(#path-683-inside-341_1_6650)"/>
<mask id="path-685-inside-342_1_6650" fill="white">
<path d="M272 896H336V960H272V896Z"/>
</mask>
<path d="M336 960V961H337V960H336ZM335 896V960H337V896H335ZM336 959H272V961H336V959Z" fill="#D0D5DD" mask="url(#path-685-inside-342_1_6650)"/>
<mask id="path-687-inside-343_1_6650" fill="white">
<path d="M336 896H400V960H336V896Z"/>
</mask>
<path d="M400 960V961H401V960H400ZM399 896V960H401V896H399ZM400 959H336V961H400V959Z" fill="#D0D5DD" mask="url(#path-687-inside-343_1_6650)"/>
<mask id="path-689-inside-344_1_6650" fill="white">
<path d="M400 896H464V960H400V896Z"/>
</mask>
<path d="M464 960V961H465V960H464ZM463 896V960H465V896H463ZM464 959H400V961H464V959Z" fill="#D0D5DD" mask="url(#path-689-inside-344_1_6650)"/>
<mask id="path-691-inside-345_1_6650" fill="white">
<path d="M464 896H528V960H464V896Z"/>
</mask>
<path d="M528 960V961H529V960H528ZM527 896V960H529V896H527ZM528 959H464V961H528V959Z" fill="#D0D5DD" mask="url(#path-691-inside-345_1_6650)"/>
<mask id="path-693-inside-346_1_6650" fill="white">
<path d="M528 896H592V960H528V896Z"/>
</mask>
<path d="M592 960V961H593V960H592ZM591 896V960H593V896H591ZM592 959H528V961H592V959Z" fill="#D0D5DD" mask="url(#path-693-inside-346_1_6650)"/>
<mask id="path-695-inside-347_1_6650" fill="white">
<path d="M592 896H656V960H592V896Z"/>
</mask>
<path d="M656 960V961H657V960H656ZM655 896V960H657V896H655ZM656 959H592V961H656V959Z" fill="#D0D5DD" mask="url(#path-695-inside-347_1_6650)"/>
<mask id="path-697-inside-348_1_6650" fill="white">
<path d="M656 896H720V960H656V896Z"/>
</mask>
<path d="M720 960V961H721V960H720ZM719 896V960H721V896H719ZM720 959H656V961H720V959Z" fill="#D0D5DD" mask="url(#path-697-inside-348_1_6650)"/>
<mask id="path-699-inside-349_1_6650" fill="white">
<path d="M720 896H784V960H720V896Z"/>
</mask>
<path d="M720 896H784V960H720V896Z" fill="#F2F4F7"/>
<path d="M784 960V961H785V960H784ZM783 896V960H785V896H783ZM784 959H720V961H784V959Z" fill="#D0D5DD" mask="url(#path-699-inside-349_1_6650)"/>
<mask id="path-701-inside-350_1_6650" fill="white">
<path d="M784 896H848V960H784V896Z"/>
</mask>
<path d="M848 960V961H849V960H848ZM847 896V960H849V896H847ZM848 959H784V961H848V959Z" fill="#D0D5DD" mask="url(#path-701-inside-350_1_6650)"/>
<mask id="path-703-inside-351_1_6650" fill="white">
<path d="M848 896H912V960H848V896Z"/>
</mask>
<path d="M912 960V961H913V960H912ZM911 896V960H913V896H911ZM912 959H848V961H912V959Z" fill="#D0D5DD" mask="url(#path-703-inside-351_1_6650)"/>
<mask id="path-705-inside-352_1_6650" fill="white">
<path d="M912 896H976V960H912V896Z"/>
</mask>
<path d="M976 960V961H977V960H976ZM975 896V960H977V896H975ZM976 959H912V961H976V959Z" fill="#D0D5DD" mask="url(#path-705-inside-352_1_6650)"/>
<mask id="path-707-inside-353_1_6650" fill="white">
<path d="M976 896H1040V960H976V896Z"/>
</mask>
<path d="M1040 960V961H1041V960H1040ZM1039 896V960H1041V896H1039ZM1040 959H976V961H1040V959Z" fill="#D0D5DD" mask="url(#path-707-inside-353_1_6650)"/>
<mask id="path-709-inside-354_1_6650" fill="white">
<path d="M1040 896H1104V960H1040V896Z"/>
</mask>
<path d="M1104 960V961H1105V960H1104ZM1103 896V960H1105V896H1103ZM1104 959H1040V961H1104V959Z" fill="#D0D5DD" mask="url(#path-709-inside-354_1_6650)"/>
<mask id="path-711-inside-355_1_6650" fill="white">
<path d="M1104 896H1168V960H1104V896Z"/>
</mask>
<path d="M1168 960V961H1169V960H1168ZM1167 896V960H1169V896H1167ZM1168 959H1104V961H1168V959Z" fill="#D0D5DD" mask="url(#path-711-inside-355_1_6650)"/>
<mask id="path-713-inside-356_1_6650" fill="white">
<path d="M1168 896H1232V960H1168V896Z"/>
</mask>
<path d="M1168 896H1232V960H1168V896Z" fill="#F2F4F7"/>
<path d="M1232 960V961H1233V960H1232ZM1231 896V960H1233V896H1231ZM1232 959H1168V961H1232V959Z" fill="#D0D5DD" mask="url(#path-713-inside-356_1_6650)"/>
<mask id="path-715-inside-357_1_6650" fill="white">
<path d="M1232 896H1296V960H1232V896Z"/>
</mask>
<path d="M1296 960V961H1297V960H1296ZM1295 896V960H1297V896H1295ZM1296 959H1232V961H1296V959Z" fill="#D0D5DD" mask="url(#path-715-inside-357_1_6650)"/>
<mask id="path-717-inside-358_1_6650" fill="white">
<path d="M1296 896H1360V960H1296V896Z"/>
</mask>
<path d="M1360 960V961H1361V960H1360ZM1359 896V960H1361V896H1359ZM1360 959H1296V961H1360V959Z" fill="#D0D5DD" mask="url(#path-717-inside-358_1_6650)"/>
<mask id="path-719-inside-359_1_6650" fill="white">
<path d="M1360 896H1424V960H1360V896Z"/>
</mask>
<path d="M1424 960V961H1425V960H1424ZM1423 896V960H1425V896H1423ZM1424 959H1360V961H1424V959Z" fill="#D0D5DD" mask="url(#path-719-inside-359_1_6650)"/>
<mask id="path-721-inside-360_1_6650" fill="white">
<path d="M1424 896H1488V960H1424V896Z"/>
</mask>
<path d="M1488 960V961H1489V960H1488ZM1487 896V960H1489V896H1487ZM1488 959H1424V961H1488V959Z" fill="#D0D5DD" mask="url(#path-721-inside-360_1_6650)"/>
<mask id="path-723-inside-361_1_6650" fill="white">
<path d="M-48 960H16V1024H-48V960Z"/>
</mask>
<path d="M16 1024V1025H17V1024H16ZM15 960V1024H17V960H15ZM16 1023H-48V1025H16V1023Z" fill="#D0D5DD" mask="url(#path-723-inside-361_1_6650)"/>
<mask id="path-725-inside-362_1_6650" fill="white">
<path d="M16 960H80V1024H16V960Z"/>
</mask>
<path d="M16 960H80V1024H16V960Z" fill="#F2F4F7"/>
<path d="M80 1024V1025H81V1024H80ZM79 960V1024H81V960H79ZM80 1023H16V1025H80V1023Z" fill="#D0D5DD" mask="url(#path-725-inside-362_1_6650)"/>
<mask id="path-727-inside-363_1_6650" fill="white">
<path d="M80 960H144V1024H80V960Z"/>
</mask>
<path d="M144 1024V1025H145V1024H144ZM143 960V1024H145V960H143ZM144 1023H80V1025H144V1023Z" fill="#D0D5DD" mask="url(#path-727-inside-363_1_6650)"/>
<mask id="path-729-inside-364_1_6650" fill="white">
<path d="M144 960H208V1024H144V960Z"/>
</mask>
<path d="M208 1024V1025H209V1024H208ZM207 960V1024H209V960H207ZM208 1023H144V1025H208V1023Z" fill="#D0D5DD" mask="url(#path-729-inside-364_1_6650)"/>
<mask id="path-731-inside-365_1_6650" fill="white">
<path d="M208 960H272V1024H208V960Z"/>
</mask>
<path d="M272 1024V1025H273V1024H272ZM271 960V1024H273V960H271ZM272 1023H208V1025H272V1023Z" fill="#D0D5DD" mask="url(#path-731-inside-365_1_6650)"/>
<mask id="path-733-inside-366_1_6650" fill="white">
<path d="M272 960H336V1024H272V960Z"/>
</mask>
<path d="M336 1024V1025H337V1024H336ZM335 960V1024H337V960H335ZM336 1023H272V1025H336V1023Z" fill="#D0D5DD" mask="url(#path-733-inside-366_1_6650)"/>
<mask id="path-735-inside-367_1_6650" fill="white">
<path d="M336 960H400V1024H336V960Z"/>
</mask>
<path d="M400 1024V1025H401V1024H400ZM399 960V1024H401V960H399ZM400 1023H336V1025H400V1023Z" fill="#D0D5DD" mask="url(#path-735-inside-367_1_6650)"/>
<mask id="path-737-inside-368_1_6650" fill="white">
<path d="M400 960H464V1024H400V960Z"/>
</mask>
<path d="M464 1024V1025H465V1024H464ZM463 960V1024H465V960H463ZM464 1023H400V1025H464V1023Z" fill="#D0D5DD" mask="url(#path-737-inside-368_1_6650)"/>
<mask id="path-739-inside-369_1_6650" fill="white">
<path d="M464 960H528V1024H464V960Z"/>
</mask>
<path d="M464 960H528V1024H464V960Z" fill="#F2F4F7"/>
<path d="M528 1024V1025H529V1024H528ZM527 960V1024H529V960H527ZM528 1023H464V1025H528V1023Z" fill="#D0D5DD" mask="url(#path-739-inside-369_1_6650)"/>
<mask id="path-741-inside-370_1_6650" fill="white">
<path d="M528 960H592V1024H528V960Z"/>
</mask>
<path d="M592 1024V1025H593V1024H592ZM591 960V1024H593V960H591ZM592 1023H528V1025H592V1023Z" fill="#D0D5DD" mask="url(#path-741-inside-370_1_6650)"/>
<mask id="path-743-inside-371_1_6650" fill="white">
<path d="M592 960H656V1024H592V960Z"/>
</mask>
<path d="M656 1024V1025H657V1024H656ZM655 960V1024H657V960H655ZM656 1023H592V1025H656V1023Z" fill="#D0D5DD" mask="url(#path-743-inside-371_1_6650)"/>
<mask id="path-745-inside-372_1_6650" fill="white">
<path d="M656 960H720V1024H656V960Z"/>
</mask>
<path d="M720 1024V1025H721V1024H720ZM719 960V1024H721V960H719ZM720 1023H656V1025H720V1023Z" fill="#D0D5DD" mask="url(#path-745-inside-372_1_6650)"/>
<mask id="path-747-inside-373_1_6650" fill="white">
<path d="M720 960H784V1024H720V960Z"/>
</mask>
<path d="M784 1024V1025H785V1024H784ZM783 960V1024H785V960H783ZM784 1023H720V1025H784V1023Z" fill="#D0D5DD" mask="url(#path-747-inside-373_1_6650)"/>
<mask id="path-749-inside-374_1_6650" fill="white">
<path d="M784 960H848V1024H784V960Z"/>
</mask>
<path d="M848 1024V1025H849V1024H848ZM847 960V1024H849V960H847ZM848 1023H784V1025H848V1023Z" fill="#D0D5DD" mask="url(#path-749-inside-374_1_6650)"/>
<mask id="path-751-inside-375_1_6650" fill="white">
<path d="M848 960H912V1024H848V960Z"/>
</mask>
<path d="M912 1024V1025H913V1024H912ZM911 960V1024H913V960H911ZM912 1023H848V1025H912V1023Z" fill="#D0D5DD" mask="url(#path-751-inside-375_1_6650)"/>
<mask id="path-753-inside-376_1_6650" fill="white">
<path d="M912 960H976V1024H912V960Z"/>
</mask>
<path d="M976 1024V1025H977V1024H976ZM975 960V1024H977V960H975ZM976 1023H912V1025H976V1023Z" fill="#D0D5DD" mask="url(#path-753-inside-376_1_6650)"/>
<mask id="path-755-inside-377_1_6650" fill="white">
<path d="M976 960H1040V1024H976V960Z"/>
</mask>
<path d="M976 960H1040V1024H976V960Z" fill="#F2F4F7"/>
<path d="M1040 1024V1025H1041V1024H1040ZM1039 960V1024H1041V960H1039ZM1040 1023H976V1025H1040V1023Z" fill="#D0D5DD" mask="url(#path-755-inside-377_1_6650)"/>
<mask id="path-757-inside-378_1_6650" fill="white">
<path d="M1040 960H1104V1024H1040V960Z"/>
</mask>
<path d="M1104 1024V1025H1105V1024H1104ZM1103 960V1024H1105V960H1103ZM1104 1023H1040V1025H1104V1023Z" fill="#D0D5DD" mask="url(#path-757-inside-378_1_6650)"/>
<mask id="path-759-inside-379_1_6650" fill="white">
<path d="M1104 960H1168V1024H1104V960Z"/>
</mask>
<path d="M1168 1024V1025H1169V1024H1168ZM1167 960V1024H1169V960H1167ZM1168 1023H1104V1025H1168V1023Z" fill="#D0D5DD" mask="url(#path-759-inside-379_1_6650)"/>
<mask id="path-761-inside-380_1_6650" fill="white">
<path d="M1168 960H1232V1024H1168V960Z"/>
</mask>
<path d="M1232 1024V1025H1233V1024H1232ZM1231 960V1024H1233V960H1231ZM1232 1023H1168V1025H1232V1023Z" fill="#D0D5DD" mask="url(#path-761-inside-380_1_6650)"/>
<mask id="path-763-inside-381_1_6650" fill="white">
<path d="M1232 960H1296V1024H1232V960Z"/>
</mask>
<path d="M1296 1024V1025H1297V1024H1296ZM1295 960V1024H1297V960H1295ZM1296 1023H1232V1025H1296V1023Z" fill="#D0D5DD" mask="url(#path-763-inside-381_1_6650)"/>
<mask id="path-765-inside-382_1_6650" fill="white">
<path d="M1296 960H1360V1024H1296V960Z"/>
</mask>
<path d="M1360 1024V1025H1361V1024H1360ZM1359 960V1024H1361V960H1359ZM1360 1023H1296V1025H1360V1023Z" fill="#D0D5DD" mask="url(#path-765-inside-382_1_6650)"/>
<mask id="path-767-inside-383_1_6650" fill="white">
<path d="M1360 960H1424V1024H1360V960Z"/>
</mask>
<path d="M1424 1024V1025H1425V1024H1424ZM1423 960V1024H1425V960H1423ZM1424 1023H1360V1025H1424V1023Z" fill="#D0D5DD" mask="url(#path-767-inside-383_1_6650)"/>
<mask id="path-769-inside-384_1_6650" fill="white">
<path d="M1424 960H1488V1024H1424V960Z"/>
</mask>
<path d="M1488 1024V1025H1489V1024H1488ZM1487 960V1024H1489V960H1487ZM1488 1023H1424V1025H1488V1023Z" fill="#D0D5DD" mask="url(#path-769-inside-384_1_6650)"/>
</g>
<rect x="-239.5" y="0.5" width="1919" height="1407" stroke="#D0D5DD"/>
</g>
</g>
<defs>
<radialGradient id="paint0_radial_1_6650" cx="0" cy="0" r="1" gradientUnits="userSpaceOnUse" gradientTransform="translate(720 -0.000171661) rotate(90) scale(1440 751.588)">
<stop/>
<stop offset="0.953125" stop-opacity="0"/>
</radialGradient>
<clipPath id="clip0_1_6650">
<rect width="1440" height="1024" fill="white"/>
</clipPath>
<clipPath id="clip1_1_6650">
<rect x="-240" width="1920" height="1408" fill="white"/>
</clipPath>
</defs>
</svg>
