<svg width="272" height="272" viewBox="0 0 272 272" fill="none" xmlns="http://www.w3.org/2000/svg">
<g filter="url(#filter0_b_1_7204)">
<rect width="272" height="272" rx="136" fill="white" fill-opacity="0.7"/>
<path d="M136 24C150.708 24 165.272 26.897 178.861 32.5255C192.449 38.154 204.796 46.4039 215.196 56.804C225.596 67.2042 233.846 79.551 239.475 93.1395C245.103 106.728 248 121.292 248 136C248 150.708 245.103 165.272 239.474 178.861C233.846 192.449 225.596 204.796 215.196 215.196C204.796 225.596 192.449 233.846 178.861 239.475C165.272 245.103 150.708 248 136 248C121.292 248 106.728 245.103 93.1394 239.474C79.551 233.846 67.2042 225.596 56.804 215.196C46.4038 204.796 38.154 192.449 32.5255 178.86C26.897 165.272 24 150.708 24 136C24 121.292 26.897 106.728 32.5255 93.1394C38.1541 79.5509 46.4039 67.2042 56.8041 56.804C67.2043 46.4038 79.551 38.154 93.1395 32.5255C106.728 26.8969 121.292 24 136 24L136 24Z" stroke="#F2F4F7" stroke-width="16" stroke-linecap="round" stroke-linejoin="round"/>
<path d="M136 24C161.635 24 186.494 32.7939 206.427 48.9134C226.359 65.0329 240.159 87.5024 245.522 112.57C250.885 137.638 247.486 163.787 235.893 186.65C224.3 209.514 205.214 227.709 181.823 238.197C158.432 248.685 132.15 250.832 107.367 244.278C82.5843 237.725 60.7994 222.868 45.65 202.188C30.5006 181.509 22.9037 156.258 24.1277 130.652C25.3518 105.046 35.3226 80.6356 52.3755 61.4953" stroke="#003320" stroke-width="16" stroke-linecap="round" stroke-linejoin="round"/>
<path d="M136 44C148.082 44 160.045 46.3797 171.207 51.0031C182.369 55.6265 192.511 62.4032 201.054 70.9462C209.597 79.4892 216.373 89.6312 220.997 100.793C225.62 111.955 228 123.918 228 136C228 148.082 225.62 160.045 220.997 171.207C216.373 182.369 209.597 192.511 201.054 201.054C192.511 209.597 182.369 216.373 171.207 220.997C160.045 225.62 148.082 228 136 228C123.918 228 111.955 225.62 100.793 220.997C89.6311 216.373 79.4891 209.597 70.9461 201.054C62.4032 192.511 55.6265 182.369 51.0031 171.207C46.3796 160.045 44 148.082 44 136C44 123.918 46.3797 111.955 51.0031 100.793C55.6265 89.6311 62.4032 79.4891 70.9462 70.9461C79.4892 62.4032 89.6312 55.6265 100.793 51.0031C111.955 46.3796 123.918 44 136 44L136 44Z" stroke="#F2F4F7" stroke-width="16" stroke-linecap="round" stroke-linejoin="round"/>
<path d="M136 44C154.791 44 173.132 49.7544 188.556 60.4892C203.979 71.224 215.746 86.4243 222.272 104.046C228.799 121.668 229.773 140.865 225.064 159.057C220.354 177.249 210.187 193.562 195.929 205.803C181.672 218.044 164.008 225.625 145.313 227.527C126.618 229.43 107.789 225.561 91.3578 216.443C74.9269 207.325 61.6823 193.393 53.4053 176.523C45.1282 159.653 42.2158 140.652 45.0596 122.077" stroke="#016A43" stroke-width="16" stroke-linecap="round" stroke-linejoin="round"/>
<path d="M136 64C145.455 64 154.818 65.8623 163.553 69.4807C172.289 73.099 180.226 78.4025 186.912 85.0883C193.598 91.7741 198.901 99.7114 202.519 108.447C206.138 117.182 208 126.545 208 136C208 145.455 206.138 154.818 202.519 163.553C198.901 172.289 193.597 180.226 186.912 186.912C180.226 193.598 172.289 198.901 163.553 202.519C154.818 206.138 145.455 208 136 208C126.545 208 117.182 206.138 108.447 202.519C99.7113 198.901 91.7741 193.597 85.0883 186.912C78.4025 180.226 73.099 172.289 69.4807 163.553C65.8623 154.818 64 145.455 64 136C64 126.545 65.8623 117.182 69.4807 108.447C73.099 99.7113 78.4025 91.7741 85.0883 85.0883C91.7742 78.4025 99.7114 73.099 108.447 69.4807C117.182 65.8623 126.545 64 136 64L136 64Z" stroke="#F2F4F7" stroke-width="16" stroke-linecap="round" stroke-linejoin="round"/>
<path d="M136 64C148.526 64 160.835 67.2678 171.712 73.4807C182.588 79.6936 191.656 88.6365 198.019 99.4261C204.382 110.216 207.82 122.478 207.993 135.003C208.167 147.528 205.069 159.881 199.008 170.843C192.946 181.805 184.129 190.995 173.429 197.507C162.729 204.018 150.514 207.626 137.993 207.972C125.472 208.319 113.077 205.393 102.033 199.484C90.9882 193.575 81.6765 184.886 75.0174 174.277" stroke="#02965F" stroke-width="16" stroke-linecap="round" stroke-linejoin="round"/>
<path d="M100.663 109.818H102.527L105.768 117.733H105.888L109.129 109.818H110.994V120H109.532V112.632H109.437L106.435 119.985H105.222L102.219 112.627H102.124V120H100.663V109.818ZM113.108 120V112.364H114.594V120H113.108ZM113.858 111.185C113.6 111.185 113.378 111.099 113.192 110.927C113.01 110.751 112.919 110.542 112.919 110.3C112.919 110.055 113.01 109.846 113.192 109.674C113.378 109.498 113.6 109.411 113.858 109.411C114.117 109.411 114.337 109.498 114.52 109.674C114.705 109.846 114.798 110.055 114.798 110.3C114.798 110.542 114.705 110.751 114.52 110.927C114.337 111.099 114.117 111.185 113.858 111.185ZM118.081 109.818V120H116.594V109.818H118.081ZM123.372 120.154C122.619 120.154 121.971 119.993 121.428 119.672C120.887 119.347 120.47 118.891 120.175 118.305C119.883 117.715 119.737 117.024 119.737 116.232C119.737 115.449 119.883 114.76 120.175 114.163C120.47 113.567 120.881 113.101 121.408 112.766C121.938 112.432 122.558 112.264 123.267 112.264C123.698 112.264 124.116 112.335 124.52 112.478C124.924 112.621 125.287 112.844 125.609 113.149C125.93 113.454 126.184 113.85 126.369 114.337C126.555 114.821 126.648 115.41 126.648 116.102V116.629H120.578V115.516H125.191C125.191 115.125 125.112 114.778 124.953 114.477C124.793 114.172 124.57 113.931 124.281 113.756C123.996 113.58 123.662 113.492 123.277 113.492C122.859 113.492 122.495 113.595 122.183 113.8C121.875 114.003 121.636 114.268 121.467 114.596C121.302 114.921 121.219 115.274 121.219 115.655V116.525C121.219 117.035 121.308 117.469 121.487 117.827C121.67 118.185 121.923 118.459 122.248 118.648C122.573 118.833 122.952 118.926 123.386 118.926C123.668 118.926 123.925 118.886 124.157 118.807C124.389 118.724 124.59 118.601 124.759 118.439C124.928 118.277 125.057 118.076 125.146 117.837L126.553 118.091C126.441 118.505 126.238 118.868 125.947 119.18C125.658 119.488 125.296 119.728 124.858 119.901C124.424 120.07 123.928 120.154 123.372 120.154ZM134.019 114.228L132.672 114.467C132.616 114.294 132.526 114.13 132.404 113.974C132.284 113.819 132.122 113.691 131.916 113.592C131.711 113.492 131.454 113.442 131.146 113.442C130.725 113.442 130.374 113.537 130.092 113.726C129.81 113.911 129.669 114.152 129.669 114.447C129.669 114.702 129.764 114.907 129.953 115.063C130.142 115.219 130.447 115.347 130.867 115.446L132.081 115.724C132.783 115.887 133.307 116.137 133.652 116.475C133.996 116.813 134.169 117.252 134.169 117.793C134.169 118.25 134.036 118.658 133.771 119.016C133.509 119.37 133.143 119.649 132.672 119.851C132.205 120.053 131.663 120.154 131.046 120.154C130.191 120.154 129.494 119.972 128.953 119.607C128.413 119.239 128.082 118.717 127.959 118.041L129.396 117.822C129.485 118.197 129.669 118.48 129.948 118.673C130.226 118.862 130.589 118.956 131.036 118.956C131.524 118.956 131.913 118.855 132.205 118.653C132.496 118.447 132.642 118.197 132.642 117.902C132.642 117.663 132.553 117.463 132.374 117.3C132.198 117.138 131.928 117.015 131.563 116.933L130.271 116.649C129.558 116.487 129.031 116.228 128.69 115.874C128.352 115.519 128.183 115.07 128.183 114.526C128.183 114.076 128.309 113.681 128.561 113.343C128.813 113.005 129.161 112.741 129.605 112.553C130.049 112.36 130.558 112.264 131.131 112.264C131.956 112.264 132.606 112.443 133.08 112.801C133.554 113.156 133.867 113.631 134.019 114.228ZM139.368 112.364V113.557H135.196V112.364H139.368ZM136.315 110.534H137.802V117.758C137.802 118.046 137.845 118.263 137.931 118.409C138.017 118.552 138.128 118.649 138.264 118.702C138.403 118.752 138.554 118.777 138.716 118.777C138.836 118.777 138.94 118.769 139.03 118.752C139.119 118.736 139.189 118.722 139.238 118.712L139.507 119.94C139.421 119.973 139.298 120.007 139.139 120.04C138.98 120.076 138.781 120.096 138.542 120.099C138.151 120.106 137.787 120.036 137.449 119.891C137.111 119.745 136.837 119.519 136.628 119.214C136.419 118.91 136.315 118.527 136.315 118.066V110.534ZM144.147 120.154C143.431 120.154 142.806 119.99 142.272 119.662C141.739 119.334 141.324 118.875 141.029 118.285C140.734 117.695 140.587 117.005 140.587 116.217C140.587 115.424 140.734 114.732 141.029 114.138C141.324 113.545 141.739 113.085 142.272 112.756C142.806 112.428 143.431 112.264 144.147 112.264C144.862 112.264 145.487 112.428 146.021 112.756C146.554 113.085 146.969 113.545 147.264 114.138C147.559 114.732 147.706 115.424 147.706 116.217C147.706 117.005 147.559 117.695 147.264 118.285C146.969 118.875 146.554 119.334 146.021 119.662C145.487 119.99 144.862 120.154 144.147 120.154ZM144.152 118.906C144.616 118.906 145 118.784 145.305 118.538C145.61 118.293 145.835 117.967 145.981 117.559C146.13 117.151 146.205 116.702 146.205 116.212C146.205 115.724 146.13 115.277 145.981 114.869C145.835 114.458 145.61 114.129 145.305 113.88C145 113.631 144.616 113.507 144.152 113.507C143.684 113.507 143.296 113.631 142.988 113.88C142.683 114.129 142.456 114.458 142.307 114.869C142.161 115.277 142.088 115.724 142.088 116.212C142.088 116.702 142.161 117.151 142.307 117.559C142.456 117.967 142.683 118.293 142.988 118.538C143.296 118.784 143.684 118.906 144.152 118.906ZM150.852 115.466V120H149.366V112.364H150.792V113.607H150.887C151.062 113.202 151.338 112.877 151.712 112.632C152.09 112.387 152.566 112.264 153.139 112.264C153.659 112.264 154.115 112.374 154.506 112.592C154.897 112.808 155.2 113.129 155.416 113.557C155.631 113.984 155.739 114.513 155.739 115.143V120H154.253V115.322C154.253 114.768 154.108 114.336 153.82 114.024C153.532 113.709 153.136 113.552 152.632 113.552C152.287 113.552 151.981 113.626 151.712 113.776C151.447 113.925 151.236 114.143 151.081 114.432C150.928 114.717 150.852 115.062 150.852 115.466ZM161.024 120.154C160.272 120.154 159.624 119.993 159.08 119.672C158.54 119.347 158.122 118.891 157.827 118.305C157.535 117.715 157.39 117.024 157.39 116.232C157.39 115.449 157.535 114.76 157.827 114.163C158.122 113.567 158.533 113.101 159.06 112.766C159.59 112.432 160.21 112.264 160.919 112.264C161.35 112.264 161.768 112.335 162.172 112.478C162.577 112.621 162.94 112.844 163.261 113.149C163.583 113.454 163.836 113.85 164.022 114.337C164.207 114.821 164.3 115.41 164.3 116.102V116.629H158.23V115.516H162.843C162.843 115.125 162.764 114.778 162.605 114.477C162.446 114.172 162.222 113.931 161.934 113.756C161.649 113.58 161.314 113.492 160.929 113.492C160.512 113.492 160.147 113.595 159.836 113.8C159.527 114.003 159.289 114.268 159.12 114.596C158.954 114.921 158.871 115.274 158.871 115.655V116.525C158.871 117.035 158.961 117.469 159.14 117.827C159.322 118.185 159.575 118.459 159.9 118.648C160.225 118.833 160.605 118.926 161.039 118.926C161.321 118.926 161.577 118.886 161.809 118.807C162.041 118.724 162.242 118.601 162.411 118.439C162.58 118.277 162.709 118.076 162.799 117.837L164.206 118.091C164.093 118.505 163.891 118.868 163.599 119.18C163.311 119.488 162.948 119.728 162.51 119.901C162.076 120.07 161.581 120.154 161.024 120.154ZM171.672 114.228L170.324 114.467C170.268 114.294 170.179 114.13 170.056 113.974C169.937 113.819 169.774 113.691 169.569 113.592C169.363 113.492 169.106 113.442 168.798 113.442C168.377 113.442 168.026 113.537 167.744 113.726C167.463 113.911 167.322 114.152 167.322 114.447C167.322 114.702 167.416 114.907 167.605 115.063C167.794 115.219 168.099 115.347 168.52 115.446L169.733 115.724C170.436 115.887 170.959 116.137 171.304 116.475C171.649 116.813 171.821 117.252 171.821 117.793C171.821 118.25 171.688 118.658 171.423 119.016C171.161 119.37 170.795 119.649 170.324 119.851C169.857 120.053 169.315 120.154 168.699 120.154C167.844 120.154 167.146 119.972 166.606 119.607C166.065 119.239 165.734 118.717 165.611 118.041L167.048 117.822C167.138 118.197 167.322 118.48 167.6 118.673C167.878 118.862 168.241 118.956 168.689 118.956C169.176 118.956 169.565 118.855 169.857 118.653C170.149 118.447 170.295 118.197 170.295 117.902C170.295 117.663 170.205 117.463 170.026 117.3C169.851 117.138 169.58 117.015 169.216 116.933L167.923 116.649C167.211 116.487 166.684 116.228 166.342 115.874C166.004 115.519 165.835 115.07 165.835 114.526C165.835 114.076 165.961 113.681 166.213 113.343C166.465 113.005 166.813 112.741 167.257 112.553C167.701 112.36 168.21 112.264 168.783 112.264C169.609 112.264 170.258 112.443 170.732 112.801C171.206 113.156 171.519 113.631 171.672 114.228Z" fill="#475467"/>
<path d="M92.2145 157.298C90.6804 157.298 89.3168 157.036 88.1236 156.51C86.9375 155.984 86 155.253 85.3111 154.315C84.6222 153.378 84.2564 152.295 84.2138 151.066H88.2195C88.255 151.656 88.4503 152.17 88.8054 152.611C89.1605 153.044 89.6328 153.381 90.2223 153.623C90.8118 153.864 91.4723 153.985 92.2038 153.985C92.9851 153.985 93.6776 153.85 94.2812 153.58C94.8849 153.303 95.3572 152.92 95.6982 152.43C96.0391 151.94 96.206 151.375 96.1989 150.736C96.206 150.075 96.0355 149.493 95.6875 148.989C95.3395 148.484 94.8352 148.09 94.1747 147.806C93.5213 147.522 92.733 147.38 91.8097 147.38H89.8814V144.333H91.8097C92.5696 144.333 93.2337 144.202 93.8018 143.939C94.3771 143.676 94.8281 143.307 95.1548 142.831C95.4815 142.348 95.6413 141.79 95.6342 141.158C95.6413 140.54 95.5028 140.004 95.2188 139.55C94.9418 139.088 94.5476 138.729 94.0362 138.474C93.532 138.218 92.9389 138.09 92.2571 138.09C91.5895 138.09 90.9716 138.211 90.4034 138.452C89.8352 138.694 89.3771 139.038 89.0291 139.486C88.6811 139.926 88.4964 140.452 88.4751 141.062H84.6719C84.7003 139.841 85.0518 138.768 85.7266 137.845C86.4084 136.915 87.3175 136.19 88.4538 135.672C89.5902 135.146 90.8651 134.884 92.2784 134.884C93.7344 134.884 94.9986 135.157 96.071 135.704C97.1506 136.244 97.9851 136.972 98.5746 137.888C99.1641 138.804 99.4588 139.816 99.4588 140.924C99.4659 142.153 99.1037 143.183 98.3722 144.013C97.6477 144.844 96.696 145.388 95.517 145.643V145.814C97.0511 146.027 98.2266 146.595 99.0433 147.518C99.8672 148.435 100.276 149.575 100.268 150.938C100.268 152.16 99.9205 153.254 99.2244 154.219C98.5355 155.178 97.5838 155.931 96.3693 156.478C95.1619 157.025 93.777 157.298 92.2145 157.298ZM107.851 154.017L107.713 155.189C107.613 156.084 107.436 156.993 107.18 157.916C106.931 158.847 106.669 159.702 106.392 160.484C106.115 161.265 105.891 161.879 105.72 162.327H103.121C103.22 161.893 103.355 161.304 103.526 160.558C103.703 159.813 103.874 158.974 104.037 158.044C104.2 157.114 104.311 156.169 104.367 155.21L104.442 154.017H107.851ZM119.343 157.415C117.589 157.415 116.083 156.972 114.826 156.084C113.576 155.189 112.614 153.9 111.939 152.217C111.272 150.526 110.938 148.491 110.938 146.112C110.945 143.733 111.282 141.709 111.95 140.04C112.625 138.364 113.587 137.085 114.837 136.205C116.094 135.324 117.596 134.884 119.343 134.884C121.091 134.884 122.593 135.324 123.85 136.205C125.107 137.085 126.069 138.364 126.737 140.04C127.412 141.716 127.749 143.74 127.749 146.112C127.749 148.499 127.412 150.537 126.737 152.227C126.069 153.911 125.107 155.196 123.85 156.084C122.6 156.972 121.098 157.415 119.343 157.415ZM119.343 154.081C120.707 154.081 121.783 153.41 122.571 152.067C123.367 150.718 123.765 148.733 123.765 146.112C123.765 144.379 123.583 142.923 123.221 141.744C122.859 140.565 122.348 139.678 121.687 139.081C121.027 138.477 120.245 138.175 119.343 138.175C117.987 138.175 116.914 138.85 116.126 140.2C115.338 141.542 114.94 143.513 114.933 146.112C114.926 147.852 115.1 149.315 115.455 150.501C115.817 151.687 116.328 152.582 116.989 153.186C117.65 153.783 118.434 154.081 119.343 154.081ZM139.353 157.415C137.599 157.415 136.093 156.972 134.836 156.084C133.586 155.189 132.624 153.9 131.949 152.217C131.281 150.526 130.948 148.491 130.948 146.112C130.955 143.733 131.292 141.709 131.96 140.04C132.634 138.364 133.597 137.085 134.847 136.205C136.104 135.324 137.606 134.884 139.353 134.884C141.1 134.884 142.602 135.324 143.86 136.205C145.117 137.085 146.079 138.364 146.747 140.04C147.421 141.716 147.759 143.74 147.759 146.112C147.759 148.499 147.421 150.537 146.747 152.227C146.079 153.911 145.117 155.196 143.86 156.084C142.61 156.972 141.107 157.415 139.353 157.415ZM139.353 154.081C140.717 154.081 141.793 153.41 142.581 152.067C143.377 150.718 143.774 148.733 143.774 146.112C143.774 144.379 143.593 142.923 143.231 141.744C142.869 140.565 142.357 139.678 141.697 139.081C141.036 138.477 140.255 138.175 139.353 138.175C137.997 138.175 136.924 138.85 136.136 140.2C135.347 141.542 134.95 143.513 134.943 146.112C134.936 147.852 135.11 149.315 135.465 150.501C135.827 151.687 136.338 152.582 136.999 153.186C137.659 153.783 138.444 154.081 139.353 154.081ZM159.363 157.415C157.609 157.415 156.103 156.972 154.846 156.084C153.596 155.189 152.634 153.9 151.959 152.217C151.291 150.526 150.957 148.491 150.957 146.112C150.964 143.733 151.302 141.709 151.969 140.04C152.644 138.364 153.607 137.085 154.857 136.205C156.114 135.324 157.616 134.884 159.363 134.884C161.11 134.884 162.612 135.324 163.869 136.205C165.126 137.085 166.089 138.364 166.756 140.04C167.431 141.716 167.768 143.74 167.768 146.112C167.768 148.499 167.431 150.537 166.756 152.227C166.089 153.911 165.126 155.196 163.869 156.084C162.619 156.972 161.117 157.415 159.363 157.415ZM159.363 154.081C160.727 154.081 161.803 153.41 162.591 152.067C163.386 150.718 163.784 148.733 163.784 146.112C163.784 144.379 163.603 142.923 163.241 141.744C162.879 140.565 162.367 139.678 161.707 139.081C161.046 138.477 160.265 138.175 159.363 138.175C158.006 138.175 156.934 138.85 156.146 140.2C155.357 141.542 154.96 143.513 154.952 146.112C154.945 147.852 155.119 149.315 155.474 150.501C155.837 151.687 156.348 152.582 157.009 153.186C157.669 153.783 158.454 154.081 159.363 154.081ZM177.785 153.506V138.761H181.131V153.506H177.785ZM172.086 147.806V144.461H186.83V147.806H172.086Z" fill="#101828"/>
</g>
<defs>
<filter id="filter0_b_1_7204" x="-8" y="-8" width="288" height="288" filterUnits="userSpaceOnUse" color-interpolation-filters="sRGB">
<feFlood flood-opacity="0" result="BackgroundImageFix"/>
<feGaussianBlur in="BackgroundImageFix" stdDeviation="4"/>
<feComposite in2="SourceAlpha" operator="in" result="effect1_backgroundBlur_1_7204"/>
<feBlend mode="normal" in="SourceGraphic" in2="effect1_backgroundBlur_1_7204" result="shape"/>
</filter>
</defs>
</svg>
