<svg width="872" height="532" viewBox="0 0 872 532" fill="none" xmlns="http://www.w3.org/2000/svg">
<g filter="url(#filter0_d_1_7201)">
<rect x="36" y="12" width="800" height="460" rx="12" fill="white"/>
<path d="M73.7273 65H69.2912V51.9091H73.8168C75.1165 51.9091 76.233 52.1712 77.1662 52.6953C78.1037 53.2152 78.8239 53.9631 79.3267 54.9389C79.8295 55.9148 80.081 57.0824 80.081 58.4418C80.081 59.8054 79.8274 60.9773 79.3203 61.9574C78.8175 62.9375 78.0909 63.6896 77.1406 64.2138C76.1946 64.7379 75.0568 65 73.7273 65ZM71.6626 62.9482H73.6122C74.5241 62.9482 75.2848 62.782 75.8942 62.4496C76.5036 62.1129 76.9616 61.6122 77.2685 60.9474C77.5753 60.2784 77.7287 59.4432 77.7287 58.4418C77.7287 57.4403 77.5753 56.6094 77.2685 55.9489C76.9616 55.2841 76.5078 54.7876 75.907 54.4595C75.3104 54.1271 74.5689 53.9609 73.6825 53.9609H71.6626V62.9482ZM86.5146 65.1918C85.5558 65.1918 84.7248 64.9808 84.0217 64.5589C83.3185 64.1371 82.7731 63.5469 82.3853 62.7884C82.0018 62.0298 81.81 61.1435 81.81 60.1293C81.81 59.1151 82.0018 58.2266 82.3853 57.4638C82.7731 56.701 83.3185 56.1087 84.0217 55.6868C84.7248 55.2649 85.5558 55.054 86.5146 55.054C87.4734 55.054 88.3043 55.2649 89.0075 55.6868C89.7106 56.1087 90.2539 56.701 90.6374 57.4638C91.0252 58.2266 91.2191 59.1151 91.2191 60.1293C91.2191 61.1435 91.0252 62.0298 90.6374 62.7884C90.2539 63.5469 89.7106 64.1371 89.0075 64.5589C88.3043 64.9808 87.4734 65.1918 86.5146 65.1918ZM86.5273 63.3381C87.0472 63.3381 87.4819 63.1953 87.8313 62.9098C88.1808 62.62 88.4407 62.2322 88.6112 61.7464C88.7859 61.2607 88.8732 60.7195 88.8732 60.1229C88.8732 59.522 88.7859 58.9787 88.6112 58.4929C88.4407 58.0028 88.1808 57.6129 87.8313 57.3232C87.4819 57.0334 87.0472 56.8885 86.5273 56.8885C85.9947 56.8885 85.5515 57.0334 85.1978 57.3232C84.8484 57.6129 84.5863 58.0028 84.4116 58.4929C84.2411 58.9787 84.1559 59.522 84.1559 60.1229C84.1559 60.7195 84.2411 61.2607 84.4116 61.7464C84.5863 62.2322 84.8484 62.62 85.1978 62.9098C85.5515 63.1953 85.9947 63.3381 86.5273 63.3381ZM95.497 59.2472V65H93.1831V55.1818H95.3947V56.8501H95.5098C95.7356 56.3004 96.0957 55.8636 96.59 55.5398C97.0886 55.2159 97.7044 55.054 98.4373 55.054C99.1149 55.054 99.7051 55.1989 100.208 55.4886C100.715 55.7784 101.107 56.1982 101.384 56.7479C101.665 57.2976 101.804 57.9645 101.8 58.7486V65H99.4856V59.1065C99.4856 58.4503 99.3152 57.9368 98.9743 57.5661C98.6376 57.1953 98.171 57.0099 97.5744 57.0099C97.1696 57.0099 96.8095 57.0994 96.4941 57.2784C96.1831 57.4531 95.938 57.7067 95.7591 58.0391C95.5843 58.3714 95.497 58.7741 95.497 59.2472ZM106.977 65.1982C106.355 65.1982 105.795 65.0874 105.296 64.8658C104.802 64.6399 104.41 64.3075 104.12 63.8686C103.834 63.4297 103.692 62.8885 103.692 62.245C103.692 61.6911 103.794 61.233 103.998 60.8707C104.203 60.5085 104.482 60.2188 104.836 60.0014C105.189 59.7841 105.588 59.62 106.031 59.5092C106.479 59.3942 106.941 59.3111 107.418 59.2599C107.993 59.2003 108.46 59.147 108.818 59.1001C109.176 59.049 109.436 58.9723 109.598 58.87C109.764 58.7635 109.847 58.5994 109.847 58.3778V58.3395C109.847 57.858 109.704 57.4851 109.419 57.2209C109.133 56.9567 108.722 56.8246 108.185 56.8246C107.618 56.8246 107.169 56.9482 106.836 57.1953C106.508 57.4425 106.287 57.7344 106.172 58.071L104.011 57.7642C104.182 57.1676 104.463 56.669 104.855 56.2685C105.247 55.8636 105.726 55.5611 106.293 55.3608C106.86 55.1562 107.486 55.054 108.172 55.054C108.645 55.054 109.116 55.1094 109.585 55.2202C110.054 55.331 110.482 55.5142 110.87 55.7699C111.258 56.0213 111.569 56.3643 111.803 56.799C112.042 57.2337 112.161 57.777 112.161 58.429V65H109.937V63.6513H109.86C109.719 63.924 109.521 64.1797 109.265 64.4183C109.014 64.6527 108.697 64.8423 108.313 64.9872C107.934 65.1278 107.488 65.1982 106.977 65.1982ZM107.578 63.4979C108.042 63.4979 108.445 63.4062 108.786 63.223C109.127 63.0355 109.389 62.7884 109.572 62.4815C109.76 62.1747 109.854 61.8402 109.854 61.478V60.321C109.781 60.3807 109.657 60.4361 109.483 60.4872C109.312 60.5384 109.121 60.5831 108.907 60.6214C108.694 60.6598 108.483 60.6939 108.275 60.7237C108.066 60.7536 107.885 60.7791 107.731 60.8004C107.386 60.8473 107.077 60.924 106.805 61.0305C106.532 61.1371 106.317 61.2862 106.159 61.478C106.001 61.6655 105.922 61.9084 105.922 62.2067C105.922 62.6328 106.078 62.9545 106.389 63.1719C106.7 63.3892 107.096 63.4979 107.578 63.4979ZM119.39 55.1818V56.9716H113.746V55.1818H119.39ZM115.14 52.8295H117.454V62.0469C117.454 62.358 117.501 62.5966 117.594 62.7628C117.692 62.9247 117.82 63.0355 117.978 63.0952C118.135 63.1548 118.31 63.1847 118.502 63.1847C118.647 63.1847 118.779 63.174 118.898 63.1527C119.022 63.1314 119.116 63.1122 119.18 63.0952L119.569 64.9041C119.446 64.9467 119.269 64.9936 119.039 65.0447C118.813 65.0959 118.536 65.1257 118.208 65.1342C117.628 65.1513 117.106 65.0639 116.642 64.8722C116.177 64.6761 115.809 64.3736 115.536 63.9645C115.268 63.5554 115.135 63.044 115.14 62.4304V52.8295ZM121.326 65V55.1818H123.64V65H121.326ZM122.489 53.7884C122.123 53.7884 121.807 53.6669 121.543 53.424C121.279 53.1768 121.147 52.8807 121.147 52.5355C121.147 52.1861 121.279 51.8899 121.543 51.647C121.807 51.3999 122.123 51.2763 122.489 51.2763C122.86 51.2763 123.175 51.3999 123.435 51.647C123.699 51.8899 123.831 52.1861 123.831 52.5355C123.831 52.8807 123.699 53.1768 123.435 53.424C123.175 53.6669 122.86 53.7884 122.489 53.7884ZM130.302 65.1918C129.343 65.1918 128.512 64.9808 127.809 64.5589C127.106 64.1371 126.56 63.5469 126.172 62.7884C125.789 62.0298 125.597 61.1435 125.597 60.1293C125.597 59.1151 125.789 58.2266 126.172 57.4638C126.56 56.701 127.106 56.1087 127.809 55.6868C128.512 55.2649 129.343 55.054 130.302 55.054C131.26 55.054 132.091 55.2649 132.795 55.6868C133.498 56.1087 134.041 56.701 134.425 57.4638C134.812 58.2266 135.006 59.1151 135.006 60.1293C135.006 61.1435 134.812 62.0298 134.425 62.7884C134.041 63.5469 133.498 64.1371 132.795 64.5589C132.091 64.9808 131.26 65.1918 130.302 65.1918ZM130.314 63.3381C130.834 63.3381 131.269 63.1953 131.618 62.9098C131.968 62.62 132.228 62.2322 132.398 61.7464C132.573 61.2607 132.66 60.7195 132.66 60.1229C132.66 59.522 132.573 58.9787 132.398 58.4929C132.228 58.0028 131.968 57.6129 131.618 57.3232C131.269 57.0334 130.834 56.8885 130.314 56.8885C129.782 56.8885 129.339 57.0334 128.985 57.3232C128.635 57.6129 128.373 58.0028 128.199 58.4929C128.028 58.9787 127.943 59.522 127.943 60.1229C127.943 60.7195 128.028 61.2607 128.199 61.7464C128.373 62.2322 128.635 62.62 128.985 62.9098C129.339 63.1953 129.782 63.3381 130.314 63.3381ZM139.284 59.2472V65H136.97V55.1818H139.182V56.8501H139.297C139.523 56.3004 139.883 55.8636 140.377 55.5398C140.876 55.2159 141.491 55.054 142.224 55.054C142.902 55.054 143.492 55.1989 143.995 55.4886C144.502 55.7784 144.894 56.1982 145.171 56.7479C145.452 57.2976 145.591 57.9645 145.587 58.7486V65H143.273V59.1065C143.273 58.4503 143.102 57.9368 142.761 57.5661C142.425 57.1953 141.958 57.0099 141.362 57.0099C140.957 57.0099 140.597 57.0994 140.281 57.2784C139.97 57.4531 139.725 57.7067 139.546 58.0391C139.371 58.3714 139.284 58.7741 139.284 59.2472ZM155.699 57.777L153.589 58.0071C153.53 57.794 153.425 57.5938 153.276 57.4062C153.131 57.2188 152.935 57.0675 152.688 56.9524C152.441 56.8374 152.138 56.7798 151.781 56.7798C151.299 56.7798 150.894 56.8842 150.566 57.093C150.242 57.3018 150.082 57.5724 150.087 57.9048C150.082 58.1903 150.187 58.4226 150.4 58.6016C150.617 58.7805 150.975 58.9276 151.474 59.0426L153.148 59.4006C154.077 59.6009 154.768 59.9183 155.219 60.353C155.675 60.7876 155.906 61.3565 155.91 62.0597C155.906 62.6776 155.724 63.223 155.366 63.696C155.013 64.1648 154.521 64.5312 153.89 64.7955C153.259 65.0597 152.535 65.1918 151.717 65.1918C150.515 65.1918 149.548 64.9403 148.815 64.4375C148.082 63.9304 147.645 63.2251 147.504 62.3217L149.761 62.1044C149.863 62.5476 150.08 62.8821 150.413 63.108C150.745 63.3338 151.178 63.4467 151.71 63.4467C152.26 63.4467 152.701 63.3338 153.033 63.108C153.37 62.8821 153.538 62.603 153.538 62.2706C153.538 61.9893 153.43 61.7571 153.212 61.5739C152.999 61.3906 152.667 61.25 152.215 61.152L150.54 60.8004C149.599 60.6044 148.902 60.2741 148.45 59.8097C147.999 59.3409 147.775 58.7486 147.779 58.0327C147.775 57.4276 147.939 56.9034 148.271 56.4602C148.608 56.0128 149.075 55.6676 149.671 55.4247C150.272 55.1776 150.964 55.054 151.749 55.054C152.899 55.054 153.805 55.299 154.465 55.7891C155.13 56.2791 155.541 56.9418 155.699 57.777ZM174.082 58.4545C174.082 59.8651 173.818 61.0732 173.29 62.0788C172.766 63.0803 172.05 63.8473 171.142 64.38C170.239 64.9126 169.214 65.179 168.067 65.179C166.921 65.179 165.894 64.9126 164.987 64.38C164.083 63.843 163.367 63.0739 162.839 62.0724C162.315 61.0668 162.053 59.8608 162.053 58.4545C162.053 57.044 162.315 55.8381 162.839 54.8366C163.367 53.831 164.083 53.0618 164.987 52.5291C165.894 51.9964 166.921 51.7301 168.067 51.7301C169.214 51.7301 170.239 51.9964 171.142 52.5291C172.05 53.0618 172.766 53.831 173.29 54.8366C173.818 55.8381 174.082 57.044 174.082 58.4545ZM171.698 58.4545C171.698 57.4616 171.543 56.6243 171.232 55.9425C170.925 55.2564 170.499 54.7386 169.953 54.3892C169.408 54.0355 168.779 53.8587 168.067 53.8587C167.356 53.8587 166.727 54.0355 166.182 54.3892C165.636 54.7386 165.208 55.2564 164.897 55.9425C164.59 56.6243 164.437 57.4616 164.437 58.4545C164.437 59.4474 164.59 60.2869 164.897 60.973C165.208 61.6548 165.636 62.1726 166.182 62.5263C166.727 62.8757 167.356 63.0504 168.067 63.0504C168.779 63.0504 169.408 62.8757 169.953 62.5263C170.499 62.1726 170.925 61.6548 171.232 60.973C171.543 60.2869 171.698 59.4474 171.698 58.4545ZM184.992 55.1818L181.496 65H178.939L175.442 55.1818H177.91L180.166 62.4751H180.268L182.531 55.1818H184.992ZM190.606 65.1918C189.621 65.1918 188.771 64.9872 188.055 64.5781C187.344 64.1648 186.796 63.581 186.413 62.8267C186.029 62.0682 185.837 61.1754 185.837 60.1484C185.837 59.1385 186.029 58.2521 186.413 57.4893C186.8 56.7223 187.342 56.1257 188.036 55.6996C188.731 55.2692 189.547 55.054 190.484 55.054C191.089 55.054 191.661 55.152 192.197 55.348C192.739 55.5398 193.216 55.8381 193.629 56.2429C194.047 56.6477 194.375 57.1634 194.614 57.7898C194.852 58.4119 194.972 59.1534 194.972 60.0142V60.7237H186.924V59.1641H192.754C192.749 58.7209 192.653 58.3267 192.466 57.9815C192.278 57.6321 192.016 57.3572 191.68 57.157C191.347 56.9567 190.96 56.8565 190.516 56.8565C190.043 56.8565 189.628 56.9716 189.27 57.2017C188.912 57.4276 188.633 57.7259 188.433 58.0966C188.237 58.4631 188.136 58.8658 188.132 59.3047V60.6662C188.132 61.2372 188.237 61.7273 188.445 62.1364C188.654 62.5412 188.946 62.8523 189.321 63.0696C189.696 63.2827 190.135 63.3892 190.638 63.3892C190.974 63.3892 191.279 63.3423 191.552 63.2486C191.825 63.1506 192.061 63.0078 192.261 62.8203C192.462 62.6328 192.613 62.4006 192.715 62.1236L194.876 62.3665C194.739 62.9375 194.479 63.4361 194.096 63.8622C193.717 64.2841 193.231 64.6122 192.638 64.8466C192.046 65.0767 191.369 65.1918 190.606 65.1918ZM196.929 65V55.1818H199.173V56.8182H199.275C199.454 56.2514 199.761 55.8146 200.195 55.5078C200.634 55.1967 201.135 55.0412 201.698 55.0412C201.825 55.0412 201.968 55.0476 202.126 55.0604C202.288 55.0689 202.422 55.0838 202.529 55.1051V57.2337C202.431 57.1996 202.275 57.1697 202.062 57.1442C201.853 57.1143 201.651 57.0994 201.455 57.0994C201.033 57.0994 200.654 57.1911 200.317 57.3743C199.985 57.5533 199.722 57.8026 199.531 58.1222C199.339 58.4418 199.243 58.8104 199.243 59.228V65H196.929ZM208.058 53.897V51.9091H218.502V53.897H214.456V65H212.104V53.897H208.058ZM220.414 65V55.1818H222.727V65H220.414ZM221.577 53.7884C221.21 53.7884 220.895 53.6669 220.631 53.424C220.367 53.1768 220.235 52.8807 220.235 52.5355C220.235 52.1861 220.367 51.8899 220.631 51.647C220.895 51.3999 221.21 51.2763 221.577 51.2763C221.948 51.2763 222.263 51.3999 222.523 51.647C222.787 51.8899 222.919 52.1861 222.919 52.5355C222.919 52.8807 222.787 53.1768 222.523 53.424C222.263 53.6669 221.948 53.7884 221.577 53.7884ZM225.107 65V55.1818H227.319V56.8501H227.434C227.638 56.2876 227.977 55.8487 228.45 55.5334C228.923 55.2138 229.488 55.054 230.144 55.054C230.809 55.054 231.369 55.2159 231.825 55.5398C232.285 55.8594 232.609 56.2962 232.797 56.8501H232.899C233.116 56.3047 233.483 55.87 233.998 55.5462C234.518 55.218 235.134 55.054 235.846 55.054C236.749 55.054 237.486 55.3395 238.057 55.9105C238.628 56.4815 238.914 57.3146 238.914 58.4098V65H236.593V58.7678C236.593 58.1584 236.431 57.7131 236.108 57.4318C235.784 57.1463 235.387 57.0036 234.919 57.0036C234.36 57.0036 233.924 57.1783 233.608 57.5277C233.297 57.8729 233.142 58.3224 233.142 58.8764V65H230.873V58.6719C230.873 58.1648 230.719 57.7599 230.412 57.4574C230.11 57.1548 229.713 57.0036 229.223 57.0036C228.891 57.0036 228.588 57.0888 228.316 57.2592C228.043 57.4254 227.826 57.6619 227.664 57.9688C227.502 58.2713 227.421 58.625 227.421 59.0298V65H225.107ZM245.608 65.1918C244.623 65.1918 243.773 64.9872 243.057 64.5781C242.346 64.1648 241.798 63.581 241.415 62.8267C241.031 62.0682 240.839 61.1754 240.839 60.1484C240.839 59.1385 241.031 58.2521 241.415 57.4893C241.802 56.7223 242.344 56.1257 243.038 55.6996C243.733 55.2692 244.549 55.054 245.486 55.054C246.091 55.054 246.662 55.152 247.199 55.348C247.741 55.5398 248.218 55.8381 248.631 56.2429C249.049 56.6477 249.377 57.1634 249.616 57.7898C249.854 58.4119 249.974 59.1534 249.974 60.0142V60.7237H241.926V59.1641H247.756C247.751 58.7209 247.655 58.3267 247.468 57.9815C247.28 57.6321 247.018 57.3572 246.682 57.157C246.349 56.9567 245.961 56.8565 245.518 56.8565C245.045 56.8565 244.63 56.9716 244.272 57.2017C243.914 57.4276 243.635 57.7259 243.434 58.0966C243.238 58.4631 243.138 58.8658 243.134 59.3047V60.6662C243.134 61.2372 243.238 61.7273 243.447 62.1364C243.656 62.5412 243.948 62.8523 244.323 63.0696C244.698 63.2827 245.137 63.3892 245.64 63.3892C245.976 63.3892 246.281 63.3423 246.554 63.2486C246.827 63.1506 247.063 63.0078 247.263 62.8203C247.464 62.6328 247.615 62.4006 247.717 62.1236L249.878 62.3665C249.741 62.9375 249.481 63.4361 249.098 63.8622C248.719 64.2841 248.233 64.6122 247.64 64.8466C247.048 65.0767 246.371 65.1918 245.608 65.1918Z" fill="#101828"/>
<line x1="68.5" y1="82.5" x2="803.5" y2="82.5" stroke="#F2F4F7" stroke-linecap="round"/>
<line x1="68.5" y1="150.6" x2="803.5" y2="150.6" stroke="#F2F4F7" stroke-linecap="round"/>
<line x1="68.5" y1="216.2" x2="803.5" y2="216.2" stroke="#F2F4F7" stroke-linecap="round"/>
<line x1="68.5" y1="281.8" x2="803.5" y2="281.8" stroke="#F2F4F7" stroke-linecap="round"/>
<line x1="68.5" y1="347.4" x2="803.5" y2="347.4" stroke="#F2F4F7" stroke-linecap="round"/>
<line x1="68.5" y1="413" x2="803.5" y2="413" stroke="#F2F4F7" stroke-linecap="round"/>
<path d="M96.7493 426.273H97.8061V432.511C97.8061 433.068 97.7038 433.541 97.4993 433.93C97.2947 434.32 97.0064 434.615 96.6342 434.817C96.2621 435.018 95.8232 435.119 95.3175 435.119C94.8402 435.119 94.4155 435.033 94.0433 434.859C93.6712 434.683 93.3786 434.433 93.1655 434.109C92.9524 433.786 92.8459 433.401 92.8459 432.955H93.8857C93.8857 433.202 93.9467 433.418 94.0689 433.602C94.1939 433.784 94.3643 433.926 94.5803 434.028C94.7962 434.131 95.0419 434.182 95.3175 434.182C95.6214 434.182 95.88 434.118 96.093 433.99C96.3061 433.862 96.468 433.675 96.5788 433.428C96.6925 433.178 96.7493 432.872 96.7493 432.511V426.273ZM101.714 435.153C101.299 435.153 100.923 435.075 100.585 434.919C100.246 434.76 99.978 434.531 99.7791 434.233C99.5803 433.932 99.4808 433.568 99.4808 433.142C99.4808 432.767 99.5547 432.463 99.7024 432.23C99.8501 431.994 100.048 431.81 100.295 431.676C100.542 431.543 100.815 431.443 101.113 431.378C101.414 431.31 101.717 431.256 102.021 431.216C102.418 431.165 102.741 431.126 102.988 431.101C103.238 431.072 103.42 431.026 103.533 430.96C103.65 430.895 103.708 430.781 103.708 430.619V430.585C103.708 430.165 103.593 429.838 103.363 429.605C103.136 429.372 102.79 429.256 102.327 429.256C101.847 429.256 101.471 429.361 101.198 429.571C100.925 429.781 100.734 430.006 100.623 430.244L99.6683 429.903C99.8388 429.506 100.066 429.196 100.35 428.974C100.637 428.75 100.95 428.594 101.288 428.506C101.629 428.415 101.964 428.369 102.293 428.369C102.504 428.369 102.745 428.395 103.018 428.446C103.293 428.494 103.559 428.595 103.815 428.749C104.073 428.902 104.288 429.134 104.458 429.443C104.629 429.753 104.714 430.168 104.714 430.688V435H103.708V434.114H103.657C103.589 434.256 103.475 434.408 103.316 434.57C103.157 434.732 102.945 434.869 102.681 434.983C102.417 435.097 102.094 435.153 101.714 435.153ZM101.867 434.25C102.265 434.25 102.6 434.172 102.873 434.016C103.148 433.859 103.356 433.658 103.495 433.411C103.637 433.163 103.708 432.903 103.708 432.631V431.71C103.665 431.761 103.572 431.808 103.427 431.851C103.285 431.891 103.12 431.926 102.933 431.957C102.748 431.986 102.567 432.011 102.391 432.034C102.218 432.054 102.077 432.071 101.969 432.085C101.708 432.119 101.464 432.175 101.237 432.251C101.012 432.325 100.83 432.437 100.691 432.588C100.555 432.736 100.487 432.937 100.487 433.193C100.487 433.543 100.616 433.807 100.874 433.986C101.136 434.162 101.467 434.25 101.867 434.25ZM107.555 431.062V435H106.549V428.455H107.521V429.477H107.606C107.76 429.145 107.993 428.878 108.305 428.676C108.618 428.472 109.021 428.369 109.515 428.369C109.958 428.369 110.346 428.46 110.679 428.642C111.011 428.821 111.27 429.094 111.454 429.46C111.639 429.824 111.731 430.284 111.731 430.841V435H110.725V430.909C110.725 430.395 110.592 429.994 110.325 429.707C110.058 429.418 109.691 429.273 109.225 429.273C108.904 429.273 108.618 429.342 108.365 429.482C108.115 429.621 107.917 429.824 107.772 430.091C107.627 430.358 107.555 430.682 107.555 431.062Z" fill="#475467"/>
<path d="M153.148 435V426.273H158.381V427.21H154.205V430.159H157.989V431.097H154.205V435H153.148ZM162.318 435.136C161.688 435.136 161.143 434.997 160.686 434.719C160.232 434.438 159.881 434.045 159.634 433.543C159.389 433.037 159.267 432.449 159.267 431.778C159.267 431.108 159.389 430.517 159.634 430.006C159.881 429.491 160.224 429.091 160.665 428.804C161.108 428.514 161.625 428.369 162.216 428.369C162.557 428.369 162.893 428.426 163.226 428.54C163.558 428.653 163.861 428.838 164.134 429.094C164.406 429.347 164.624 429.682 164.786 430.099C164.947 430.517 165.028 431.031 165.028 431.642V432.068H159.983V431.199H164.006C164.006 430.83 163.932 430.5 163.784 430.21C163.639 429.92 163.432 429.692 163.162 429.524C162.895 429.357 162.58 429.273 162.216 429.273C161.815 429.273 161.469 429.372 161.176 429.571C160.886 429.767 160.663 430.023 160.507 430.338C160.351 430.653 160.273 430.991 160.273 431.352V431.932C160.273 432.426 160.358 432.845 160.528 433.189C160.702 433.53 160.942 433.79 161.249 433.969C161.555 434.145 161.912 434.233 162.318 434.233C162.582 434.233 162.821 434.196 163.034 434.122C163.25 434.045 163.436 433.932 163.592 433.781C163.749 433.628 163.869 433.437 163.955 433.21L164.926 433.483C164.824 433.812 164.652 434.102 164.411 434.352C164.169 434.599 163.871 434.793 163.516 434.932C163.161 435.068 162.761 435.136 162.318 435.136ZM166.695 435V426.273H167.7V429.494H167.786C167.859 429.381 167.962 429.236 168.092 429.06C168.226 428.881 168.416 428.722 168.663 428.582C168.913 428.44 169.251 428.369 169.678 428.369C170.229 428.369 170.715 428.507 171.135 428.783C171.555 429.058 171.884 429.449 172.119 429.955C172.355 430.46 172.473 431.057 172.473 431.744C172.473 432.438 172.355 433.038 172.119 433.547C171.884 434.053 171.557 434.445 171.139 434.723C170.722 434.999 170.24 435.136 169.695 435.136C169.274 435.136 168.938 435.067 168.685 434.928C168.432 434.786 168.237 434.625 168.101 434.446C167.965 434.264 167.859 434.114 167.786 433.994H167.666V435H166.695ZM167.683 431.727C167.683 432.222 167.756 432.658 167.901 433.036C168.045 433.411 168.257 433.705 168.536 433.918C168.814 434.128 169.155 434.233 169.558 434.233C169.979 434.233 170.33 434.122 170.611 433.901C170.895 433.676 171.108 433.375 171.25 432.997C171.395 432.616 171.467 432.193 171.467 431.727C171.467 431.267 171.396 430.852 171.254 430.483C171.115 430.111 170.903 429.817 170.619 429.601C170.338 429.382 169.984 429.273 169.558 429.273C169.149 429.273 168.805 429.376 168.527 429.584C168.249 429.788 168.038 430.075 167.896 430.445C167.754 430.811 167.683 431.239 167.683 431.727Z" fill="#475467"/>
<path d="M213.288 426.273H214.549L217.515 433.517H217.617L220.583 426.273H221.844V435H220.856V428.369H220.77L218.043 435H217.089L214.361 428.369H214.276V435H213.288V426.273ZM225.753 435.153C225.338 435.153 224.962 435.075 224.624 434.919C224.286 434.76 224.017 434.531 223.818 434.233C223.62 433.932 223.52 433.568 223.52 433.142C223.52 432.767 223.594 432.463 223.742 432.23C223.889 431.994 224.087 431.81 224.334 431.676C224.581 431.543 224.854 431.443 225.152 431.378C225.453 431.31 225.756 431.256 226.06 431.216C226.458 431.165 226.78 431.126 227.027 431.101C227.277 431.072 227.459 431.026 227.573 430.96C227.689 430.895 227.747 430.781 227.747 430.619V430.585C227.747 430.165 227.632 429.838 227.402 429.605C227.175 429.372 226.83 429.256 226.367 429.256C225.887 429.256 225.51 429.361 225.237 429.571C224.965 429.781 224.773 430.006 224.662 430.244L223.708 429.903C223.878 429.506 224.105 429.196 224.389 428.974C224.676 428.75 224.989 428.594 225.327 428.506C225.668 428.415 226.003 428.369 226.333 428.369C226.543 428.369 226.784 428.395 227.057 428.446C227.333 428.494 227.598 428.595 227.854 428.749C228.112 428.902 228.327 429.134 228.497 429.443C228.668 429.753 228.753 430.168 228.753 430.688V435H227.747V434.114H227.696C227.628 434.256 227.514 434.408 227.355 434.57C227.196 434.732 226.985 434.869 226.72 434.983C226.456 435.097 226.134 435.153 225.753 435.153ZM225.906 434.25C226.304 434.25 226.639 434.172 226.912 434.016C227.188 433.859 227.395 433.658 227.534 433.411C227.676 433.163 227.747 432.903 227.747 432.631V431.71C227.705 431.761 227.611 431.808 227.466 431.851C227.324 431.891 227.159 431.926 226.972 431.957C226.787 431.986 226.607 432.011 226.431 432.034C226.257 432.054 226.117 432.071 226.009 432.085C225.747 432.119 225.503 432.175 225.276 432.251C225.051 432.325 224.87 432.437 224.73 432.588C224.594 432.736 224.526 432.937 224.526 433.193C224.526 433.543 224.655 433.807 224.914 433.986C225.175 434.162 225.506 434.25 225.906 434.25ZM230.589 435V428.455H231.56V429.443H231.628C231.748 429.119 231.964 428.857 232.276 428.655C232.589 428.453 232.941 428.352 233.333 428.352C233.407 428.352 233.499 428.354 233.61 428.357C233.721 428.359 233.805 428.364 233.861 428.369V429.392C233.827 429.384 233.749 429.371 233.627 429.354C233.508 429.334 233.381 429.324 233.248 429.324C232.93 429.324 232.645 429.391 232.395 429.524C232.148 429.655 231.952 429.837 231.807 430.07C231.665 430.3 231.594 430.562 231.594 430.858V435H230.589Z" fill="#475467"/>
<path d="M274.744 435H273.636L276.841 426.273H277.932L281.136 435H280.028L277.42 427.653H277.352L274.744 435ZM275.153 431.591H279.619V432.528H275.153V431.591ZM282.359 437.455V428.455H283.331V429.494H283.45C283.524 429.381 283.626 429.236 283.757 429.06C283.89 428.881 284.081 428.722 284.328 428.582C284.578 428.44 284.916 428.369 285.342 428.369C285.893 428.369 286.379 428.507 286.8 428.783C287.22 429.058 287.548 429.449 287.784 429.955C288.02 430.46 288.138 431.057 288.138 431.744C288.138 432.438 288.02 433.038 287.784 433.547C287.548 434.053 287.221 434.445 286.804 434.723C286.386 434.999 285.905 435.136 285.359 435.136C284.939 435.136 284.602 435.067 284.349 434.928C284.096 434.786 283.902 434.625 283.765 434.446C283.629 434.264 283.524 434.114 283.45 433.994H283.365V437.455H282.359ZM283.348 431.727C283.348 432.222 283.42 432.658 283.565 433.036C283.71 433.411 283.922 433.705 284.2 433.918C284.478 434.128 284.819 434.233 285.223 434.233C285.643 434.233 285.994 434.122 286.275 433.901C286.559 433.676 286.773 433.375 286.915 432.997C287.059 432.616 287.132 432.193 287.132 431.727C287.132 431.267 287.061 430.852 286.919 430.483C286.78 430.111 286.568 429.817 286.284 429.601C286.003 429.382 285.649 429.273 285.223 429.273C284.814 429.273 284.47 429.376 284.192 429.584C283.913 429.788 283.703 430.075 283.561 430.445C283.419 430.811 283.348 431.239 283.348 431.727ZM289.672 435V428.455H290.643V429.443H290.711C290.831 429.119 291.047 428.857 291.359 428.655C291.672 428.453 292.024 428.352 292.416 428.352C292.49 428.352 292.582 428.354 292.693 428.357C292.804 428.359 292.888 428.364 292.944 428.369V429.392C292.91 429.384 292.832 429.371 292.71 429.354C292.591 429.334 292.464 429.324 292.331 429.324C292.013 429.324 291.728 429.391 291.478 429.524C291.231 429.655 291.035 429.837 290.89 430.07C290.748 430.3 290.677 430.562 290.677 430.858V435H289.672Z" fill="#475467"/>
<path d="M333.479 426.273H334.74L337.706 433.517H337.809L340.775 426.273H342.036V435H341.047V428.369H340.962L338.235 435H337.28L334.553 428.369H334.468V435H333.479V426.273ZM345.945 435.153C345.53 435.153 345.153 435.075 344.815 434.919C344.477 434.76 344.209 434.531 344.01 434.233C343.811 433.932 343.712 433.568 343.712 433.142C343.712 432.767 343.786 432.463 343.933 432.23C344.081 431.994 344.278 431.81 344.526 431.676C344.773 431.543 345.045 431.443 345.344 431.378C345.645 431.31 345.947 431.256 346.251 431.216C346.649 431.165 346.972 431.126 347.219 431.101C347.469 431.072 347.651 431.026 347.764 430.96C347.881 430.895 347.939 430.781 347.939 430.619V430.585C347.939 430.165 347.824 429.838 347.594 429.605C347.366 429.372 347.021 429.256 346.558 429.256C346.078 429.256 345.702 429.361 345.429 429.571C345.156 429.781 344.964 430.006 344.854 430.244L343.899 429.903C344.07 429.506 344.297 429.196 344.581 428.974C344.868 428.75 345.18 428.594 345.518 428.506C345.859 428.415 346.195 428.369 346.524 428.369C346.734 428.369 346.976 428.395 347.249 428.446C347.524 428.494 347.79 428.595 348.045 428.749C348.304 428.902 348.518 429.134 348.689 429.443C348.859 429.753 348.945 430.168 348.945 430.688V435H347.939V434.114H347.888C347.82 434.256 347.706 434.408 347.547 434.57C347.388 434.732 347.176 434.869 346.912 434.983C346.648 435.097 346.325 435.153 345.945 435.153ZM346.098 434.25C346.496 434.25 346.831 434.172 347.104 434.016C347.379 433.859 347.587 433.658 347.726 433.411C347.868 433.163 347.939 432.903 347.939 432.631V431.71C347.896 431.761 347.803 431.808 347.658 431.851C347.516 431.891 347.351 431.926 347.163 431.957C346.979 431.986 346.798 432.011 346.622 432.034C346.449 432.054 346.308 432.071 346.2 432.085C345.939 432.119 345.695 432.175 345.467 432.251C345.243 432.325 345.061 432.437 344.922 432.588C344.786 432.736 344.717 432.937 344.717 433.193C344.717 433.543 344.847 433.807 345.105 433.986C345.366 434.162 345.697 434.25 346.098 434.25ZM351.194 437.455C351.023 437.455 350.871 437.44 350.738 437.412C350.604 437.386 350.512 437.361 350.461 437.335L350.716 436.449C350.961 436.511 351.177 436.534 351.364 436.517C351.552 436.5 351.718 436.416 351.863 436.266C352.01 436.118 352.145 435.878 352.267 435.545L352.455 435.034L350.034 428.455H351.125L352.932 433.67H353L354.807 428.455H355.898L353.12 435.955C352.995 436.293 352.84 436.572 352.655 436.794C352.471 437.018 352.256 437.185 352.012 437.293C351.77 437.401 351.498 437.455 351.194 437.455Z" fill="#475467"/>
<path d="M400.098 426.273H401.155V432.511C401.155 433.068 401.053 433.541 400.848 433.93C400.644 434.32 400.356 434.615 399.983 434.817C399.611 435.018 399.172 435.119 398.667 435.119C398.189 435.119 397.765 435.033 397.392 434.859C397.02 434.683 396.728 434.433 396.515 434.109C396.302 433.786 396.195 433.401 396.195 432.955H397.235C397.235 433.202 397.296 433.418 397.418 433.602C397.543 433.784 397.713 433.926 397.929 434.028C398.145 434.131 398.391 434.182 398.667 434.182C398.971 434.182 399.229 434.118 399.442 433.99C399.655 433.862 399.817 433.675 399.928 433.428C400.042 433.178 400.098 432.872 400.098 432.511V426.273ZM407.262 432.324V428.455H408.267V435H407.262V433.892H407.194C407.04 434.224 406.802 434.507 406.478 434.74C406.154 434.97 405.745 435.085 405.25 435.085C404.841 435.085 404.478 434.996 404.159 434.817C403.841 434.635 403.591 434.362 403.409 433.999C403.228 433.632 403.137 433.17 403.137 432.614V428.455H404.142V432.545C404.142 433.023 404.276 433.403 404.543 433.688C404.813 433.972 405.157 434.114 405.574 434.114C405.824 434.114 406.079 434.05 406.337 433.922C406.598 433.794 406.817 433.598 406.993 433.334C407.172 433.07 407.262 432.733 407.262 432.324ZM411.115 431.062V435H410.109V428.455H411.081V429.477H411.166C411.32 429.145 411.553 428.878 411.865 428.676C412.178 428.472 412.581 428.369 413.075 428.369C413.519 428.369 413.906 428.46 414.239 428.642C414.571 428.821 414.83 429.094 415.014 429.46C415.199 429.824 415.291 430.284 415.291 430.841V435H414.286V430.909C414.286 430.395 414.152 429.994 413.885 429.707C413.618 429.418 413.251 429.273 412.786 429.273C412.465 429.273 412.178 429.342 411.925 429.482C411.675 429.621 411.477 429.824 411.332 430.091C411.188 430.358 411.115 430.682 411.115 431.062Z" fill="#475467"/>
<path d="M460.275 426.273H461.332V432.511C461.332 433.068 461.23 433.541 461.025 433.93C460.821 434.32 460.532 434.615 460.16 434.817C459.788 435.018 459.349 435.119 458.843 435.119C458.366 435.119 457.941 435.033 457.569 434.859C457.197 434.683 456.904 434.433 456.691 434.109C456.478 433.786 456.372 433.401 456.372 432.955H457.412C457.412 433.202 457.473 433.418 457.595 433.602C457.72 433.784 457.89 433.926 458.106 434.028C458.322 434.131 458.568 434.182 458.843 434.182C459.147 434.182 459.406 434.118 459.619 433.99C459.832 433.862 459.994 433.675 460.105 433.428C460.218 433.178 460.275 432.872 460.275 432.511V426.273ZM467.439 432.324V428.455H468.444V435H467.439V433.892H467.37C467.217 434.224 466.978 434.507 466.654 434.74C466.331 434.97 465.921 435.085 465.427 435.085C465.018 435.085 464.654 434.996 464.336 434.817C464.018 434.635 463.768 434.362 463.586 433.999C463.404 433.632 463.314 433.17 463.314 432.614V428.455H464.319V432.545C464.319 433.023 464.453 433.403 464.72 433.688C464.99 433.972 465.333 434.114 465.751 434.114C466.001 434.114 466.255 434.05 466.514 433.922C466.775 433.794 466.994 433.598 467.17 433.334C467.349 433.07 467.439 432.733 467.439 432.324ZM471.292 426.273V435H470.286V426.273H471.292Z" fill="#475467"/>
<path d="M513.354 435H512.246L515.45 426.273H516.541L519.746 435H518.638L516.03 427.653H515.962L513.354 435ZM513.763 431.591H518.229V432.528H513.763V431.591ZM525.094 432.324V428.455H526.1V435H525.094V433.892H525.026C524.872 434.224 524.634 434.507 524.31 434.74C523.986 434.97 523.577 435.085 523.083 435.085C522.673 435.085 522.31 434.996 521.992 434.817C521.673 434.635 521.423 434.362 521.242 433.999C521.06 433.632 520.969 433.17 520.969 432.614V428.455H521.975V432.545C521.975 433.023 522.108 433.403 522.375 433.688C522.645 433.972 522.989 434.114 523.406 434.114C523.656 434.114 523.911 434.05 524.169 433.922C524.431 433.794 524.649 433.598 524.825 433.334C525.004 433.07 525.094 432.733 525.094 432.324ZM530.584 437.591C530.098 437.591 529.68 437.528 529.331 437.403C528.981 437.281 528.69 437.119 528.457 436.918C528.227 436.719 528.044 436.506 527.907 436.278L528.709 435.716C528.8 435.835 528.915 435.972 529.054 436.125C529.193 436.281 529.383 436.416 529.625 436.53C529.869 436.646 530.189 436.705 530.584 436.705C531.112 436.705 531.548 436.577 531.892 436.321C532.236 436.065 532.407 435.665 532.407 435.119V433.79H532.322C532.248 433.909 532.143 434.057 532.007 434.233C531.873 434.406 531.68 434.561 531.427 434.697C531.177 434.831 530.839 434.898 530.413 434.898C529.885 434.898 529.41 434.773 528.99 434.523C528.572 434.273 528.241 433.909 527.997 433.432C527.755 432.955 527.635 432.375 527.635 431.693C527.635 431.023 527.753 430.439 527.988 429.942C528.224 429.442 528.552 429.055 528.973 428.783C529.393 428.507 529.879 428.369 530.43 428.369C530.856 428.369 531.194 428.44 531.444 428.582C531.697 428.722 531.89 428.881 532.024 429.06C532.16 429.236 532.265 429.381 532.339 429.494H532.442V428.455H533.413V435.188C533.413 435.75 533.285 436.207 533.03 436.56C532.777 436.915 532.436 437.175 532.007 437.339C531.581 437.507 531.106 437.591 530.584 437.591ZM530.55 433.994C530.953 433.994 531.294 433.902 531.572 433.717C531.851 433.533 532.062 433.267 532.207 432.92C532.352 432.574 532.425 432.159 532.425 431.676C532.425 431.205 532.354 430.788 532.211 430.428C532.069 430.067 531.859 429.784 531.581 429.58C531.302 429.375 530.959 429.273 530.55 429.273C530.123 429.273 529.768 429.381 529.484 429.597C529.203 429.812 528.991 430.102 528.849 430.466C528.71 430.83 528.64 431.233 528.64 431.676C528.64 432.131 528.711 432.533 528.854 432.882C528.998 433.229 529.211 433.501 529.493 433.7C529.777 433.896 530.129 433.994 530.55 433.994Z" fill="#475467"/>
<path d="M579.582 428.455C579.531 428.023 579.324 427.688 578.96 427.449C578.596 427.21 578.15 427.091 577.622 427.091C577.236 427.091 576.898 427.153 576.608 427.278C576.321 427.403 576.096 427.575 575.935 427.794C575.775 428.013 575.696 428.261 575.696 428.54C575.696 428.773 575.751 428.973 575.862 429.141C575.976 429.305 576.121 429.443 576.297 429.554C576.473 429.662 576.658 429.751 576.851 429.822C577.044 429.891 577.221 429.946 577.383 429.989L578.27 430.227C578.497 430.287 578.75 430.369 579.028 430.474C579.31 430.58 579.578 430.723 579.834 430.905C580.092 431.084 580.305 431.314 580.473 431.595C580.64 431.876 580.724 432.222 580.724 432.631C580.724 433.102 580.601 433.528 580.354 433.909C580.109 434.29 579.751 434.592 579.28 434.817C578.811 435.041 578.241 435.153 577.571 435.153C576.946 435.153 576.405 435.053 575.947 434.851C575.493 434.649 575.135 434.368 574.873 434.007C574.615 433.646 574.469 433.227 574.435 432.75H575.525C575.554 433.08 575.665 433.352 575.858 433.568C576.054 433.781 576.301 433.94 576.599 434.045C576.9 434.148 577.224 434.199 577.571 434.199C577.974 434.199 578.336 434.134 578.658 434.003C578.979 433.869 579.233 433.685 579.42 433.449C579.608 433.21 579.702 432.932 579.702 432.614C579.702 432.324 579.621 432.088 579.459 431.906C579.297 431.724 579.084 431.577 578.819 431.463C578.555 431.349 578.27 431.25 577.963 431.165L576.889 430.858C576.207 430.662 575.667 430.382 575.27 430.018C574.872 429.655 574.673 429.179 574.673 428.591C574.673 428.102 574.805 427.676 575.069 427.312C575.336 426.946 575.694 426.662 576.143 426.46C576.595 426.256 577.099 426.153 577.656 426.153C578.219 426.153 578.719 426.254 579.156 426.456C579.594 426.655 579.94 426.928 580.196 427.274C580.454 427.621 580.591 428.014 580.605 428.455H579.582ZM585.07 435.136C584.439 435.136 583.895 434.997 583.438 434.719C582.983 434.438 582.632 434.045 582.385 433.543C582.141 433.037 582.019 432.449 582.019 431.778C582.019 431.108 582.141 430.517 582.385 430.006C582.632 429.491 582.976 429.091 583.416 428.804C583.86 428.514 584.377 428.369 584.968 428.369C585.308 428.369 585.645 428.426 585.977 428.54C586.31 428.653 586.612 428.838 586.885 429.094C587.158 429.347 587.375 429.682 587.537 430.099C587.699 430.517 587.78 431.031 587.78 431.642V432.068H582.735V431.199H586.757C586.757 430.83 586.683 430.5 586.536 430.21C586.391 429.92 586.183 429.692 585.914 429.524C585.647 429.357 585.331 429.273 584.968 429.273C584.567 429.273 584.22 429.372 583.928 429.571C583.638 429.767 583.415 430.023 583.259 430.338C583.102 430.653 583.024 430.991 583.024 431.352V431.932C583.024 432.426 583.11 432.845 583.28 433.189C583.453 433.53 583.693 433.79 584 433.969C584.307 434.145 584.664 434.233 585.07 434.233C585.334 434.233 585.573 434.196 585.786 434.122C586.002 434.045 586.188 433.932 586.344 433.781C586.5 433.628 586.621 433.437 586.706 433.21L587.678 433.483C587.575 433.812 587.404 434.102 587.162 434.352C586.921 434.599 586.622 434.793 586.267 434.932C585.912 435.068 585.513 435.136 585.07 435.136ZM589.31 437.455V428.455H590.281V429.494H590.401C590.475 429.381 590.577 429.236 590.708 429.06C590.841 428.881 591.031 428.722 591.279 428.582C591.529 428.44 591.867 428.369 592.293 428.369C592.844 428.369 593.33 428.507 593.75 428.783C594.171 429.058 594.499 429.449 594.735 429.955C594.97 430.46 595.088 431.057 595.088 431.744C595.088 432.438 594.97 433.038 594.735 433.547C594.499 434.053 594.172 434.445 593.754 434.723C593.337 434.999 592.855 435.136 592.31 435.136C591.889 435.136 591.553 435.067 591.3 434.928C591.047 434.786 590.852 434.625 590.716 434.446C590.58 434.264 590.475 434.114 590.401 433.994H590.316V437.455H589.31ZM590.298 431.727C590.298 432.222 590.371 432.658 590.516 433.036C590.661 433.411 590.872 433.705 591.151 433.918C591.429 434.128 591.77 434.233 592.173 434.233C592.594 434.233 592.945 434.122 593.226 433.901C593.51 433.676 593.723 433.375 593.865 432.997C594.01 432.616 594.083 432.193 594.083 431.727C594.083 431.267 594.012 430.852 593.87 430.483C593.73 430.111 593.519 429.817 593.235 429.601C592.953 429.382 592.6 429.273 592.173 429.273C591.764 429.273 591.421 429.376 591.142 429.584C590.864 429.788 590.654 430.075 590.512 430.445C590.37 430.811 590.298 431.239 590.298 431.727Z" fill="#475467"/>
<path d="M643.637 430.636C643.637 431.557 643.471 432.352 643.138 433.023C642.806 433.693 642.35 434.21 641.771 434.574C641.191 434.938 640.529 435.119 639.785 435.119C639.04 435.119 638.378 434.938 637.799 434.574C637.219 434.21 636.763 433.693 636.431 433.023C636.099 432.352 635.932 431.557 635.932 430.636C635.932 429.716 636.099 428.92 636.431 428.25C636.763 427.58 637.219 427.062 637.799 426.699C638.378 426.335 639.04 426.153 639.785 426.153C640.529 426.153 641.191 426.335 641.771 426.699C642.35 427.062 642.806 427.58 643.138 428.25C643.471 428.92 643.637 429.716 643.637 430.636ZM642.614 430.636C642.614 429.881 642.488 429.243 642.235 428.723C641.985 428.203 641.646 427.81 641.217 427.543C640.79 427.276 640.313 427.142 639.785 427.142C639.256 427.142 638.778 427.276 638.349 427.543C637.923 427.81 637.583 428.203 637.33 428.723C637.08 429.243 636.955 429.881 636.955 430.636C636.955 431.392 637.08 432.03 637.33 432.55C637.583 433.07 637.923 433.463 638.349 433.73C638.778 433.997 639.256 434.131 639.785 434.131C640.313 434.131 640.79 433.997 641.217 433.73C641.646 433.463 641.985 433.07 642.235 432.55C642.488 432.03 642.614 431.392 642.614 430.636ZM647.937 435.136C647.323 435.136 646.795 434.991 646.351 434.702C645.908 434.412 645.567 434.013 645.329 433.504C645.09 432.996 644.971 432.415 644.971 431.761C644.971 431.097 645.093 430.51 645.337 430.001C645.584 429.49 645.928 429.091 646.369 428.804C646.812 428.514 647.329 428.369 647.92 428.369C648.38 428.369 648.795 428.455 649.164 428.625C649.533 428.795 649.836 429.034 650.072 429.341C650.307 429.648 650.454 430.006 650.511 430.415H649.505C649.428 430.116 649.258 429.852 648.994 429.622C648.732 429.389 648.38 429.273 647.937 429.273C647.545 429.273 647.201 429.375 646.905 429.58C646.613 429.781 646.384 430.067 646.219 430.436C646.057 430.803 645.976 431.233 645.976 431.727C645.976 432.233 646.056 432.673 646.215 433.048C646.377 433.423 646.604 433.714 646.897 433.922C647.192 434.129 647.539 434.233 647.937 434.233C648.198 434.233 648.435 434.188 648.648 434.097C648.861 434.006 649.042 433.875 649.19 433.705C649.337 433.534 649.442 433.33 649.505 433.091H650.511C650.454 433.477 650.313 433.825 650.089 434.135C649.867 434.442 649.573 434.686 649.207 434.868C648.843 435.047 648.42 435.136 647.937 435.136ZM654.827 428.455V429.307H651.435V428.455H654.827ZM652.424 426.886H653.43V433.125C653.43 433.409 653.471 433.622 653.553 433.764C653.638 433.903 653.746 433.997 653.877 434.045C654.011 434.091 654.151 434.114 654.299 434.114C654.41 434.114 654.501 434.108 654.572 434.097C654.643 434.082 654.7 434.071 654.742 434.062L654.947 434.966C654.878 434.991 654.783 435.017 654.661 435.043C654.539 435.071 654.384 435.085 654.197 435.085C653.913 435.085 653.634 435.024 653.361 434.902C653.092 434.78 652.867 434.594 652.688 434.344C652.512 434.094 652.424 433.778 652.424 433.398V426.886Z" fill="#475467"/>
<path d="M703.066 426.273V435H702.043L697.288 428.148H697.202V435H696.146V426.273H697.168L701.941 433.142H702.026V426.273H703.066ZM707.703 435.136C707.113 435.136 706.594 434.996 706.148 434.714C705.705 434.433 705.358 434.04 705.108 433.534C704.861 433.028 704.738 432.437 704.738 431.761C704.738 431.08 704.861 430.484 705.108 429.976C705.358 429.467 705.705 429.072 706.148 428.791C706.594 428.51 707.113 428.369 707.703 428.369C708.294 428.369 708.811 428.51 709.255 428.791C709.701 429.072 710.047 429.467 710.294 429.976C710.544 430.484 710.669 431.08 710.669 431.761C710.669 432.437 710.544 433.028 710.294 433.534C710.047 434.04 709.701 434.433 709.255 434.714C708.811 434.996 708.294 435.136 707.703 435.136ZM707.703 434.233C708.152 434.233 708.522 434.118 708.811 433.888C709.101 433.658 709.316 433.355 709.455 432.98C709.594 432.605 709.664 432.199 709.664 431.761C709.664 431.324 709.594 430.916 709.455 430.538C709.316 430.161 709.101 429.855 708.811 429.622C708.522 429.389 708.152 429.273 707.703 429.273C707.255 429.273 706.885 429.389 706.595 429.622C706.306 429.855 706.091 430.161 705.952 430.538C705.813 430.916 705.743 431.324 705.743 431.761C705.743 432.199 705.813 432.605 705.952 432.98C706.091 433.355 706.306 433.658 706.595 433.888C706.885 434.118 707.255 434.233 707.703 434.233ZM717.322 428.455L714.902 435H713.879L711.459 428.455H712.55L714.357 433.67H714.425L716.232 428.455H717.322Z" fill="#475467"/>
<path d="M761.094 435H758.401V426.273H761.213C762.06 426.273 762.784 426.447 763.386 426.797C763.989 427.143 764.45 427.642 764.771 428.293C765.092 428.94 765.253 429.716 765.253 430.619C765.253 431.528 765.091 432.311 764.767 432.967C764.443 433.621 763.972 434.124 763.352 434.476C762.733 434.825 761.98 435 761.094 435ZM759.457 434.062H761.026C761.747 434.062 762.345 433.923 762.82 433.645C763.294 433.366 763.648 432.97 763.881 432.456C764.114 431.942 764.23 431.33 764.23 430.619C764.23 429.915 764.115 429.308 763.885 428.8C763.655 428.288 763.311 427.896 762.854 427.624C762.396 427.348 761.827 427.21 761.145 427.21H759.457V434.062ZM769.634 435.136C769.003 435.136 768.459 434.997 768.001 434.719C767.547 434.438 767.196 434.045 766.949 433.543C766.705 433.037 766.582 432.449 766.582 431.778C766.582 431.108 766.705 430.517 766.949 430.006C767.196 429.491 767.54 429.091 767.98 428.804C768.423 428.514 768.94 428.369 769.531 428.369C769.872 428.369 770.209 428.426 770.541 428.54C770.874 428.653 771.176 428.838 771.449 429.094C771.722 429.347 771.939 429.682 772.101 430.099C772.263 430.517 772.344 431.031 772.344 431.642V432.068H767.298V431.199H771.321C771.321 430.83 771.247 430.5 771.099 430.21C770.955 429.92 770.747 429.692 770.477 429.524C770.21 429.357 769.895 429.273 769.531 429.273C769.131 429.273 768.784 429.372 768.491 429.571C768.202 429.767 767.979 430.023 767.822 430.338C767.666 430.653 767.588 430.991 767.588 431.352V431.932C767.588 432.426 767.673 432.845 767.844 433.189C768.017 433.53 768.257 433.79 768.564 433.969C768.871 434.145 769.227 434.233 769.634 434.233C769.898 434.233 770.136 434.196 770.349 434.122C770.565 434.045 770.751 433.932 770.908 433.781C771.064 433.628 771.185 433.437 771.27 433.21L772.241 433.483C772.139 433.812 771.967 434.102 771.726 434.352C771.484 434.599 771.186 434.793 770.831 434.932C770.476 435.068 770.077 435.136 769.634 435.136ZM776.533 435.136C775.919 435.136 775.391 434.991 774.947 434.702C774.504 434.412 774.163 434.013 773.925 433.504C773.686 432.996 773.567 432.415 773.567 431.761C773.567 431.097 773.689 430.51 773.933 430.001C774.18 429.49 774.524 429.091 774.964 428.804C775.408 428.514 775.925 428.369 776.516 428.369C776.976 428.369 777.391 428.455 777.76 428.625C778.129 428.795 778.432 429.034 778.668 429.341C778.903 429.648 779.05 430.006 779.107 430.415H778.101C778.024 430.116 777.854 429.852 777.589 429.622C777.328 429.389 776.976 429.273 776.533 429.273C776.141 429.273 775.797 429.375 775.501 429.58C775.209 429.781 774.98 430.067 774.815 430.436C774.653 430.803 774.572 431.233 774.572 431.727C774.572 432.233 774.652 432.673 774.811 433.048C774.973 433.423 775.2 433.714 775.493 433.922C775.788 434.129 776.135 434.233 776.533 434.233C776.794 434.233 777.031 434.188 777.244 434.097C777.457 434.006 777.638 433.875 777.786 433.705C777.933 433.534 778.038 433.33 778.101 433.091H779.107C779.05 433.477 778.909 433.825 778.685 434.135C778.463 434.442 778.169 434.686 777.803 434.868C777.439 435.047 777.016 435.136 776.533 435.136Z" fill="#475467"/>
<mask id="mask0_1_7201" style="mask-type:alpha" maskUnits="userSpaceOnUse" x="68" y="118" width="736" height="295">
<rect width="736" height="295" transform="translate(68 118)" fill="url(#paint0_linear_1_7201)"/>
</mask>
<g mask="url(#mask0_1_7201)">
<path opacity="0.1" d="M84.6799 217.261L68 222.964V413H804V153.698L788.363 163.168H771.683L763.864 172.036H753.439C750.659 173.514 744.891 176.47 744.057 176.47C743.223 176.47 737.802 178.244 735.195 179.13L712.782 181.791L699.751 185.338L678.901 181.791L667.955 179.13L652.317 185.338H636.159L622.606 179.13C617.394 178.244 606.76 176.47 605.926 176.47C605.092 176.47 598.281 174.696 594.98 173.81H586.64L566.833 176.47L549.632 179.13L541.813 185.338L518.357 187.998L506.368 190.658L492.816 195.092L479.785 205.733H474.051L458.414 203.073L443.297 195.092L430.266 190.658H422.448L408.895 187.998L389.609 190.658H371.365L353.122 195.092L334.878 200.413L321.326 205.733L306.731 208.394L286.924 205.733L271.286 208.394L255.649 211.054L241.054 208.394L221.246 214.601L204.567 211.054L187.887 214.601H171.728L154.527 217.261H136.805L119.082 219.922L101.881 214.601L84.6799 217.261Z" fill="#003320"/>
</g>
<path d="M68 222.964L84.6799 217.261L101.881 214.601L119.082 219.922L136.805 217.261H154.527L171.728 214.601H187.887L204.567 211.054L221.246 214.601L241.054 208.394L255.649 211.054L271.286 208.394L286.924 205.733L306.731 208.394L321.326 205.733L334.878 200.413L353.122 195.092L371.365 190.658H389.609L408.895 187.998L422.448 190.658H430.266L443.297 195.092L458.414 203.073L474.051 205.733H479.785L492.816 195.092L506.368 190.658L518.357 187.998L541.813 185.338L549.632 179.13L566.833 176.47L586.64 173.81H594.98C598.281 174.696 605.092 176.47 605.926 176.47C606.76 176.47 617.394 178.244 622.606 179.13L636.159 185.338H652.317L667.955 179.13L678.901 181.791L699.751 185.338L712.782 181.791L735.195 179.13C737.802 178.244 743.223 176.47 744.057 176.47C744.891 176.47 750.659 173.514 753.439 172.036H763.864L771.683 163.168H788.363L804 153.698" stroke="#01B16F" stroke-width="2" stroke-linecap="round" stroke-linejoin="round"/>
<path d="M68 291.949L84.6799 288.317L101.881 286.623L119.082 290.012L136.805 288.317H154.527L171.728 286.623H187.887L204.567 284.363L221.246 286.623L241.054 282.669L255.649 284.363L271.286 282.669L286.924 280.974L306.731 282.669L321.326 280.974L334.878 277.585L353.122 274.196L371.365 271.371H389.609L408.895 269.677L422.448 271.371H430.266L443.297 274.196L458.414 279.279L474.051 280.974H479.785L492.816 274.196L506.368 271.371L518.357 269.677L541.813 267.982L549.632 264.028L566.833 262.334L586.64 260.639H594.98C598.281 261.204 605.092 262.334 605.926 262.334C606.76 262.334 617.394 263.463 622.606 264.028L636.159 267.982H652.317L667.955 264.028L678.901 265.723L699.751 267.982L712.782 265.723L735.195 264.028C737.802 263.463 743.223 262.334 744.057 262.334C744.891 262.334 750.659 260.451 753.439 259.509H763.864L771.683 253.861H788.363L804 247.828" stroke="#00975F" stroke-width="2" stroke-linecap="round" stroke-linejoin="round"/>
<path d="M68 379.255L84.6799 369.605L101.881 365.103L119.082 374.107L136.805 369.605H154.527L171.728 365.103H187.887L204.567 359.1L221.246 365.103L241.054 354.598L255.649 359.1L271.286 354.598L286.924 350.096L306.731 354.598L321.326 350.096L334.878 341.092L353.122 332.088L371.365 324.585H389.609L408.895 320.083L422.448 324.585H430.266L443.297 332.088L458.414 345.594L474.051 350.096H479.785L492.816 332.088L506.368 324.585L518.357 320.083L541.813 315.58L549.632 305.076L566.833 300.574L586.64 296.072H594.98C598.281 297.572 605.092 300.574 605.926 300.574C606.76 300.574 617.394 303.575 622.606 305.076L636.159 315.58H652.317L667.955 305.076L678.901 309.578L699.751 315.58L712.782 309.578L735.195 305.076C737.802 303.575 743.223 300.574 744.057 300.574C744.891 300.574 750.659 295.571 753.439 293.07H763.864L771.683 278.063H788.363L804 262.036" stroke="#003320" stroke-width="2" stroke-linecap="round" stroke-linejoin="round"/>
</g>
<defs>
<filter id="filter0_d_1_7201" x="0" y="0" width="872" height="532" filterUnits="userSpaceOnUse" color-interpolation-filters="sRGB">
<feFlood flood-opacity="0" result="BackgroundImageFix"/>
<feColorMatrix in="SourceAlpha" type="matrix" values="0 0 0 0 0 0 0 0 0 0 0 0 0 0 0 0 0 0 127 0" result="hardAlpha"/>
<feMorphology radius="12" operator="erode" in="SourceAlpha" result="effect1_dropShadow_1_7201"/>
<feOffset dy="24"/>
<feGaussianBlur stdDeviation="24"/>
<feComposite in2="hardAlpha" operator="out"/>
<feColorMatrix type="matrix" values="0 0 0 0 0.0625882 0 0 0 0 0.0926346 0 0 0 0 0.15702 0 0 0 0.18 0"/>
<feBlend mode="normal" in2="BackgroundImageFix" result="effect1_dropShadow_1_7201"/>
<feBlend mode="normal" in="SourceGraphic" in2="effect1_dropShadow_1_7201" result="shape"/>
</filter>
<linearGradient id="paint0_linear_1_7201" x1="368" y1="0" x2="368" y2="295" gradientUnits="userSpaceOnUse">
<stop/>
<stop offset="1" stop-opacity="0"/>
</linearGradient>
</defs>
</svg>
