<svg width="64" height="64" viewBox="0 0 64 64" fill="none" xmlns="http://www.w3.org/2000/svg">
<rect x="8" y="8" width="48" height="48" rx="24" fill="#003320"/>
<rect x="4" y="4" width="56" height="56" rx="28" stroke="#008415" stroke-opacity="0.1" stroke-width="8"/>
<path d="M40 32.5V26.8C40 25.1198 40 24.2798 39.673 23.638C39.3854 23.0735 38.9265 22.6146 38.362 22.327C37.7202 22 36.8802 22 35.2 22H28.8C27.1198 22 26.2798 22 25.638 22.327C25.0735 22.6146 24.6146 23.0735 24.327 23.638C24 24.2798 24 25.1198 24 26.8V37.2C24 38.8802 24 39.7202 24.327 40.362C24.6146 40.9265 25.0735 41.3854 25.638 41.673C26.2798 42 27.1198 42 28.8 42H32M34 31H28M30 35H28M36 27H28M34.5 39L36.5 41L41 36.5" stroke="white" stroke-width="2" stroke-linecap="round" stroke-linejoin="round"/>
</svg>
