<svg width="64" height="64" viewBox="0 0 64 64" fill="none" xmlns="http://www.w3.org/2000/svg">
<rect x="8" y="8" width="48" height="48" rx="24" fill="#003320"/>
<rect x="4" y="4" width="56" height="56" rx="28" stroke="#008415" stroke-opacity="0.1" stroke-width="8"/>
<path d="M42 30H22M31 39L38.8 39C39.9201 39 40.4802 39 40.908 38.782C41.2843 38.5903 41.5903 38.2843 41.782 37.908C42 37.4802 42 36.9201 42 35.8V28.2C42 27.0799 42 26.5198 41.782 26.092C41.5903 25.7157 41.2843 25.4097 40.908 25.218C40.4802 25 39.9201 25 38.8 25H37M31 39L33 41M31 39L33 37M27 39H25.2C24.0799 39 23.5198 39 23.092 38.782C22.7157 38.5903 22.4097 38.2843 22.218 37.908C22 37.4802 22 36.9201 22 35.8V28.2C22 27.0799 22 26.5198 22.218 26.092C22.4097 25.7157 22.7157 25.4097 23.092 25.218C23.5198 25 24.0799 25 25.2 25H33M33 25L31 27M33 25L31 23" stroke="white" stroke-width="2" stroke-linecap="round" stroke-linejoin="round"/>
</svg>
