<svg width="64" height="64" viewBox="0 0 64 64" fill="none" xmlns="http://www.w3.org/2000/svg">
<rect x="8" y="8" width="48" height="48" rx="24" fill="#003320"/>
<rect x="4" y="4" width="56" height="56" rx="28" stroke="#008415" stroke-opacity="0.1" stroke-width="8"/>
<path d="M33 25C33 26.1046 30.5376 27 27.5 27C24.4624 27 22 26.1046 22 25M33 25C33 23.8954 30.5376 23 27.5 23C24.4624 23 22 23.8954 22 25M33 25V26.5M22 25V37C22 38.1046 24.4624 39 27.5 39M27.5 31C27.3315 31 27.1647 30.9972 27 30.9918C24.1967 30.9 22 30.0433 22 29M27.5 35C24.4624 35 22 34.1046 22 33M42 31.5C42 32.6046 39.5376 33.5 36.5 33.5C33.4624 33.5 31 32.6046 31 31.5M42 31.5C42 30.3954 39.5376 29.5 36.5 29.5C33.4624 29.5 31 30.3954 31 31.5M42 31.5V39C42 40.1046 39.5376 41 36.5 41C33.4624 41 31 40.1046 31 39V31.5M42 35.25C42 36.3546 39.5376 37.25 36.5 37.25C33.4624 37.25 31 36.3546 31 35.25" stroke="white" stroke-width="2" stroke-linecap="round" stroke-linejoin="round"/>
</svg>
