<svg width="97" height="56" viewBox="0 0 97 56" fill="none" xmlns="http://www.w3.org/2000/svg">
<g filter="url(#filter0_d_1_6750)">
<path d="M26.8433 19.4483C26.2123 16.3519 21.7877 16.3519 21.1567 19.4483C20.8733 20.8392 19.2212 21.4405 18.11 20.5572C15.6363 18.5908 12.2469 21.4349 13.7538 24.2124C14.4308 25.4601 13.5517 26.9827 12.1327 27.0204C8.97379 27.1041 8.20548 31.4614 11.1452 32.6205C12.4658 33.1411 12.7711 34.8726 11.7083 35.8135C9.34222 37.9082 11.5545 41.7399 14.5515 40.7382C15.8978 40.2882 17.2446 41.4184 17.0353 42.8223C16.5692 45.9478 20.7269 47.461 22.3789 44.7672C23.1209 43.5571 24.8791 43.5571 25.6211 44.7672C27.2731 47.461 31.4308 45.9478 30.9647 42.8223C30.7554 41.4184 32.1022 40.2882 33.4485 40.7382C36.4455 41.7399 38.6578 37.9082 36.2917 35.8135C35.2289 34.8726 35.5342 33.1411 36.8548 32.6205C39.7945 31.4614 39.0262 27.1041 35.8673 27.0204C34.4483 26.9827 33.5692 25.4601 34.2462 24.2124C35.7531 21.4349 32.3637 18.5908 29.89 20.5572C28.7788 21.4405 27.1267 20.8392 26.8433 19.4483Z" stroke="white" shape-rendering="crispEdges"/>
</g>
<g filter="url(#filter1_i_1_6750)">
<path d="M21.6473 11.5481C22.1696 8.98529 25.8317 8.98529 26.354 11.5481C26.7119 13.3047 28.7984 14.0641 30.2018 12.9486C32.2492 11.3211 35.0546 13.6751 33.8073 15.974C32.9524 17.5497 34.0626 19.4727 35.8547 19.5202C38.4693 19.5895 39.1052 23.196 36.672 24.1553C35.0042 24.8129 34.6187 26.9996 35.9609 28.1879C37.9193 29.9216 36.0882 33.0931 33.6076 32.264C31.9074 31.6957 30.2064 33.123 30.4708 34.896C30.8566 37.4829 27.4153 38.7355 26.048 36.5058C25.1108 34.9776 22.8904 34.9776 21.9532 36.5058C20.5859 38.7355 17.1446 37.4829 17.5304 34.896C17.7948 33.123 16.0939 31.6957 14.3936 32.264C11.913 33.0931 10.082 29.9216 12.0403 28.1879C13.3826 26.9996 12.997 24.8129 11.3293 24.1553C8.89606 23.196 9.53198 19.5895 12.1466 19.5202C13.9386 19.4727 15.0488 17.5497 14.194 15.974C12.9467 13.6751 15.752 11.3211 17.7995 12.9486C19.2028 14.0641 21.2893 13.3047 21.6473 11.5481Z" fill="white"/>
</g>
<path d="M61.3665 30.9759C61.3665 32.5431 61.0729 33.8854 60.4858 35.0028C59.9034 36.1155 59.108 36.9678 58.0994 37.5597C57.0956 38.1515 55.9569 38.4474 54.6832 38.4474C53.4096 38.4474 52.2685 38.1515 51.2599 37.5597C50.2562 36.9631 49.4607 36.1084 48.8736 34.9957C48.2912 33.8783 48 32.5384 48 30.9759C48 29.4086 48.2912 28.0687 48.8736 26.956C49.4607 25.8385 50.2562 24.9839 51.2599 24.392C52.2685 23.8002 53.4096 23.5043 54.6832 23.5043C55.9569 23.5043 57.0956 23.8002 58.0994 24.392C59.108 24.9839 59.9034 25.8385 60.4858 26.956C61.0729 28.0687 61.3665 29.4086 61.3665 30.9759ZM58.7173 30.9759C58.7173 29.8726 58.5445 28.9422 58.1989 28.1847C57.858 27.4223 57.3845 26.8471 56.7784 26.4588C56.1723 26.0658 55.474 25.8693 54.6832 25.8693C53.8925 25.8693 53.1941 26.0658 52.5881 26.4588C51.982 26.8471 51.5062 27.4223 51.1605 28.1847C50.8196 28.9422 50.6491 29.8726 50.6491 30.9759C50.6491 32.0791 50.8196 33.0118 51.1605 33.7741C51.5062 34.5317 51.982 35.107 52.5881 35.5C53.1941 35.8883 53.8925 36.0824 54.6832 36.0824C55.474 36.0824 56.1723 35.8883 56.7784 35.5C57.3845 35.107 57.858 34.5317 58.1989 33.7741C58.5445 33.0118 58.7173 32.0791 58.7173 30.9759Z" fill="white"/>
<path d="M65.0295 38.2486C64.3195 38.2486 63.744 37.673 63.744 36.9631V28.5859C63.744 27.8975 64.302 27.3395 64.9904 27.3395H65.3278C65.8298 27.3395 66.2369 27.7465 66.2369 28.2486V29.0921C66.2369 29.1283 66.2662 29.1577 66.3024 29.1577C66.331 29.1577 66.3563 29.1391 66.3653 29.1119C66.5661 28.5044 66.902 28.0343 67.3732 27.7017C67.8609 27.3561 68.4173 27.1832 69.0423 27.1832C69.1843 27.1832 69.3429 27.1903 69.5181 27.2045C69.7797 27.2183 69.9656 27.4428 69.9656 27.7048V29.0906C69.9656 29.3492 69.7039 29.5507 69.4471 29.5199C69.2151 29.4867 68.9902 29.4702 68.7724 29.4702C68.3036 29.4702 67.8822 29.572 67.5082 29.7756C67.1388 29.9744 66.8477 30.2514 66.6346 30.6065C66.4215 30.9616 66.315 31.3712 66.315 31.8352V36.9631C66.315 37.673 65.7394 38.2486 65.0295 38.2486Z" fill="white"/>
<path d="M73.0515 38.2486C72.3533 38.2486 71.7873 37.6826 71.7873 36.9844V24.9886C71.7873 24.2787 72.3628 23.7031 73.0728 23.7031C73.7828 23.7031 74.3583 24.2787 74.3583 24.9886V29.0776C74.3583 29.114 74.3878 29.1435 74.4242 29.1435C74.4491 29.1435 74.4718 29.1294 74.4833 29.1072C74.6145 28.8527 74.7954 28.583 75.0259 28.2983C75.2674 27.9953 75.5941 27.7372 76.006 27.5241C76.418 27.3063 76.9435 27.1974 77.5827 27.1974C78.4255 27.1974 79.1855 27.4129 79.8626 27.8438C80.5444 28.2699 81.0842 28.902 81.4819 29.7401C81.8843 30.5734 82.0856 31.5961 82.0856 32.8082C82.0856 34.0062 81.8891 35.0241 81.4961 35.8622C81.1031 36.7003 80.5681 37.3395 79.891 37.7798C79.2139 38.2202 78.4469 38.4403 77.5898 38.4403C76.9648 38.4403 76.4464 38.3362 76.0344 38.1278C75.6225 37.9195 75.2911 37.6686 75.0401 37.375C74.8093 37.0953 74.6263 36.8302 74.4912 36.5797C74.4748 36.5492 74.4431 36.5298 74.4084 36.5298C74.3572 36.5298 74.3157 36.5714 74.3157 36.6226V37.3892C74.3157 37.8638 73.9309 38.2486 73.4563 38.2486H73.0515ZM74.3086 32.794C74.3086 33.4995 74.408 34.1174 74.6069 34.6477C74.8105 35.178 75.1017 35.5923 75.4805 35.8906C75.864 36.1842 76.328 36.331 76.8725 36.331C77.4407 36.331 77.9165 36.1795 78.3001 35.8764C78.6836 35.5687 78.9724 35.1496 79.1665 34.6193C79.3654 34.0843 79.4648 33.4759 79.4648 32.794C79.4648 32.117 79.3678 31.5156 79.1737 30.9901C78.9795 30.4645 78.6907 30.0526 78.3072 29.7543C77.9237 29.456 77.4454 29.3068 76.8725 29.3068C76.3233 29.3068 75.8569 29.4512 75.4734 29.7401C75.0898 30.0289 74.7987 30.4337 74.5998 30.9545C74.4057 31.4754 74.3086 32.0885 74.3086 32.794Z" fill="white"/>
<path d="M85.5568 38.2486C84.8468 38.2486 84.2713 37.673 84.2713 36.9631V28.625C84.2713 27.915 84.8468 27.3395 85.5568 27.3395C86.2668 27.3395 86.8423 27.915 86.8423 28.625V36.9631C86.8423 37.673 86.2668 38.2486 85.5568 38.2486ZM85.5639 25.7912C85.1567 25.7912 84.8063 25.6563 84.5128 25.3864C84.2192 25.1117 84.0724 24.7827 84.0724 24.3991C84.0724 24.0109 84.2192 23.6818 84.5128 23.4119C84.8063 23.1373 85.1567 23 85.5639 23C85.9758 23 86.3262 23.1373 86.6151 23.4119C86.9086 23.6818 87.0554 24.0109 87.0554 24.3991C87.0554 24.7827 86.9086 25.1117 86.6151 25.3864C86.3262 25.6563 85.9758 25.7912 85.5639 25.7912Z" fill="white"/>
<path d="M93.9393 27.3395C94.4884 27.3395 94.9336 27.7847 94.9336 28.3338C94.9336 28.883 94.4884 29.3281 93.9393 29.3281H89.6566C89.1075 29.3281 88.6623 28.883 88.6623 28.3338C88.6623 27.7847 89.1075 27.3395 89.6566 27.3395H93.9393ZM90.2106 26.0114C90.2106 25.3014 90.7861 24.7259 91.4961 24.7259C92.2061 24.7259 92.7816 25.3014 92.7816 26.0114V34.9673C92.7816 35.313 92.8337 35.5781 92.9379 35.7628C93.0468 35.9427 93.1888 36.0658 93.364 36.1321C93.5392 36.1984 93.7333 36.2315 93.9464 36.2315C94.1074 36.2315 94.2541 36.2197 94.3867 36.196C94.4009 36.1936 94.4148 36.1911 94.4283 36.1887C94.6068 36.157 94.7913 36.1575 94.9661 36.2057C95.7774 36.4293 95.985 37.4832 95.3191 37.9978L95.2694 38.0362C95.1787 38.1063 95.0775 38.162 94.9672 38.1933C94.8509 38.2263 94.7095 38.2613 94.543 38.2983C94.292 38.3551 93.9843 38.3883 93.6197 38.3977C92.9757 38.4167 92.3957 38.3196 91.8796 38.1065C91.3635 37.8887 90.954 37.5526 90.6509 37.098C90.3526 36.6435 90.2058 36.0753 90.2106 35.3935V26.0114Z" fill="white"/>
<defs>
<filter id="filter0_d_1_6750" x="4.80457" y="16.626" width="38.3909" height="38.0376" filterUnits="userSpaceOnUse" color-interpolation-filters="sRGB">
<feFlood flood-opacity="0" result="BackgroundImageFix"/>
<feColorMatrix in="SourceAlpha" type="matrix" values="0 0 0 0 0 0 0 0 0 0 0 0 0 0 0 0 0 0 127 0" result="hardAlpha"/>
<feOffset dy="4"/>
<feGaussianBlur stdDeviation="2"/>
<feComposite in2="hardAlpha" operator="out"/>
<feColorMatrix type="matrix" values="0 0 0 0 0 0 0 0 0 0 0 0 0 0 0 0 0 0 0.25 0"/>
<feBlend mode="normal" in2="BackgroundImageFix" result="effect1_dropShadow_1_6750"/>
<feBlend mode="normal" in="SourceGraphic" in2="effect1_dropShadow_1_6750" result="shape"/>
</filter>
<filter id="filter1_i_1_6750" x="9.80615" y="9.62598" width="28.3889" height="32.0342" filterUnits="userSpaceOnUse" color-interpolation-filters="sRGB">
<feFlood flood-opacity="0" result="BackgroundImageFix"/>
<feBlend mode="normal" in="SourceGraphic" in2="BackgroundImageFix" result="shape"/>
<feColorMatrix in="SourceAlpha" type="matrix" values="0 0 0 0 0 0 0 0 0 0 0 0 0 0 0 0 0 0 127 0" result="hardAlpha"/>
<feOffset dy="4"/>
<feGaussianBlur stdDeviation="2"/>
<feComposite in2="hardAlpha" operator="arithmetic" k2="-1" k3="1"/>
<feColorMatrix type="matrix" values="0 0 0 0 0 0 0 0 0 0 0 0 0 0 0 0 0 0 0.25 0"/>
<feBlend mode="normal" in2="shape" result="effect1_innerShadow_1_6750"/>
</filter>
</defs>
</svg>
