<svg width="64" height="64" viewBox="0 0 64 64" fill="none" xmlns="http://www.w3.org/2000/svg">
<rect x="8" y="8" width="48" height="48" rx="24" fill="#003320"/>
<rect x="4" y="4" width="56" height="56" rx="28" stroke="#008415" stroke-opacity="0.1" stroke-width="8"/>
<path d="M36 24C36.93 24 37.395 24 37.7765 24.1022C38.8117 24.3796 39.6204 25.1883 39.8978 26.2235C40 26.605 40 27.07 40 28V37.2C40 38.8802 40 39.7202 39.673 40.362C39.3854 40.9265 38.9265 41.3854 38.362 41.673C37.7202 42 36.8802 42 35.2 42H28.8C27.1198 42 26.2798 42 25.638 41.673C25.0735 41.3854 24.6146 40.9265 24.327 40.362C24 39.7202 24 38.8802 24 37.2V28C24 27.07 24 26.605 24.1022 26.2235C24.3796 25.1883 25.1883 24.3796 26.2235 24.1022C26.605 24 27.07 24 28 24M29 35L31 37L35.5 32.5M29.6 26H34.4C34.9601 26 35.2401 26 35.454 25.891C35.6422 25.7951 35.7951 25.6422 35.891 25.454C36 25.2401 36 24.9601 36 24.4V23.6C36 23.0399 36 22.7599 35.891 22.546C35.7951 22.3578 35.6422 22.2049 35.454 22.109C35.2401 22 34.9601 22 34.4 22H29.6C29.0399 22 28.7599 22 28.546 22.109C28.3578 22.2049 28.2049 22.3578 28.109 22.546C28 22.7599 28 23.0399 28 23.6V24.4C28 24.9601 28 25.2401 28.109 25.454C28.2049 25.6422 28.3578 25.7951 28.546 25.891C28.7599 26 29.0399 26 29.6 26Z" stroke="white" stroke-width="2" stroke-linecap="round" stroke-linejoin="round"/>
</svg>
