<svg width="225" height="65" viewBox="0 0 225 65" fill="none" xmlns="http://www.w3.org/2000/svg">
<path fill-rule="evenodd" clip-rule="evenodd" d="M27.3504 63.4985C17.5075 62.1356 10.3418 54.3917 7.07261 43.807C5.72959 39.4262 5.53521 34.5675 6.0035 29.4876C6.86939 20.4162 11.031 12.5397 17.101 6.79596C17.1275 6.76941 17.1364 6.76055 17.1452 6.78711C17.1629 6.81366 17.2159 6.84021 17.2424 6.85791C17.2778 6.87561 17.2866 6.85791 17.2601 6.90216C10.8189 12.8052 6.68384 22.1951 6.23322 31.6824C5.53521 45.2319 12.1089 57.2326 21.9606 61.3656C23.6129 62.0648 25.3447 62.5958 27.1471 62.8701C27.2708 63.0294 27.3415 63.2507 27.3504 63.4985Z" fill="white"/>
<path fill-rule="evenodd" clip-rule="evenodd" d="M2.81384 40.8688C3.61788 41.8246 4.89904 42.7627 6.2774 42.3999C6.34809 42.5061 6.71035 43.0371 6.76336 43.1167C6.82521 43.2141 6.94007 43.3114 7.02843 43.2318C7.08144 43.1964 7.12562 43.1167 7.07261 42.9928C6.86939 42.745 6.675 42.4884 6.44528 42.2229C6.03884 40.0723 5.44685 38.6386 4.20987 37.1872C2.7785 35.5234 1.31178 34.7799 0.401712 34.4702C0.269178 34.4348 0.145479 34.3994 0.0129451 34.3551C-0.0754112 35.187 0.30452 36.3995 0.604932 37.0898C1.18808 38.5058 1.82425 39.7448 2.81384 40.8688Z" fill="white"/>
<path fill-rule="evenodd" clip-rule="evenodd" d="M14.6536 10.5749C14.5387 10.6192 13.8672 10.7962 13.7877 10.6634C13.7612 10.628 13.7965 10.4953 13.8584 10.4864C14.1058 10.4599 14.3797 10.4422 14.6182 10.3891C15.0512 9.02618 16.2528 8.43322 17.3573 8.20312C18.6826 7.93762 20.1405 8.34472 21.7044 8.56597C21.7839 8.58367 21.8723 8.59253 21.943 8.59253C21.9165 8.64563 21.8811 8.68103 21.8458 8.73413C21.1919 9.62799 20.167 10.451 19.1686 10.8581C18.4971 11.1414 17.693 11.3007 16.9067 11.2741C16.0761 11.2387 15.3781 11.0528 14.6536 10.5749Z" fill="white"/>
<path fill-rule="evenodd" clip-rule="evenodd" d="M17.2424 6.84906C17.2954 6.86676 17.2954 6.84906 17.3926 6.79596C17.5782 6.61895 17.7372 6.51275 17.9228 6.3446C18.983 6.35345 19.9903 6.03485 20.9445 5.39764C21.3687 5.11444 21.7928 4.76928 22.1462 4.35333C22.9944 3.44177 23.6747 2.10541 23.984 0.884095C24.0017 0.813294 24.0105 0.769043 24.0193 0.698242C23.9398 0.733643 23.8691 0.769044 23.7896 0.804444C22.0755 1.49475 20.4144 1.81335 19.036 3.14972C18.0995 4.04358 17.6135 5.12329 17.8079 6.1676C17.5958 6.33575 17.3749 6.49505 17.1717 6.68975C17.0834 6.76941 17.1894 6.84906 17.2424 6.84906Z" fill="white"/>
<path fill-rule="evenodd" clip-rule="evenodd" d="M11.0045 16.2833C10.8896 16.3452 10.2446 16.6815 10.1474 16.5665C10.1032 16.5222 10.1209 16.3806 10.1827 16.3541C10.4213 16.2656 10.704 16.2036 10.9426 16.0974C11.031 15.1327 11.5699 14.23 12.6391 13.6105C14.2736 12.7432 16.1291 12.8848 17.8786 12.7344C17.9669 12.7255 18.0465 12.7255 18.126 12.7167C18.0995 12.7698 18.073 12.814 18.0553 12.8671C17.4721 13.876 16.5267 14.9646 15.5636 15.5841C14.9186 16.0178 14.1234 16.3452 13.3282 16.5045C12.4888 16.6727 11.7732 16.5753 11.0045 16.2833Z" fill="white"/>
<path fill-rule="evenodd" clip-rule="evenodd" d="M2.44274 31.1691C2.97288 32.3639 3.92713 33.6737 5.32315 33.7622C5.36733 33.8861 5.62357 34.4613 5.65891 34.5498C5.68542 34.6737 5.77377 34.8065 5.88864 34.7534C5.94165 34.7357 5.99466 34.6649 5.98583 34.541C5.85329 34.2224 5.68542 33.9746 5.52637 33.6471C5.65007 31.4523 5.52637 29.8504 4.68699 28.045C3.73274 25.9653 2.42507 24.7705 1.62103 24.1864C1.52384 24.0979 1.40897 24.0271 1.29411 23.9563C1.10856 24.8059 1.17041 26.1246 1.28527 26.8857C1.48849 28.4256 1.81541 29.7796 2.44274 31.1691Z" fill="white"/>
<path fill-rule="evenodd" clip-rule="evenodd" d="M4.00665 22.3544C4.23637 23.6288 4.81069 24.9121 6.08302 25.4696C6.10069 25.6024 6.24206 26.2219 6.25973 26.3193C6.25973 26.452 6.30391 26.6025 6.42761 26.5848C6.46295 26.5759 6.55131 26.5405 6.56014 26.4078C6.50713 26.0715 6.40994 25.6909 6.34809 25.328C6.7722 23.7793 7.00192 22.3633 6.93124 20.8499C6.81637 18.717 6.02117 16.8674 4.76651 15.3805C4.66932 15.2743 4.59863 15.1593 4.51028 15.0619C4.15685 15.7965 3.92713 17.0532 3.86528 17.8055C3.73274 19.3277 3.74158 20.8588 4.00665 22.3544Z" fill="white"/>
<path fill-rule="evenodd" clip-rule="evenodd" d="M7.21398 14.3097C7.17864 15.6195 7.49672 17.0886 8.59234 17.9382C8.5835 18.071 8.55699 18.7082 8.55699 18.7967C8.53932 18.9206 8.54816 19.071 8.67186 19.0976C8.71604 19.0976 8.79556 19.0887 8.82206 18.9648C8.84857 18.6374 8.8574 18.1329 8.87508 17.7701C9.81165 16.1771 10.3153 14.4424 10.333 12.46C10.3683 10.1678 9.80282 8.70757 9.3522 7.78717C9.29035 7.66326 9.2285 7.53936 9.16665 7.41546C8.67186 8.01727 8.20357 9.16778 7.99151 9.87579C7.5674 11.3095 7.25816 12.8052 7.21398 14.3097Z" fill="white"/>
<path fill-rule="evenodd" clip-rule="evenodd" d="M12.0736 6.96411C11.7908 8.19427 11.8704 9.99969 12.7893 10.7431C12.7539 10.9024 12.6744 11.4511 12.6656 11.575C12.6302 11.7078 12.6037 11.8317 12.7097 11.8848C12.7539 11.9025 12.7893 11.9025 12.8423 11.7874C12.9041 11.4423 12.9218 11.1591 12.9748 10.805C14.2825 9.40673 15.0247 8.02612 15.4399 6.14105C15.8552 4.16748 15.7934 2.60101 15.6167 1.49475C15.599 1.362 15.5636 1.22925 15.5283 1.08765C14.3797 2.00806 13.5668 3.22052 12.8776 4.60113C12.5065 5.35339 12.2149 6.12335 12.0736 6.96411Z" fill="white"/>
<path fill-rule="evenodd" clip-rule="evenodd" d="M8.07103 23.8147C7.96501 23.912 7.38185 24.4696 7.24048 24.3988C7.20514 24.3634 7.17864 24.1775 7.24048 24.1421C7.46138 23.9651 7.74412 23.8324 7.96501 23.6642C7.89432 22.6022 8.13288 21.5225 9.09597 20.5136C10.5804 19.071 12.5507 18.5843 14.3443 17.8409C14.4238 17.8055 14.5034 17.7612 14.6006 17.7258C14.5829 17.7878 14.5741 17.8586 14.5475 17.9205C14.1941 19.1595 13.4873 20.6021 12.6302 21.5756C12.0736 22.2305 11.3225 22.8589 10.5362 23.2748C9.71446 23.7173 8.93692 23.8589 8.07103 23.8147Z" fill="white"/>
<path fill-rule="evenodd" clip-rule="evenodd" d="M6.83405 32.4612C6.75453 32.6028 6.28624 33.3639 6.13603 33.3285C6.07418 33.3285 6.01233 33.1427 6.05651 33.0719C6.2509 32.8152 6.49829 32.6117 6.66617 32.3462C6.36576 31.3727 6.50713 29.9655 7.23165 28.6203C8.38028 26.6556 10.0591 25.6997 11.6848 24.328C11.7555 24.2572 11.8262 24.1952 11.9057 24.1156C11.9145 24.1775 11.9234 24.2483 11.9145 24.328C11.8792 25.6732 11.5258 27.3636 10.8984 28.638C10.492 29.4964 9.89117 30.3549 9.20199 31.0718C8.48631 31.7886 7.72644 32.2046 6.83405 32.4612Z" fill="white"/>
<path fill-rule="evenodd" clip-rule="evenodd" d="M7.64692 40.9396C7.58508 41.1078 7.26699 42.0105 7.10795 42.0459C7.05494 42.037 6.94891 41.9043 6.99309 41.8069C7.12562 41.506 7.27583 41.1609 7.39953 40.8511C6.85172 40.3289 6.66617 38.8775 7.10795 37.3553C7.84131 35.1251 9.4759 33.4524 10.7924 31.6028C10.8543 31.5143 10.9161 31.4258 10.978 31.3373C10.9956 31.3992 11.0045 31.47 11.0221 31.5408C11.2519 32.8418 11.2342 34.5675 10.8808 35.9747C10.6422 36.9128 10.2269 37.9483 9.68795 38.8333C9.13131 39.7714 8.46864 40.4174 7.64692 40.9396Z" fill="white"/>
<path fill-rule="evenodd" clip-rule="evenodd" d="M5.67658 50.8606C6.675 51.5155 8.4598 52.0111 9.68795 51.2057C9.78515 51.2765 10.2976 51.5863 10.3595 51.6394C10.4478 51.7279 10.5715 51.7898 10.651 51.6659C10.6952 51.6128 10.7217 51.5243 10.6334 51.427C10.3771 51.25 10.0944 51.1349 9.82049 50.9579C8.88391 49.0109 7.87665 47.6922 6.33042 46.7187C4.56329 45.5859 3.08774 45.5682 2.14233 45.5682C2.0098 45.5682 1.87726 45.5771 1.74473 45.5771C1.97445 47.4975 4.35124 50.0375 5.67658 50.8606Z" fill="white"/>
<path fill-rule="evenodd" clip-rule="evenodd" d="M10.5804 49.356C10.5715 49.4799 10.5097 50.0286 10.4213 50.3649C10.3948 50.4623 10.386 50.6039 10.2534 50.5508C10.2004 50.542 10.1474 50.4269 10.1474 50.3738C10.2093 50.0464 10.2623 49.6746 10.2888 49.3472C9.67912 48.9578 9.20199 47.6834 9.1048 46.1169C9.21083 43.7539 10.2711 41.6122 11.1193 39.382C11.1458 39.2846 11.1812 39.1784 11.2165 39.0722C11.2519 39.1253 11.2695 39.1784 11.3049 39.2315C11.8704 40.3997 12.3033 42.037 12.3386 43.515C12.374 44.4796 12.2326 45.6036 11.9499 46.6479C11.6495 47.7188 11.2077 48.5595 10.5804 49.356Z" fill="white"/>
<path fill-rule="evenodd" clip-rule="evenodd" d="M11.084 58.9407C12.2326 59.1708 13.7877 59.1177 14.7596 57.8787C15.007 57.9141 15.4046 57.976 15.6608 57.9937C15.7315 58.0026 15.7845 57.9495 15.811 57.861C15.8287 57.799 15.811 57.7194 15.6962 57.6574C15.4046 57.5955 15.113 57.5955 14.8038 57.5424C13.5138 56.029 12.2945 55.1794 10.5362 54.8608C8.50398 54.4891 6.78103 55.0112 5.86213 55.3918C5.73843 55.4361 5.6059 55.4892 5.49103 55.5511C5.81795 56.2857 6.7722 57.0379 7.37302 57.4008C8.52165 58.1619 9.69679 58.7106 11.084 58.9407Z" fill="white"/>
<path fill-rule="evenodd" clip-rule="evenodd" d="M15.1925 55.7458C15.2102 55.8786 15.2279 56.4096 15.2279 56.7636C15.2191 56.8609 15.2456 56.9937 15.113 57.0025C15.0512 57.0025 14.9805 56.9229 14.9805 56.8609C14.954 56.5335 14.9717 56.1795 14.9186 55.8432C14.2383 55.6308 13.3371 54.5953 12.9218 53.1704C12.4447 50.8871 12.966 48.533 13.2134 46.1169C13.231 46.0107 13.2222 45.9045 13.231 45.7895C13.2752 45.8337 13.3282 45.878 13.3724 45.9222C14.203 46.8338 15.0335 48.2409 15.4311 49.6215C15.705 50.5243 15.8464 51.6394 15.8464 52.7102C15.8287 53.8342 15.599 54.7811 15.1925 55.7458Z" fill="white"/>
<path fill-rule="evenodd" clip-rule="evenodd" d="M21.6249 60.3921C21.6867 60.4895 21.7663 60.932 21.8546 61.2683C21.8811 61.3479 21.9341 61.4718 21.8104 61.5161C21.7486 61.5426 21.6691 61.4895 21.6514 61.4364C21.5365 61.1532 21.5365 60.8523 21.3952 60.5691C20.7325 60.7284 19.5839 59.8877 18.8328 58.7902C17.7902 56.8963 17.6754 54.6749 17.2689 52.4182C17.2601 52.312 17.2247 52.2146 17.2071 52.1084C17.2601 52.1173 17.3131 52.1527 17.3661 52.1704C18.3645 52.6748 19.5043 53.5687 20.2377 54.6661C20.7413 55.3741 21.2096 56.3565 21.4747 57.3388C21.7486 58.3743 21.7574 59.3567 21.6249 60.3921Z" fill="white"/>
<path fill-rule="evenodd" clip-rule="evenodd" d="M18.0111 64.6048C19.1862 64.4454 20.706 63.9056 21.3775 62.4011C21.616 62.3303 22.0313 62.286 22.2787 62.2152C22.3494 62.2064 22.3847 62.1267 22.3936 62.0294C22.3936 61.9763 22.3582 61.8966 22.2345 61.8789C21.943 61.9232 21.6514 62.0117 21.3245 62.0471C19.6192 61.0382 18.2408 60.578 16.4472 60.8346C14.3885 61.1267 12.8864 62.1621 12.0824 62.8259C11.9675 62.9232 11.8527 63.0117 11.7467 63.1091C12.2414 63.7197 13.3547 64.1268 14.0174 64.3038C15.3162 64.6667 16.5886 64.8083 18.0111 64.6048Z" fill="white"/>
<g clip-path="url(#clip0_1_6756)">
<g clip-path="url(#clip1_1_6756)">
<path d="M83.0045 10.5307C83.1138 10.2679 83.4861 10.2679 83.5954 10.5307L84.9177 13.7099C84.9638 13.8207 85.068 13.8964 85.1876 13.906L88.6198 14.1811C88.9035 14.2039 89.0186 14.558 88.8024 14.7431L86.1874 16.9831C86.0963 17.0612 86.0565 17.1837 86.0844 17.3004L86.8833 20.6496C86.9493 20.9265 86.6481 21.1454 86.4052 20.997L83.4668 19.2022C83.3644 19.1396 83.2356 19.1396 83.1332 19.2022L80.1947 20.997C79.9518 21.1454 79.6506 20.9265 79.7167 20.6496L80.5156 17.3004C80.5434 17.1837 80.5036 17.0612 80.4125 16.9831L77.7975 14.7431C77.5813 14.558 77.6964 14.2039 77.9801 14.1811L81.4123 13.906C81.5319 13.8964 81.6361 13.8207 81.6822 13.7099L83.0045 10.5307Z" fill="#F2F4F7"/>
<g clip-path="url(#clip2_1_6756)">
<path d="M83.0045 10.5307C83.1138 10.2679 83.4861 10.2679 83.5954 10.5307L84.9177 13.7099C84.9638 13.8207 85.068 13.8964 85.1876 13.906L88.6198 14.1811C88.9035 14.2039 89.0186 14.558 88.8024 14.7431L86.1874 16.9831C86.0963 17.0612 86.0565 17.1837 86.0844 17.3004L86.8833 20.6496C86.9493 20.9265 86.6481 21.1454 86.4052 20.997L83.4668 19.2022C83.3644 19.1396 83.2356 19.1396 83.1332 19.2022L80.1947 20.997C79.9518 21.1454 79.6506 20.9265 79.7167 20.6496L80.5156 17.3004C80.5434 17.1837 80.5036 17.0612 80.4125 16.9831L77.7975 14.7431C77.5813 14.558 77.6964 14.2039 77.9801 14.1811L81.4123 13.906C81.5319 13.8964 81.6361 13.8207 81.6822 13.7099L83.0045 10.5307Z" fill="#FDB022"/>
</g>
</g>
<g clip-path="url(#clip3_1_6756)">
<path d="M97.4045 10.5307C97.5138 10.2679 97.8861 10.2679 97.9955 10.5307L99.3177 13.7099C99.3638 13.8207 99.468 13.8964 99.5876 13.906L103.02 14.1811C103.304 14.2039 103.419 14.558 103.202 14.7431L100.587 16.9831C100.496 17.0612 100.457 17.1837 100.484 17.3004L101.283 20.6496C101.349 20.9265 101.048 21.1454 100.805 20.997L97.8668 19.2022C97.7644 19.1396 97.6356 19.1396 97.5332 19.2022L94.5947 20.997C94.3518 21.1454 94.0506 20.9265 94.1167 20.6496L94.9156 17.3004C94.9434 17.1837 94.9036 17.0612 94.8125 16.9831L92.1975 14.7431C91.9814 14.558 92.0964 14.2039 92.3801 14.1811L95.8123 13.906C95.932 13.8964 96.0361 13.8207 96.0822 13.7099L97.4045 10.5307Z" fill="#F2F4F7"/>
<g clip-path="url(#clip4_1_6756)">
<path d="M97.4045 10.5307C97.5138 10.2679 97.8861 10.2679 97.9955 10.5307L99.3177 13.7099C99.3638 13.8207 99.468 13.8964 99.5876 13.906L103.02 14.1811C103.304 14.2039 103.419 14.558 103.202 14.7431L100.587 16.9831C100.496 17.0612 100.457 17.1837 100.484 17.3004L101.283 20.6496C101.349 20.9265 101.048 21.1454 100.805 20.997L97.8668 19.2022C97.7644 19.1396 97.6356 19.1396 97.5332 19.2022L94.5947 20.997C94.3518 21.1454 94.0506 20.9265 94.1167 20.6496L94.9156 17.3004C94.9434 17.1837 94.9036 17.0612 94.8125 16.9831L92.1975 14.7431C91.9814 14.558 92.0964 14.2039 92.3801 14.1811L95.8123 13.906C95.932 13.8964 96.0361 13.8207 96.0822 13.7099L97.4045 10.5307Z" fill="#FDB022"/>
</g>
</g>
<g clip-path="url(#clip5_1_6756)">
<path d="M111.804 10.5307C111.914 10.2679 112.286 10.2679 112.395 10.5307L113.718 13.7099C113.764 13.8207 113.868 13.8964 113.988 13.906L117.42 14.1811C117.704 14.2039 117.819 14.558 117.602 14.7431L114.987 16.9831C114.896 17.0612 114.857 17.1837 114.884 17.3004L115.683 20.6496C115.749 20.9265 115.448 21.1454 115.205 20.997L112.267 19.2022C112.164 19.1396 112.036 19.1396 111.933 19.2022L108.995 20.997C108.752 21.1454 108.451 20.9265 108.517 20.6496L109.316 17.3004C109.343 17.1837 109.304 17.0612 109.212 16.9831L106.597 14.7431C106.381 14.558 106.496 14.2039 106.78 14.1811L110.212 13.906C110.332 13.8964 110.436 13.8207 110.482 13.7099L111.804 10.5307Z" fill="#F2F4F7"/>
<g clip-path="url(#clip6_1_6756)">
<path d="M111.804 10.5307C111.914 10.2679 112.286 10.2679 112.395 10.5307L113.718 13.7099C113.764 13.8207 113.868 13.8964 113.988 13.906L117.42 14.1811C117.704 14.2039 117.819 14.558 117.602 14.7431L114.987 16.9831C114.896 17.0612 114.857 17.1837 114.884 17.3004L115.683 20.6496C115.749 20.9265 115.448 21.1454 115.205 20.997L112.267 19.2022C112.164 19.1396 112.036 19.1396 111.933 19.2022L108.995 20.997C108.752 21.1454 108.451 20.9265 108.517 20.6496L109.316 17.3004C109.343 17.1837 109.304 17.0612 109.212 16.9831L106.597 14.7431C106.381 14.558 106.496 14.2039 106.78 14.1811L110.212 13.906C110.332 13.8964 110.436 13.8207 110.482 13.7099L111.804 10.5307Z" fill="#FDB022"/>
</g>
</g>
<g clip-path="url(#clip7_1_6756)">
<path d="M126.205 10.5307C126.314 10.2679 126.686 10.2679 126.795 10.5307L128.118 13.7099C128.164 13.8207 128.268 13.8964 128.388 13.906L131.82 14.1811C132.104 14.2039 132.219 14.558 132.002 14.7431L129.387 16.9831C129.296 17.0612 129.257 17.1837 129.284 17.3004L130.083 20.6496C130.149 20.9265 129.848 21.1454 129.605 20.997L126.667 19.2022C126.564 19.1396 126.436 19.1396 126.333 19.2022L123.395 20.997C123.152 21.1454 122.851 20.9265 122.917 20.6496L123.716 17.3004C123.743 17.1837 123.704 17.0612 123.612 16.9831L120.998 14.7431C120.781 14.558 120.896 14.2039 121.18 14.1811L124.612 13.906C124.732 13.8964 124.836 13.8207 124.882 13.7099L126.205 10.5307Z" fill="#F2F4F7"/>
<g clip-path="url(#clip8_1_6756)">
<path d="M126.205 10.5307C126.314 10.2679 126.686 10.2679 126.795 10.5307L128.118 13.7099C128.164 13.8207 128.268 13.8964 128.388 13.906L131.82 14.1811C132.104 14.2039 132.219 14.558 132.002 14.7431L129.387 16.9831C129.296 17.0612 129.257 17.1837 129.284 17.3004L130.083 20.6496C130.149 20.9265 129.848 21.1454 129.605 20.997L126.667 19.2022C126.564 19.1396 126.436 19.1396 126.333 19.2022L123.395 20.997C123.152 21.1454 122.851 20.9265 122.917 20.6496L123.716 17.3004C123.743 17.1837 123.704 17.0612 123.612 16.9831L120.998 14.7431C120.781 14.558 120.896 14.2039 121.18 14.1811L124.612 13.906C124.732 13.8964 124.836 13.8207 124.882 13.7099L126.205 10.5307Z" fill="#FDB022"/>
</g>
</g>
<g clip-path="url(#clip9_1_6756)">
<path d="M140.604 10.5307C140.714 10.2679 141.086 10.2679 141.195 10.5307L142.518 13.7099C142.564 13.8207 142.668 13.8964 142.788 13.906L146.22 14.1811C146.504 14.2039 146.619 14.558 146.402 14.7431L143.787 16.9831C143.696 17.0612 143.656 17.1837 143.684 17.3004L144.483 20.6496C144.549 20.9265 144.248 21.1454 144.005 20.997L141.067 19.2022C140.964 19.1396 140.836 19.1396 140.733 19.2022L137.795 20.997C137.552 21.1454 137.251 20.9265 137.317 20.6496L138.116 17.3004C138.143 17.1837 138.104 17.0612 138.012 16.9831L135.397 14.7431C135.181 14.558 135.296 14.2039 135.58 14.1811L139.012 13.906C139.132 13.8964 139.236 13.8207 139.282 13.7099L140.604 10.5307Z" fill="#F2F4F7"/>
<g clip-path="url(#clip10_1_6756)">
<path d="M140.604 10.5307C140.714 10.2679 141.086 10.2679 141.195 10.5307L142.518 13.7099C142.564 13.8207 142.668 13.8964 142.788 13.906L146.22 14.1811C146.504 14.2039 146.619 14.558 146.402 14.7431L143.787 16.9831C143.696 17.0612 143.656 17.1837 143.684 17.3004L144.483 20.6496C144.549 20.9265 144.248 21.1454 144.005 20.997L141.067 19.2022C140.964 19.1396 140.836 19.1396 140.733 19.2022L137.795 20.997C137.552 21.1454 137.251 20.9265 137.317 20.6496L138.116 17.3004C138.143 17.1837 138.104 17.0612 138.012 16.9831L135.397 14.7431C135.181 14.558 135.296 14.2039 135.58 14.1811L139.012 13.906C139.132 13.8964 139.236 13.8207 139.282 13.7099L140.604 10.5307Z" fill="#FDB022"/>
</g>
</g>
</g>
<path d="M26.0454 30.5915V29.3545H32.5443V30.5915H30.0267V37.5H28.563V30.5915H26.0454ZM35.1733 33.9205V37.5H33.7335V29.3545H35.1415V32.429H35.213C35.3562 32.0843 35.5776 31.8125 35.8772 31.6136C36.1795 31.4121 36.564 31.3114 37.0307 31.3114C37.4549 31.3114 37.8248 31.4002 38.1403 31.5778C38.4558 31.7555 38.6998 32.0153 38.8721 32.3574C39.0471 32.6994 39.1346 33.117 39.1346 33.6102V37.5H37.6949V33.833C37.6949 33.422 37.5888 33.1025 37.3767 32.8744C37.1672 32.6437 36.8729 32.5284 36.4937 32.5284C36.2392 32.5284 36.0111 32.5841 35.8096 32.6955C35.6108 32.8042 35.4543 32.9619 35.3403 33.1688C35.229 33.3756 35.1733 33.6261 35.1733 33.9205ZM43.3068 37.6193C42.6943 37.6193 42.1653 37.492 41.7199 37.2375C41.2771 36.9803 40.9363 36.617 40.6977 36.1477C40.4591 35.6758 40.3397 35.1203 40.3397 34.4813C40.3397 33.8528 40.4591 33.3013 40.6977 32.8267C40.939 32.3494 41.2757 31.9782 41.7079 31.7131C42.1401 31.4453 42.6479 31.3114 43.2312 31.3114C43.6077 31.3114 43.963 31.3723 44.2971 31.4943C44.6339 31.6136 44.9308 31.7992 45.188 32.0511C45.4479 32.303 45.6521 32.6239 45.8005 33.0136C45.949 33.4008 46.0233 33.8621 46.0233 34.3977V34.8392H41.0159V33.8688H44.6432C44.6405 33.593 44.5808 33.3477 44.4642 33.133C44.3475 32.9155 44.1844 32.7445 43.975 32.6199C43.7682 32.4953 43.5269 32.433 43.2511 32.433C42.9568 32.433 42.6983 32.5045 42.4755 32.6477C42.2528 32.7883 42.0791 32.9739 41.9545 33.2045C41.8326 33.4326 41.7702 33.6831 41.7676 33.9563V34.8034C41.7676 35.1587 41.8326 35.4636 41.9625 35.7182C42.0924 35.9701 42.274 36.1636 42.5074 36.2989C42.7407 36.4314 43.0138 36.4977 43.3267 36.4977C43.5361 36.4977 43.7257 36.4686 43.8954 36.4102C44.0651 36.3492 44.2123 36.2604 44.3369 36.1438C44.4615 36.0271 44.5557 35.8826 44.6193 35.7102L45.9636 35.8614C45.8788 36.2167 45.717 36.5269 45.4784 36.792C45.2424 37.0545 44.9401 37.2587 44.5716 37.4045C44.203 37.5477 43.7814 37.6193 43.3068 37.6193ZM50.0831 37.5V29.3545H53.2013C53.7899 29.3545 54.2791 29.4473 54.6689 29.633C55.0613 29.8159 55.3543 30.0665 55.5478 30.3847C55.7441 30.7028 55.8422 31.0634 55.8422 31.4665C55.8422 31.7979 55.7785 32.0816 55.6513 32.3176C55.524 32.5509 55.353 32.7405 55.1382 32.8864C54.9234 33.0322 54.6835 33.1369 54.4183 33.2006V33.2801C54.7073 33.296 54.9844 33.3848 55.2495 33.5466C55.5174 33.7057 55.7361 33.9311 55.9058 34.2227C56.0755 34.5144 56.1603 34.867 56.1603 35.2807C56.1603 35.7023 56.0583 36.0814 55.8541 36.4182C55.6499 36.7523 55.3424 37.0161 54.9314 37.2097C54.5204 37.4032 54.0033 37.5 53.3802 37.5H50.0831ZM51.5586 36.267H53.1456C53.6812 36.267 54.067 36.165 54.303 35.9608C54.5416 35.754 54.6609 35.4888 54.6609 35.1653C54.6609 34.9241 54.6013 34.7066 54.4819 34.5131C54.3626 34.3169 54.1929 34.1631 53.9728 34.0517C53.7528 33.9377 53.4903 33.8807 53.1853 33.8807H51.5586V36.267ZM51.5586 32.8188H53.0183C53.2728 32.8188 53.5022 32.7723 53.7064 32.6795C53.9105 32.5841 54.071 32.4502 54.1876 32.2778C54.3069 32.1028 54.3666 31.896 54.3666 31.6574C54.3666 31.3419 54.2552 31.082 54.0325 30.8778C53.8124 30.6737 53.485 30.5716 53.0501 30.5716H51.5586V32.8188ZM60.0849 37.6193C59.4724 37.6193 58.9434 37.492 58.498 37.2375C58.0552 36.9803 57.7145 36.617 57.4758 36.1477C57.2372 35.6758 57.1179 35.1203 57.1179 34.4813C57.1179 33.8528 57.2372 33.3013 57.4758 32.8267C57.7171 32.3494 58.0539 31.9782 58.4861 31.7131C58.9183 31.4453 59.426 31.3114 60.0094 31.3114C60.3859 31.3114 60.7412 31.3723 61.0753 31.4943C61.412 31.6136 61.709 31.7992 61.9662 32.0511C62.226 32.303 62.4302 32.6239 62.5787 33.0136C62.7272 33.4008 62.8014 33.8621 62.8014 34.3977V34.8392H57.794V33.8688H61.4213C61.4186 33.593 61.359 33.3477 61.2423 33.133C61.1256 32.9155 60.9626 32.7445 60.7531 32.6199C60.5463 32.4953 60.305 32.433 60.0292 32.433C59.7349 32.433 59.4764 32.5045 59.2537 32.6477C59.0309 32.7883 58.8573 32.9739 58.7326 33.2045C58.6107 33.4326 58.5484 33.6831 58.5457 33.9563V34.8034C58.5457 35.1587 58.6107 35.4636 58.7406 35.7182C58.8705 35.9701 59.0522 36.1636 59.2855 36.2989C59.5188 36.4314 59.7919 36.4977 60.1048 36.4977C60.3143 36.4977 60.5039 36.4686 60.6736 36.4102C60.8433 36.3492 60.9904 36.2604 61.115 36.1438C61.2397 36.0271 61.3338 35.8826 61.3974 35.7102L62.7417 35.8614C62.6569 36.2167 62.4951 36.5269 62.2565 36.792C62.0205 37.0545 61.7183 37.2587 61.3497 37.4045C60.9811 37.5477 60.5595 37.6193 60.0849 37.6193ZM68.8478 33.0057L67.5353 33.1489C67.4982 33.0163 67.4333 32.8917 67.3405 32.775C67.2503 32.6583 67.1283 32.5642 66.9745 32.4926C66.8208 32.421 66.6325 32.3852 66.4098 32.3852C66.1102 32.3852 65.8583 32.4502 65.6541 32.5801C65.4526 32.71 65.3531 32.8784 65.3558 33.0852C65.3531 33.2629 65.4181 33.4074 65.5507 33.5188C65.6859 33.6301 65.9086 33.7216 66.2189 33.7932L67.2609 34.0159C67.8389 34.1405 68.2685 34.3381 68.5495 34.6085C68.8333 34.879 68.9764 35.233 68.9791 35.6705C68.9764 36.0549 68.8638 36.3943 68.641 36.6886C68.421 36.9803 68.1147 37.2083 67.7223 37.3727C67.3299 37.5371 66.8791 37.6193 66.37 37.6193C65.6223 37.6193 65.0204 37.4629 64.5643 37.15C64.1083 36.8345 63.8365 36.3956 63.749 35.8335L65.153 35.6983C65.2166 35.9741 65.3518 36.1822 65.5586 36.3227C65.7655 36.4633 66.0346 36.5335 66.366 36.5335C66.7081 36.5335 66.9825 36.4633 67.1893 36.3227C67.3988 36.1822 67.5035 36.0085 67.5035 35.8017C67.5035 35.6267 67.4359 35.4822 67.3007 35.3682C67.1681 35.2542 66.9613 35.1667 66.6802 35.1057L65.6382 34.8869C65.0522 34.765 64.6187 34.5595 64.3376 34.2705C64.0566 33.9788 63.9174 33.6102 63.92 33.1648C63.9174 32.7883 64.0194 32.4621 64.2263 32.1864C64.4357 31.908 64.7261 31.6932 65.0973 31.542C65.4711 31.3883 65.902 31.3114 66.3899 31.3114C67.1058 31.3114 67.6692 31.4638 68.0802 31.7688C68.4939 32.0737 68.7497 32.486 68.8478 33.0057ZM73.2169 31.3909V32.5045H69.7049V31.3909H73.2169ZM70.572 29.9273H72.0118V35.6625C72.0118 35.8561 72.0409 36.0045 72.0993 36.108C72.1602 36.2087 72.2398 36.2777 72.3379 36.3148C72.436 36.3519 72.5447 36.3705 72.664 36.3705C72.7542 36.3705 72.8364 36.3638 72.9106 36.3506C72.9875 36.3373 73.0459 36.3254 73.0856 36.3148L73.3282 37.4403C73.2513 37.4669 73.1413 37.496 72.9981 37.5278C72.8576 37.5597 72.6852 37.5782 72.4811 37.5835C72.1205 37.5941 71.7957 37.5398 71.5067 37.4205C71.2176 37.2985 70.9883 37.1102 70.8186 36.8557C70.6515 36.6011 70.5693 36.283 70.572 35.9011V29.9273ZM77.2628 37.5V29.3545H82.5605V30.5915H78.7383V32.8028H82.2861V34.0398H78.7383V36.2631H82.5923V37.5H77.2628ZM84.0022 37.5V31.3909H85.3784V32.429H85.45C85.5772 32.079 85.788 31.8059 86.0824 31.6097C86.3767 31.4108 86.728 31.3114 87.1363 31.3114C87.55 31.3114 87.8986 31.4121 88.1824 31.6136C88.4687 31.8125 88.6702 32.0843 88.7869 32.429H88.8505C88.9858 32.0896 89.2138 31.8191 89.5346 31.6176C89.8581 31.4134 90.2413 31.3114 90.6841 31.3114C91.2462 31.3114 91.7049 31.489 92.0602 31.8443C92.4155 32.1996 92.5932 32.718 92.5932 33.3994V37.5H91.1494V33.6222C91.1494 33.243 91.0486 32.9659 90.8471 32.7909C90.6456 32.6133 90.399 32.5244 90.1074 32.5244C89.76 32.5244 89.4882 32.6331 89.292 32.8506C89.0985 33.0653 89.0017 33.3451 89.0017 33.6898V37.5H87.5897V33.5625C87.5897 33.247 87.4943 32.9951 87.3034 32.8068C87.1151 32.6186 86.8685 32.5244 86.5636 32.5244C86.3568 32.5244 86.1685 32.5775 85.9988 32.6835C85.8291 32.7869 85.6939 32.9341 85.5932 33.125C85.4924 33.3133 85.442 33.5333 85.442 33.7852V37.5H84.0022ZM94.0538 39.7909V31.3909H95.4697V32.4011H95.5532C95.6275 32.2527 95.7322 32.0949 95.8675 31.9278C96.0027 31.7581 96.1856 31.6136 96.4163 31.4943C96.647 31.3723 96.9413 31.3114 97.2993 31.3114C97.7712 31.3114 98.1968 31.432 98.576 31.6733C98.9578 31.9119 99.2601 32.2659 99.4828 32.7352C99.7082 33.2019 99.8209 33.7746 99.8209 34.4534C99.8209 35.1242 99.7108 35.6943 99.4907 36.1636C99.2707 36.633 98.971 36.9909 98.5919 37.2375C98.2127 37.4841 97.7832 37.6074 97.3032 37.6074C96.9532 37.6074 96.6629 37.5491 96.4322 37.4324C96.2015 37.3157 96.0159 37.1752 95.8754 37.0108C95.7375 36.8437 95.6301 36.686 95.5532 36.5375H95.4936V39.7909H94.0538ZM95.4657 34.4455C95.4657 34.8405 95.5214 35.1866 95.6328 35.4835C95.7468 35.7805 95.9099 36.0125 96.122 36.1795C96.3368 36.3439 96.5966 36.4261 96.9015 36.4261C97.2197 36.4261 97.4862 36.3413 97.701 36.1716C97.9157 35.9992 98.0775 35.7646 98.1862 35.4676C98.2976 35.168 98.3532 34.8273 98.3532 34.4455C98.3532 34.0663 98.2989 33.7295 98.1902 33.4352C98.0815 33.1409 97.9197 32.9102 97.705 32.7432C97.4902 32.5761 97.2224 32.4926 96.9015 32.4926C96.594 32.4926 96.3328 32.5735 96.118 32.7352C95.9032 32.897 95.7402 33.1237 95.6288 33.4153C95.5201 33.707 95.4657 34.0504 95.4657 34.4455ZM103.719 37.6193C103.122 37.6193 102.605 37.4881 102.167 37.2256C101.73 36.9631 101.391 36.5958 101.149 36.1239C100.911 35.6519 100.791 35.1004 100.791 34.4693C100.791 33.8383 100.911 33.2854 101.149 32.8108C101.391 32.3362 101.73 31.9676 102.167 31.7051C102.605 31.4426 103.122 31.3114 103.719 31.3114C104.315 31.3114 104.832 31.4426 105.27 31.7051C105.707 31.9676 106.045 32.3362 106.284 32.8108C106.525 33.2854 106.646 33.8383 106.646 34.4693C106.646 35.1004 106.525 35.6519 106.284 36.1239C106.045 36.5958 105.707 36.9631 105.27 37.2256C104.832 37.4881 104.315 37.6193 103.719 37.6193ZM103.727 36.4659C104.05 36.4659 104.32 36.3771 104.538 36.1994C104.755 36.0191 104.917 35.7778 105.023 35.4756C105.132 35.1733 105.186 34.8366 105.186 34.4653C105.186 34.0915 105.132 33.7534 105.023 33.4511C104.917 33.1462 104.755 32.9036 104.538 32.7233C104.32 32.543 104.05 32.4528 103.727 32.4528C103.395 32.4528 103.119 32.543 102.899 32.7233C102.682 32.9036 102.519 33.1462 102.41 33.4511C102.304 33.7534 102.251 34.0915 102.251 34.4653C102.251 34.8366 102.304 35.1733 102.41 35.4756C102.519 35.7778 102.682 36.0191 102.899 36.1994C103.119 36.3771 103.395 36.4659 103.727 36.4659ZM108.954 37.5L107.228 31.3909H108.695L109.769 35.6864H109.825L110.922 31.3909H112.374L113.472 35.6625H113.532L114.589 31.3909H116.061L114.331 37.5H112.832L111.686 33.3716H111.603L110.457 37.5H108.954ZM119.596 37.6193C118.983 37.6193 118.454 37.492 118.009 37.2375C117.566 36.9803 117.225 36.617 116.987 36.1477C116.748 35.6758 116.629 35.1203 116.629 34.4813C116.629 33.8528 116.748 33.3013 116.987 32.8267C117.228 32.3494 117.565 31.9782 117.997 31.7131C118.429 31.4453 118.937 31.3114 119.52 31.3114C119.897 31.3114 120.252 31.3723 120.586 31.4943C120.923 31.6136 121.22 31.7992 121.477 32.0511C121.737 32.303 121.941 32.6239 122.09 33.0136C122.238 33.4008 122.312 33.8621 122.312 34.3977V34.8392H117.305V33.8688H120.932C120.93 33.593 120.87 33.3477 120.753 33.133C120.637 32.9155 120.474 32.7445 120.264 32.6199C120.057 32.4953 119.816 32.433 119.54 32.433C119.246 32.433 118.987 32.5045 118.765 32.6477C118.542 32.7883 118.368 32.9739 118.244 33.2045C118.122 33.4326 118.059 33.6831 118.057 33.9563V34.8034C118.057 35.1587 118.122 35.4636 118.252 35.7182C118.381 35.9701 118.563 36.1636 118.796 36.2989C119.03 36.4314 119.303 36.4977 119.616 36.4977C119.825 36.4977 120.015 36.4686 120.184 36.4102C120.354 36.3492 120.501 36.2604 120.626 36.1438C120.751 36.0271 120.845 35.8826 120.908 35.7102L122.253 35.8614C122.168 36.2167 122.006 36.5269 121.767 36.792C121.531 37.0545 121.229 37.2587 120.861 37.4045C120.492 37.5477 120.07 37.6193 119.596 37.6193ZM123.53 37.5V31.3909H124.926V32.4091H124.99C125.101 32.0564 125.292 31.7847 125.563 31.5938C125.836 31.4002 126.147 31.3034 126.497 31.3034C126.577 31.3034 126.666 31.3074 126.764 31.3153C126.865 31.3206 126.948 31.3299 127.014 31.3432V32.6676C126.953 32.6464 126.857 32.6278 126.724 32.6119C126.594 32.5934 126.468 32.5841 126.346 32.5841C126.084 32.5841 125.848 32.6411 125.638 32.7551C125.432 32.8665 125.268 33.0216 125.149 33.2205C125.03 33.4193 124.97 33.6487 124.97 33.9085V37.5H123.53ZM127.971 37.5V31.3909H129.347V32.429H129.419C129.546 32.079 129.757 31.8059 130.051 31.6097C130.345 31.4108 130.697 31.3114 131.105 31.3114C131.519 31.3114 131.867 31.4121 132.151 31.6136C132.437 31.8125 132.639 32.0843 132.756 32.429H132.819C132.955 32.0896 133.183 31.8191 133.503 31.6176C133.827 31.4134 134.21 31.3114 134.653 31.3114C135.215 31.3114 135.674 31.489 136.029 31.8443C136.384 32.1996 136.562 32.718 136.562 33.3994V37.5H135.118V33.6222C135.118 33.243 135.017 32.9659 134.816 32.7909C134.614 32.6133 134.368 32.5244 134.076 32.5244C133.729 32.5244 133.457 32.6331 133.261 32.8506C133.067 33.0653 132.97 33.3451 132.97 33.6898V37.5H131.558V33.5625C131.558 33.247 131.463 32.9951 131.272 32.8068C131.084 32.6186 130.837 32.5244 130.532 32.5244C130.326 32.5244 130.137 32.5775 129.968 32.6835C129.798 32.7869 129.663 32.9341 129.562 33.125C129.461 33.3133 129.411 33.5333 129.411 33.7852V37.5H127.971ZM140.727 37.6193C140.115 37.6193 139.586 37.492 139.14 37.2375C138.697 36.9803 138.357 36.617 138.118 36.1477C137.879 35.6758 137.76 35.1203 137.76 34.4813C137.76 33.8528 137.879 33.3013 138.118 32.8267C138.359 32.3494 138.696 31.9782 139.128 31.7131C139.56 31.4453 140.068 31.3114 140.652 31.3114C141.028 31.3114 141.383 31.3723 141.717 31.4943C142.054 31.6136 142.351 31.7992 142.608 32.0511C142.868 32.303 143.072 32.6239 143.221 33.0136C143.369 33.4008 143.444 33.8621 143.444 34.3977V34.8392H138.436V33.8688H142.063C142.061 33.593 142.001 33.3477 141.884 33.133C141.768 32.9155 141.605 32.7445 141.395 32.6199C141.188 32.4953 140.947 32.433 140.671 32.433C140.377 32.433 140.119 32.5045 139.896 32.6477C139.673 32.7883 139.499 32.9739 139.375 33.2045C139.253 33.4326 139.191 33.6831 139.188 33.9563V34.8034C139.188 35.1587 139.253 35.4636 139.383 35.7182C139.513 35.9701 139.694 36.1636 139.928 36.2989C140.161 36.4314 140.434 36.4977 140.747 36.4977C140.956 36.4977 141.146 36.4686 141.316 36.4102C141.485 36.3492 141.633 36.2604 141.757 36.1438C141.882 36.0271 141.976 35.8826 142.04 35.7102L143.384 35.8614C143.299 36.2167 143.137 36.5269 142.899 36.792C142.663 37.0545 142.36 37.2587 141.992 37.4045C141.623 37.5477 141.202 37.6193 140.727 37.6193ZM146.101 33.9205V37.5H144.662V31.3909H146.038V32.429H146.109C146.25 32.0869 146.474 31.8152 146.782 31.6136C147.092 31.4121 147.475 31.3114 147.931 31.3114C148.353 31.3114 148.72 31.4015 149.033 31.5818C149.348 31.7621 149.592 32.0233 149.764 32.3653C149.939 32.7074 150.026 33.1223 150.023 33.6102V37.5H148.583V33.833C148.583 33.4246 148.477 33.1051 148.265 32.8744C148.056 32.6437 147.765 32.5284 147.394 32.5284C147.142 32.5284 146.918 32.5841 146.722 32.6955C146.528 32.8042 146.376 32.9619 146.264 33.1688C146.156 33.3756 146.101 33.6261 146.101 33.9205ZM154.537 31.3909V32.5045H151.025V31.3909H154.537ZM151.892 29.9273H153.332V35.6625C153.332 35.8561 153.361 36.0045 153.42 36.108C153.481 36.2087 153.56 36.2777 153.658 36.3148C153.756 36.3519 153.865 36.3705 153.984 36.3705C154.075 36.3705 154.157 36.3638 154.231 36.3506C154.308 36.3373 154.366 36.3254 154.406 36.3148L154.649 37.4403C154.572 37.4669 154.462 37.496 154.318 37.5278C154.178 37.5597 154.006 37.5782 153.801 37.5835C153.441 37.5941 153.116 37.5398 152.827 37.4205C152.538 37.2985 152.309 37.1102 152.139 36.8557C151.972 36.6011 151.89 36.283 151.892 35.9011V29.9273ZM158.583 37.5V29.3545H161.638C162.263 29.3545 162.788 29.4712 163.213 29.7045C163.64 29.9379 163.962 30.2587 164.179 30.667C164.399 31.0727 164.509 31.5341 164.509 32.0511C164.509 32.5735 164.399 33.0375 164.179 33.4432C163.959 33.8489 163.634 34.1684 163.205 34.4017C162.775 34.6324 162.246 34.7477 161.618 34.7477H159.593V33.5347H161.419C161.785 33.5347 162.084 33.471 162.318 33.3438C162.551 33.2165 162.723 33.0415 162.835 32.8188C162.949 32.596 163.006 32.3402 163.006 32.0511C163.006 31.7621 162.949 31.5076 162.835 31.2875C162.723 31.0674 162.55 30.8964 162.314 30.7744C162.08 30.6498 161.779 30.5875 161.411 30.5875H160.059V37.5H158.583ZM167.376 37.6233C166.989 37.6233 166.64 37.5544 166.33 37.4165C166.022 37.2759 165.778 37.0691 165.598 36.796C165.42 36.5229 165.332 36.1862 165.332 35.7858C165.332 35.4411 165.395 35.1561 165.522 34.9307C165.65 34.7053 165.823 34.525 166.043 34.3898C166.264 34.2545 166.511 34.1525 166.787 34.0835C167.066 34.0119 167.353 33.9602 167.65 33.9284C168.008 33.8913 168.299 33.8581 168.521 33.829C168.744 33.7972 168.906 33.7494 169.007 33.6858C169.11 33.6195 169.162 33.5174 169.162 33.3795V33.3557C169.162 33.0561 169.073 32.8241 168.895 32.6597C168.717 32.4953 168.462 32.4131 168.128 32.4131C167.775 32.4131 167.495 32.49 167.288 32.6438C167.084 32.7975 166.946 32.9792 166.875 33.1886L165.53 32.9977C165.636 32.6265 165.811 32.3163 166.055 32.067C166.299 31.8152 166.598 31.6269 166.95 31.5023C167.303 31.375 167.693 31.3114 168.12 31.3114C168.414 31.3114 168.707 31.3458 168.999 31.4148C169.29 31.4837 169.557 31.5977 169.798 31.7568C170.039 31.9133 170.233 32.1267 170.379 32.3972C170.527 32.6676 170.601 33.0057 170.601 33.4114V37.5H169.217V36.6608H169.17C169.082 36.8305 168.959 36.9896 168.8 37.1381C168.643 37.2839 168.446 37.4019 168.207 37.492C167.971 37.5795 167.694 37.6233 167.376 37.6233ZM167.75 36.5653C168.039 36.5653 168.289 36.5083 168.501 36.3943C168.714 36.2777 168.877 36.1239 168.991 35.933C169.107 35.742 169.166 35.5339 169.166 35.3085V34.5886C169.121 34.6258 169.044 34.6602 168.935 34.692C168.829 34.7239 168.71 34.7517 168.577 34.7756C168.444 34.7994 168.313 34.8206 168.183 34.8392C168.053 34.8578 167.941 34.8737 167.845 34.8869C167.63 34.9161 167.438 34.9638 167.268 35.0301C167.099 35.0964 166.965 35.1892 166.867 35.3085C166.769 35.4252 166.72 35.5763 166.72 35.7619C166.72 36.0271 166.816 36.2273 167.01 36.3625C167.203 36.4977 167.45 36.5653 167.75 36.5653ZM172.049 37.5V31.3909H173.445V32.4091H173.509C173.62 32.0564 173.811 31.7847 174.082 31.5938C174.355 31.4002 174.666 31.3034 175.016 31.3034C175.096 31.3034 175.185 31.3074 175.283 31.3153C175.383 31.3206 175.467 31.3299 175.533 31.3432V32.6676C175.472 32.6464 175.375 32.6278 175.243 32.6119C175.113 32.5934 174.987 32.5841 174.865 32.5841C174.603 32.5841 174.367 32.6411 174.157 32.7551C173.95 32.8665 173.787 33.0216 173.668 33.2205C173.549 33.4193 173.489 33.6487 173.489 33.9085V37.5H172.049ZM179.868 31.3909V32.5045H176.357V31.3909H179.868ZM177.224 29.9273H178.663V35.6625C178.663 35.8561 178.692 36.0045 178.751 36.108C178.812 36.2087 178.891 36.2777 178.989 36.3148C179.088 36.3519 179.196 36.3705 179.316 36.3705C179.406 36.3705 179.488 36.3638 179.562 36.3506C179.639 36.3373 179.697 36.3254 179.737 36.3148L179.98 37.4403C179.903 37.4669 179.793 37.496 179.65 37.5278C179.509 37.5597 179.337 37.5782 179.133 37.5835C178.772 37.5941 178.447 37.5398 178.158 37.4205C177.869 37.2985 177.64 37.1102 177.47 36.8557C177.303 36.6011 177.221 36.283 177.224 35.9011V29.9273ZM182.512 33.9205V37.5H181.073V31.3909H182.449V32.429H182.52C182.661 32.0869 182.885 31.8152 183.192 31.6136C183.503 31.4121 183.886 31.3114 184.342 31.3114C184.763 31.3114 185.131 31.4015 185.444 31.5818C185.759 31.7621 186.003 32.0233 186.175 32.3653C186.35 32.7074 186.437 33.1223 186.434 33.6102V37.5H184.994V33.833C184.994 33.4246 184.888 33.1051 184.676 32.8744C184.466 32.6437 184.176 32.5284 183.805 32.5284C183.553 32.5284 183.329 32.5841 183.133 32.6955C182.939 32.8042 182.787 32.9619 182.675 33.1688C182.567 33.3756 182.512 33.6261 182.512 33.9205ZM190.602 37.6193C189.99 37.6193 189.461 37.492 189.015 37.2375C188.572 36.9803 188.232 36.617 187.993 36.1477C187.754 35.6758 187.635 35.1203 187.635 34.4813C187.635 33.8528 187.754 33.3013 187.993 32.8267C188.234 32.3494 188.571 31.9782 189.003 31.7131C189.435 31.4453 189.943 31.3114 190.527 31.3114C190.903 31.3114 191.258 31.3723 191.592 31.4943C191.929 31.6136 192.226 31.7992 192.483 32.0511C192.743 32.303 192.947 32.6239 193.096 33.0136C193.244 33.4008 193.319 33.8621 193.319 34.3977V34.8392H188.311V33.8688H191.938C191.936 33.593 191.876 33.3477 191.759 33.133C191.643 32.9155 191.48 32.7445 191.27 32.6199C191.063 32.4953 190.822 32.433 190.546 32.433C190.252 32.433 189.994 32.5045 189.771 32.6477C189.548 32.7883 189.374 32.9739 189.25 33.2045C189.128 33.4326 189.066 33.6831 189.063 33.9563V34.8034C189.063 35.1587 189.128 35.4636 189.258 35.7182C189.388 35.9701 189.569 36.1636 189.803 36.2989C190.036 36.4314 190.309 36.4977 190.622 36.4977C190.831 36.4977 191.021 36.4686 191.191 36.4102C191.36 36.3492 191.508 36.2604 191.632 36.1438C191.757 36.0271 191.851 35.8826 191.915 35.7102L193.259 35.8614C193.174 36.2167 193.012 36.5269 192.774 36.792C192.538 37.0545 192.235 37.2587 191.867 37.4045C191.498 37.5477 191.077 37.6193 190.602 37.6193ZM194.537 37.5V31.3909H195.933V32.4091H195.996C196.108 32.0564 196.299 31.7847 196.569 31.5938C196.842 31.4002 197.154 31.3034 197.504 31.3034C197.583 31.3034 197.672 31.3074 197.77 31.3153C197.871 31.3206 197.954 31.3299 198.021 31.3432V32.6676C197.96 32.6464 197.863 32.6278 197.73 32.6119C197.6 32.5934 197.474 32.5841 197.353 32.5841C197.09 32.5841 196.854 32.6411 196.645 32.7551C196.438 32.8665 196.275 33.0216 196.155 33.2205C196.036 33.4193 195.976 33.6487 195.976 33.9085V37.5H194.537Z" fill="white"/>
<path d="M76.7716 52.5V51.7364L79.1341 49.2886C79.3863 49.0227 79.5943 48.7898 79.7579 48.5898C79.9238 48.3875 80.0477 48.1955 80.1295 48.0136C80.2113 47.8318 80.2522 47.6386 80.2522 47.4341C80.2522 47.2023 80.1977 47.0023 80.0886 46.8341C79.9795 46.6636 79.8307 46.533 79.642 46.442C79.4534 46.3489 79.2409 46.3023 79.0045 46.3023C78.7545 46.3023 78.5363 46.3534 78.35 46.4557C78.1636 46.558 78.0204 46.7023 77.9204 46.8886C77.8204 47.075 77.7704 47.2932 77.7704 47.5432H76.7647C76.7647 47.1182 76.8625 46.7466 77.0579 46.4284C77.2534 46.1102 77.5216 45.8636 77.8625 45.6886C78.2034 45.5114 78.5909 45.4227 79.025 45.4227C79.4636 45.4227 79.85 45.5102 80.1841 45.6852C80.5204 45.858 80.7829 46.0943 80.9716 46.3943C81.1602 46.692 81.2545 47.0284 81.2545 47.4034C81.2545 47.6625 81.2057 47.9159 81.1079 48.1636C81.0125 48.4114 80.8454 48.6875 80.6068 48.992C80.3682 49.2943 80.0363 49.6614 79.6113 50.0932L78.2238 51.5455V51.5966H81.367V52.5H76.7716ZM83.9988 51.5455L83.9477 51.917C83.9136 52.1898 83.8557 52.4739 83.7738 52.7693C83.6943 53.067 83.6113 53.3432 83.525 53.5977C83.4409 53.8523 83.3716 54.0545 83.317 54.2045H82.5943C82.6238 54.0636 82.6647 53.8727 82.717 53.6318C82.7693 53.3932 82.8204 53.1261 82.8704 52.8307C82.9204 52.5352 82.9579 52.2341 82.9829 51.9273L83.017 51.5455H83.9988ZM87.6022 52.6159C87.0636 52.6136 86.6034 52.4716 86.2216 52.1898C85.8397 51.908 85.5477 51.4977 85.3454 50.9591C85.1432 50.4205 85.042 49.7716 85.042 49.0125C85.042 48.2557 85.1432 47.6091 85.3454 47.0727C85.55 46.5364 85.8432 46.1273 86.225 45.8455C86.6091 45.5636 87.0682 45.4227 87.6022 45.4227C88.1363 45.4227 88.5943 45.5648 88.9761 45.8489C89.3579 46.1307 89.65 46.5398 89.8522 47.0761C90.0568 47.6102 90.1591 48.2557 90.1591 49.0125C90.1591 49.7739 90.0579 50.4239 89.8557 50.9625C89.6534 51.4989 89.3613 51.9091 88.9795 52.1932C88.5977 52.475 88.1386 52.6159 87.6022 52.6159ZM87.6022 51.7057C88.075 51.7057 88.4443 51.475 88.7102 51.0136C88.9784 50.5523 89.1125 49.8852 89.1125 49.0125C89.1125 48.433 89.0511 47.9432 88.9284 47.5432C88.8079 47.1409 88.6341 46.8364 88.4068 46.6295C88.1818 46.4205 87.9136 46.3159 87.6022 46.3159C87.1318 46.3159 86.7625 46.5477 86.4943 47.0114C86.2261 47.475 86.0909 48.142 86.0886 49.0125C86.0886 49.5943 86.1488 50.0864 86.2693 50.4886C86.392 50.8886 86.5659 51.192 86.7909 51.3989C87.0159 51.6034 87.2863 51.7057 87.6022 51.7057ZM93.7991 52.6159C93.2605 52.6136 92.8003 52.4716 92.4184 52.1898C92.0366 51.908 91.7446 51.4977 91.5423 50.9591C91.34 50.4205 91.2389 49.7716 91.2389 49.0125C91.2389 48.2557 91.34 47.6091 91.5423 47.0727C91.7469 46.5364 92.04 46.1273 92.4219 45.8455C92.8059 45.5636 93.265 45.4227 93.7991 45.4227C94.3332 45.4227 94.7912 45.5648 95.173 45.8489C95.5548 46.1307 95.8469 46.5398 96.0491 47.0761C96.2537 47.6102 96.3559 48.2557 96.3559 49.0125C96.3559 49.7739 96.2548 50.4239 96.0525 50.9625C95.8503 51.4989 95.5582 51.9091 95.1764 52.1932C94.7946 52.475 94.3355 52.6159 93.7991 52.6159ZM93.7991 51.7057C94.2719 51.7057 94.6412 51.475 94.9071 51.0136C95.1753 50.5523 95.3094 49.8852 95.3094 49.0125C95.3094 48.433 95.248 47.9432 95.1253 47.5432C95.0048 47.1409 94.8309 46.8364 94.6037 46.6295C94.3787 46.4205 94.1105 46.3159 93.7991 46.3159C93.3287 46.3159 92.9594 46.5477 92.6912 47.0114C92.423 47.475 92.2878 48.142 92.2855 49.0125C92.2855 49.5943 92.3457 50.0864 92.4662 50.4886C92.5889 50.8886 92.7628 51.192 92.9878 51.3989C93.2128 51.6034 93.4832 51.7057 93.7991 51.7057ZM99.996 52.6159C99.4574 52.6136 98.9971 52.4716 98.6153 52.1898C98.2335 51.908 97.9415 51.4977 97.7392 50.9591C97.5369 50.4205 97.4358 49.7716 97.4358 49.0125C97.4358 48.2557 97.5369 47.6091 97.7392 47.0727C97.9437 46.5364 98.2369 46.1273 98.6187 45.8455C99.0028 45.5636 99.4619 45.4227 99.996 45.4227C100.53 45.4227 100.988 45.5648 101.37 45.8489C101.752 46.1307 102.044 46.5398 102.246 47.0761C102.451 47.6102 102.553 48.2557 102.553 49.0125C102.553 49.7739 102.452 50.4239 102.249 50.9625C102.047 51.4989 101.755 51.9091 101.373 52.1932C100.991 52.475 100.532 52.6159 99.996 52.6159ZM99.996 51.7057C100.469 51.7057 100.838 51.475 101.104 51.0136C101.372 50.5523 101.506 49.8852 101.506 49.0125C101.506 48.433 101.445 47.9432 101.322 47.5432C101.202 47.1409 101.028 46.8364 100.801 46.6295C100.576 46.4205 100.307 46.3159 99.996 46.3159C99.5255 46.3159 99.1562 46.5477 98.888 47.0114C98.6199 47.475 98.4846 48.142 98.4824 49.0125C98.4824 49.5943 98.5426 50.0864 98.663 50.4886C98.7858 50.8886 98.9596 51.192 99.1846 51.3989C99.4096 51.6034 99.6801 51.7057 99.996 51.7057ZM105.828 51.3273V46.7182H106.745V51.3273H105.828ZM103.984 49.4795V48.5659H108.593V49.4795H103.984ZM112.71 52.5V47.2636H113.695V48.0955H113.75C113.845 47.8136 114.014 47.592 114.255 47.4307C114.498 47.267 114.773 47.1852 115.08 47.1852C115.143 47.1852 115.218 47.1875 115.305 47.192C115.393 47.1966 115.462 47.2023 115.512 47.2091V48.1841C115.472 48.1727 115.399 48.1602 115.294 48.1466C115.19 48.1307 115.085 48.1227 114.981 48.1227C114.74 48.1227 114.525 48.1739 114.336 48.2761C114.15 48.3761 114.002 48.5159 113.893 48.6955C113.784 48.8727 113.73 49.075 113.73 49.3023V52.5H112.71ZM118.464 52.6057C117.948 52.6057 117.504 52.4955 117.131 52.275C116.76 52.0523 116.474 51.7398 116.272 51.3375C116.072 50.933 115.972 50.4591 115.972 49.9159C115.972 49.3795 116.072 48.9068 116.272 48.4977C116.474 48.0886 116.756 47.7693 117.117 47.5398C117.481 47.3102 117.906 47.1955 118.392 47.1955C118.688 47.1955 118.974 47.2443 119.251 47.342C119.529 47.4398 119.778 47.5932 119.998 47.8023C120.218 48.0114 120.392 48.283 120.52 48.617C120.647 48.9489 120.71 49.3523 120.71 49.8273V50.1886H116.548V49.425H119.712C119.712 49.1568 119.657 48.9193 119.548 48.7125C119.439 48.5034 119.285 48.3386 119.088 48.2182C118.892 48.0977 118.663 48.0375 118.399 48.0375C118.113 48.0375 117.863 48.108 117.649 48.2489C117.438 48.3875 117.274 48.5693 117.158 48.7943C117.045 49.017 116.988 49.2591 116.988 49.5205V50.117C116.988 50.467 117.049 50.7648 117.172 51.0102C117.297 51.2557 117.471 51.4432 117.693 51.5727C117.916 51.7 118.176 51.7636 118.474 51.7636C118.667 51.7636 118.843 51.7364 119.003 51.6818C119.162 51.625 119.299 51.5409 119.415 51.4295C119.531 51.3182 119.62 51.1807 119.681 51.017L120.646 51.1909C120.568 51.475 120.43 51.7239 120.23 51.9375C120.032 52.1489 119.783 52.3136 119.483 52.4318C119.185 52.5477 118.846 52.6057 118.464 52.6057ZM126.171 47.2636L124.272 52.5H123.181L121.279 47.2636H122.373L123.699 51.2932H123.754L125.077 47.2636H126.171ZM127.129 52.5V47.2636H128.148V52.5H127.129ZM127.644 46.4557C127.466 46.4557 127.314 46.3966 127.187 46.2784C127.062 46.158 126.999 46.0148 126.999 45.8489C126.999 45.6807 127.062 45.5375 127.187 45.4193C127.314 45.2989 127.466 45.2386 127.644 45.2386C127.821 45.2386 127.972 45.2989 128.097 45.4193C128.224 45.5375 128.288 45.6807 128.288 45.8489C128.288 46.0148 128.224 46.158 128.097 46.2784C127.972 46.3966 127.821 46.4557 127.644 46.4557ZM131.776 52.6057C131.26 52.6057 130.816 52.4955 130.443 52.275C130.073 52.0523 129.787 51.7398 129.584 51.3375C129.384 50.933 129.284 50.4591 129.284 49.9159C129.284 49.3795 129.384 48.9068 129.584 48.4977C129.787 48.0886 130.068 47.7693 130.43 47.5398C130.793 47.3102 131.218 47.1955 131.705 47.1955C132 47.1955 132.287 47.2443 132.564 47.342C132.841 47.4398 133.09 47.5932 133.31 47.8023C133.531 48.0114 133.705 48.283 133.832 48.617C133.959 48.9489 134.023 49.3523 134.023 49.8273V50.1886H129.86V49.425H133.024C133.024 49.1568 132.97 48.9193 132.86 48.7125C132.751 48.5034 132.598 48.3386 132.4 48.2182C132.205 48.0977 131.975 48.0375 131.712 48.0375C131.425 48.0375 131.175 48.108 130.962 48.2489C130.75 48.3875 130.587 48.5693 130.471 48.7943C130.357 49.017 130.3 49.2591 130.3 49.5205V50.117C130.3 50.467 130.362 50.7648 130.484 51.0102C130.609 51.2557 130.783 51.4432 131.006 51.5727C131.229 51.7 131.489 51.7636 131.787 51.7636C131.98 51.7636 132.156 51.7364 132.315 51.6818C132.474 51.625 132.612 51.5409 132.728 51.4295C132.843 51.3182 132.932 51.1807 132.993 51.017L133.958 51.1909C133.881 51.475 133.742 51.7239 133.542 51.9375C133.345 52.1489 133.096 52.3136 132.796 52.4318C132.498 52.5477 132.158 52.6057 131.776 52.6057ZM136.28 52.5L134.739 47.2636H135.792L136.818 51.1091H136.87L137.899 47.2636H138.953L139.975 51.092H140.026L141.046 47.2636H142.099L140.562 52.5H139.522L138.458 48.7193H138.38L137.316 52.5H136.28ZM146.99 48.542L146.066 48.7057C146.028 48.5875 145.966 48.475 145.882 48.3682C145.801 48.2614 145.689 48.1739 145.548 48.1057C145.407 48.0375 145.231 48.0034 145.02 48.0034C144.731 48.0034 144.49 48.0682 144.297 48.1977C144.104 48.325 144.007 48.4898 144.007 48.692C144.007 48.867 144.072 49.008 144.202 49.1148C144.331 49.2216 144.54 49.3091 144.829 49.3773L145.661 49.5682C146.143 49.6795 146.502 49.8511 146.738 50.083C146.974 50.3148 147.093 50.6159 147.093 50.9864C147.093 51.3 147.002 51.5795 146.82 51.825C146.64 52.0682 146.389 52.2591 146.066 52.3977C145.746 52.5364 145.374 52.6057 144.952 52.6057C144.365 52.6057 143.887 52.4807 143.516 52.2307C143.146 51.9784 142.919 51.6205 142.835 51.1568L143.82 51.0068C143.881 51.2636 144.007 51.458 144.198 51.5898C144.389 51.7193 144.638 51.7841 144.945 51.7841C145.279 51.7841 145.546 51.7148 145.746 51.5761C145.946 51.4352 146.046 51.2636 146.046 51.0614C146.046 50.8977 145.985 50.7602 145.862 50.6489C145.741 50.5375 145.556 50.4534 145.306 50.3966L144.42 50.2023C143.931 50.0909 143.57 49.9136 143.336 49.6705C143.104 49.4273 142.988 49.1193 142.988 48.7466C142.988 48.4375 143.074 48.167 143.247 47.9352C143.42 47.7034 143.658 47.5227 143.963 47.3932C144.268 47.2614 144.616 47.1955 145.01 47.1955C145.576 47.1955 146.021 47.3182 146.346 47.5636C146.671 47.8068 146.886 48.133 146.99 48.542Z" fill="#D0D5DD"/>
<path fill-rule="evenodd" clip-rule="evenodd" d="M196.85 63.4985C206.692 62.1356 213.858 54.3917 217.127 43.807C218.47 39.4262 218.665 34.5675 218.196 29.4876C217.331 20.4162 213.169 12.5397 207.099 6.79596C207.072 6.7694 207.064 6.76055 207.055 6.78711C207.037 6.81366 206.984 6.84021 206.958 6.85791C206.922 6.87561 206.913 6.85791 206.94 6.90216C213.381 12.8052 217.516 22.1951 217.967 31.6824C218.665 45.2319 212.091 57.2326 202.239 61.3656C200.587 62.0648 198.855 62.5958 197.053 62.8701C196.929 63.0294 196.858 63.2507 196.85 63.4985Z" fill="white"/>
<path fill-rule="evenodd" clip-rule="evenodd" d="M221.386 40.8688C220.582 41.8246 219.301 42.7627 217.923 42.3999C217.852 42.5061 217.49 43.0371 217.437 43.1167C217.375 43.2141 217.26 43.3114 217.172 43.2318C217.119 43.1964 217.074 43.1167 217.127 42.9928C217.331 42.745 217.525 42.4884 217.755 42.2229C218.161 40.0723 218.753 38.6386 219.99 37.1872C221.421 35.5233 222.888 34.7799 223.798 34.4702C223.931 34.4348 224.054 34.3994 224.187 34.3551C224.275 35.187 223.895 36.3995 223.595 37.0898C223.012 38.5058 222.376 39.7448 221.386 40.8688Z" fill="white"/>
<path fill-rule="evenodd" clip-rule="evenodd" d="M209.546 10.5749C209.661 10.6192 210.333 10.7962 210.412 10.6634C210.439 10.628 210.403 10.4953 210.342 10.4864C210.094 10.4599 209.82 10.4422 209.582 10.3891C209.149 9.02618 207.947 8.43322 206.843 8.20312C205.517 7.93762 204.059 8.34472 202.496 8.56597C202.416 8.58367 202.328 8.59253 202.257 8.59253C202.284 8.64563 202.319 8.68103 202.354 8.73413C203.008 9.62799 204.033 10.451 205.031 10.8581C205.703 11.1414 206.507 11.3007 207.293 11.2741C208.124 11.2387 208.822 11.0528 209.546 10.5749Z" fill="white"/>
<path fill-rule="evenodd" clip-rule="evenodd" d="M206.958 6.84906C206.905 6.86676 206.905 6.84906 206.807 6.79596C206.622 6.61895 206.463 6.51275 206.277 6.3446C205.217 6.35345 204.21 6.03485 203.255 5.39764C202.831 5.11444 202.407 4.76928 202.054 4.35333C201.206 3.44177 200.525 2.10541 200.216 0.884095C200.198 0.813294 200.189 0.769043 200.181 0.698242C200.26 0.733643 200.331 0.769044 200.41 0.804444C202.124 1.49475 203.786 1.81335 205.164 3.14972C206.101 4.04358 206.586 5.12329 206.392 6.1676C206.604 6.33575 206.825 6.49505 207.028 6.68975C207.117 6.76941 207.011 6.84906 206.958 6.84906Z" fill="white"/>
<path fill-rule="evenodd" clip-rule="evenodd" d="M213.196 16.2833C213.31 16.3452 213.955 16.6815 214.053 16.5665C214.097 16.5222 214.079 16.3806 214.017 16.3541C213.779 16.2656 213.496 16.2036 213.257 16.0974C213.169 15.1327 212.63 14.23 211.561 13.6105C209.926 12.7432 208.071 12.8848 206.321 12.7344C206.233 12.7255 206.154 12.7255 206.074 12.7167C206.101 12.7698 206.127 12.814 206.145 12.8671C206.728 13.876 207.673 14.9646 208.636 15.5841C209.281 16.0178 210.077 16.3452 210.872 16.5045C211.711 16.6727 212.427 16.5753 213.196 16.2833Z" fill="white"/>
<path fill-rule="evenodd" clip-rule="evenodd" d="M221.757 31.1691C221.227 32.3639 220.273 33.6737 218.877 33.7622C218.833 33.8861 218.576 34.4613 218.541 34.5498C218.515 34.6737 218.426 34.8065 218.311 34.7534C218.258 34.7357 218.205 34.6649 218.214 34.541C218.347 34.2224 218.515 33.9746 218.674 33.6471C218.55 31.4523 218.674 29.8504 219.513 28.045C220.467 25.9653 221.775 24.7705 222.579 24.1864C222.676 24.0979 222.791 24.0271 222.906 23.9563C223.091 24.8059 223.03 26.1246 222.915 26.8857C222.711 28.4256 222.385 29.7796 221.757 31.1691Z" fill="white"/>
<path fill-rule="evenodd" clip-rule="evenodd" d="M220.193 22.3544C219.964 23.6288 219.389 24.9121 218.117 25.4696C218.099 25.6024 217.958 26.2219 217.94 26.3193C217.94 26.452 217.896 26.6025 217.772 26.5848C217.737 26.5759 217.649 26.5405 217.64 26.4078C217.693 26.0715 217.79 25.6909 217.852 25.328C217.428 23.7793 217.198 22.3633 217.269 20.8499C217.384 18.717 218.179 16.8674 219.433 15.3805C219.531 15.2743 219.601 15.1593 219.69 15.0619C220.043 15.7965 220.273 17.0532 220.335 17.8055C220.467 19.3277 220.458 20.8587 220.193 22.3544Z" fill="white"/>
<path fill-rule="evenodd" clip-rule="evenodd" d="M216.986 14.3097C217.021 15.6195 216.703 17.0886 215.608 17.9382C215.616 18.071 215.643 18.7082 215.643 18.7967C215.661 18.9206 215.652 19.071 215.528 19.0976C215.484 19.0976 215.404 19.0887 215.378 18.9648C215.351 18.6374 215.343 18.1329 215.325 17.7701C214.388 16.1771 213.885 14.4424 213.867 12.46C213.832 10.1678 214.397 8.70757 214.848 7.78717C214.91 7.66326 214.971 7.53936 215.033 7.41546C215.528 8.01727 215.996 9.16778 216.208 9.87579C216.633 11.3095 216.942 12.8052 216.986 14.3097Z" fill="white"/>
<path fill-rule="evenodd" clip-rule="evenodd" d="M212.126 6.96411C212.409 8.19427 212.33 9.99969 211.411 10.7431C211.446 10.9024 211.526 11.4511 211.534 11.575C211.57 11.7078 211.596 11.8317 211.49 11.8848C211.446 11.9025 211.411 11.9025 211.358 11.7874C211.296 11.4423 211.278 11.1591 211.225 10.805C209.917 9.40673 209.175 8.02612 208.76 6.14105C208.345 4.16748 208.407 2.60101 208.583 1.49475C208.601 1.362 208.636 1.22925 208.672 1.08765C209.82 2.00806 210.633 3.22052 211.322 4.60113C211.693 5.35339 211.985 6.12335 212.126 6.96411Z" fill="white"/>
<path fill-rule="evenodd" clip-rule="evenodd" d="M216.129 23.8147C216.235 23.912 216.818 24.4696 216.959 24.3988C216.995 24.3634 217.021 24.1775 216.959 24.1421C216.739 23.9651 216.456 23.8324 216.235 23.6642C216.306 22.6022 216.067 21.5225 215.104 20.5136C213.62 19.071 211.649 18.5843 209.856 17.8409C209.776 17.8055 209.697 17.7612 209.599 17.7258C209.617 17.7878 209.626 17.8586 209.652 17.9205C210.006 19.1595 210.713 20.6021 211.57 21.5756C212.126 22.2305 212.877 22.8589 213.664 23.2748C214.486 23.7173 215.263 23.8589 216.129 23.8147Z" fill="white"/>
<path fill-rule="evenodd" clip-rule="evenodd" d="M217.366 32.4612C217.445 32.6028 217.914 33.3639 218.064 33.3285C218.126 33.3285 218.188 33.1427 218.143 33.0719C217.949 32.8152 217.702 32.6117 217.534 32.3462C217.834 31.3727 217.693 29.9655 216.968 28.6203C215.82 26.6556 214.141 25.6997 212.515 24.328C212.444 24.2572 212.374 24.1952 212.294 24.1156C212.285 24.1775 212.277 24.2483 212.285 24.328C212.321 25.6732 212.674 27.3636 213.302 28.638C213.708 29.4964 214.309 30.3549 214.998 31.0718C215.714 31.7886 216.474 32.2046 217.366 32.4612Z" fill="white"/>
<path fill-rule="evenodd" clip-rule="evenodd" d="M216.553 40.9396C216.615 41.1078 216.933 42.0105 217.092 42.0459C217.145 42.037 217.251 41.9043 217.207 41.8069C217.074 41.506 216.924 41.1609 216.8 40.8511C217.348 40.3289 217.534 38.8775 217.092 37.3553C216.359 35.1251 214.724 33.4524 213.408 31.6028C213.346 31.5143 213.284 31.4258 213.222 31.3373C213.204 31.3992 213.196 31.47 213.178 31.5408C212.948 32.8418 212.966 34.5675 213.319 35.9747C213.558 36.9128 213.973 37.9483 214.512 38.8333C215.069 39.7714 215.731 40.4174 216.553 40.9396Z" fill="white"/>
<path fill-rule="evenodd" clip-rule="evenodd" d="M218.523 50.8606C217.525 51.5155 215.74 52.0111 214.512 51.2057C214.415 51.2765 213.902 51.5863 213.841 51.6394C213.752 51.7279 213.628 51.7898 213.549 51.6659C213.505 51.6128 213.478 51.5243 213.567 51.427C213.823 51.25 214.106 51.1349 214.379 50.9579C215.316 49.0109 216.323 47.6922 217.87 46.7187C219.637 45.5859 221.112 45.5682 222.058 45.5682C222.19 45.5682 222.323 45.5771 222.455 45.5771C222.226 47.4975 219.849 50.0375 218.523 50.8606Z" fill="white"/>
<path fill-rule="evenodd" clip-rule="evenodd" d="M213.62 49.356C213.628 49.4799 213.69 50.0286 213.779 50.3649C213.805 50.4623 213.814 50.6039 213.947 50.5508C214 50.542 214.053 50.4269 214.053 50.3738C213.991 50.0464 213.938 49.6746 213.911 49.3472C214.521 48.9578 214.998 47.6834 215.095 46.1169C214.989 43.7539 213.929 41.6122 213.081 39.382C213.054 39.2846 213.019 39.1784 212.983 39.0722C212.948 39.1253 212.93 39.1784 212.895 39.2315C212.33 40.3997 211.897 42.037 211.861 43.515C211.826 44.4796 211.967 45.6036 212.25 46.6479C212.551 47.7188 212.992 48.5595 213.62 49.356Z" fill="white"/>
<path fill-rule="evenodd" clip-rule="evenodd" d="M213.116 58.9407C211.967 59.1708 210.412 59.1177 209.44 57.8787C209.193 57.9141 208.795 57.976 208.539 57.9937C208.468 58.0026 208.415 57.9495 208.389 57.861C208.371 57.799 208.389 57.7194 208.504 57.6574C208.795 57.5955 209.087 57.5955 209.396 57.5424C210.686 56.029 211.906 55.1794 213.664 54.8608C215.696 54.4891 217.419 55.0112 218.338 55.3918C218.462 55.4361 218.594 55.4892 218.709 55.5511C218.382 56.2857 217.428 57.0379 216.827 57.4008C215.678 58.1619 214.503 58.7106 213.116 58.9407Z" fill="white"/>
<path fill-rule="evenodd" clip-rule="evenodd" d="M209.007 55.7458C208.99 55.8786 208.972 56.4096 208.972 56.7636C208.981 56.8609 208.954 56.9937 209.087 57.0025C209.149 57.0025 209.219 56.9229 209.219 56.8609C209.246 56.5335 209.228 56.1795 209.281 55.8432C209.962 55.6307 210.863 54.5953 211.278 53.1704C211.755 50.8871 211.234 48.533 210.987 46.1169C210.969 46.0107 210.978 45.9045 210.969 45.7895C210.925 45.8337 210.872 45.878 210.828 45.9222C209.997 46.8338 209.166 48.2409 208.769 49.6215C208.495 50.5243 208.354 51.6394 208.354 52.7102C208.371 53.8342 208.601 54.7811 209.007 55.7458Z" fill="white"/>
<path fill-rule="evenodd" clip-rule="evenodd" d="M202.575 60.3921C202.513 60.4895 202.434 60.932 202.345 61.2683C202.319 61.3479 202.266 61.4718 202.39 61.5161C202.451 61.5426 202.531 61.4895 202.549 61.4364C202.663 61.1532 202.663 60.8523 202.805 60.5691C203.467 60.7284 204.616 59.8877 205.367 58.7902C206.41 56.8963 206.525 54.6749 206.931 52.4182C206.94 52.312 206.975 52.2146 206.993 52.1084C206.94 52.1173 206.887 52.1527 206.834 52.1704C205.835 52.6748 204.696 53.5687 203.962 54.6661C203.459 55.3741 202.99 56.3565 202.725 57.3388C202.451 58.3743 202.443 59.3566 202.575 60.3921Z" fill="white"/>
<path fill-rule="evenodd" clip-rule="evenodd" d="M206.189 64.6047C205.014 64.4454 203.494 63.9056 202.822 62.4011C202.584 62.3303 202.169 62.286 201.921 62.2152C201.851 62.2064 201.815 62.1267 201.806 62.0294C201.806 61.9763 201.842 61.8966 201.965 61.8789C202.257 61.9232 202.549 62.0117 202.876 62.0471C204.581 61.0382 205.959 60.578 207.753 60.8346C209.811 61.1267 211.314 62.1621 212.118 62.8259C212.232 62.9232 212.347 63.0117 212.453 63.1091C211.959 63.7197 210.845 64.1268 210.183 64.3038C208.884 64.6667 207.611 64.8083 206.189 64.6047Z" fill="white"/>
<defs>
<clipPath id="clip0_1_6756">
<rect width="70.4" height="12.8" fill="white" transform="translate(76.9 9.5)"/>
</clipPath>
<clipPath id="clip1_1_6756">
<rect width="12.8" height="12.8" fill="white" transform="translate(76.9 9.5)"/>
</clipPath>
<clipPath id="clip2_1_6756">
<rect width="12.8" height="12.8" fill="white" transform="translate(76.9 9.5)"/>
</clipPath>
<clipPath id="clip3_1_6756">
<rect width="12.8" height="12.8" fill="white" transform="translate(91.3 9.5)"/>
</clipPath>
<clipPath id="clip4_1_6756">
<rect width="12.8" height="12.8" fill="white" transform="translate(91.3 9.5)"/>
</clipPath>
<clipPath id="clip5_1_6756">
<rect width="12.8" height="12.8" fill="white" transform="translate(105.7 9.5)"/>
</clipPath>
<clipPath id="clip6_1_6756">
<rect width="12.8" height="12.8" fill="white" transform="translate(105.7 9.5)"/>
</clipPath>
<clipPath id="clip7_1_6756">
<rect width="12.8" height="12.8" fill="white" transform="translate(120.1 9.5)"/>
</clipPath>
<clipPath id="clip8_1_6756">
<rect width="12.8" height="12.8" fill="white" transform="translate(120.1 9.5)"/>
</clipPath>
<clipPath id="clip9_1_6756">
<rect width="12.8" height="12.8" fill="white" transform="translate(134.5 9.5)"/>
</clipPath>
<clipPath id="clip10_1_6756">
<rect width="12.8" height="12.8" fill="white" transform="translate(134.5 9.5)"/>
</clipPath>
</defs>
</svg>
